<?xml version="1.0" standalone="no"?>
<!DOCTYPE svg PUBLIC "-//W3C//DTD SVG 1.1//EN" "http://www.w3.org/Graphics/SVG/1.1/DTD/svg11.dtd" >
<svg>
<metadata>
Created by FontForge 20090914 at Wed Apr 17 12:48:32 2013
 By www-data
Copyright (c) Christian Schwartz, 2007. All rights reserved.
</metadata>
<defs>
<font id="StagSans-Semibold" horiz-adv-x="398" >
  <font-face 
    font-family="Stag Sans Semibold"
    font-weight="600"
    font-stretch="normal"
    units-per-em="1000"
    panose-1="2 11 7 3 4 0 0 2 0 4"
    ascent="800"
    descent="-200"
    x-height="526.999"
    cap-height="700"
    bbox="-192 -228.001 1256 927.001"
    underline-thickness="50"
    underline-position="-50"
    unicode-range="U+0020-U+FB02"
  />
<missing-glyph horiz-adv-x="386" 
 />
    <glyph glyph-name="f_f" unicode="ff" horiz-adv-x="673" 
d="M12 411v115.999h57v26c0 102 59.333 153 178 153c35.333 0 66 -4.66699 92 -14v-101h-29c-21.333 0 -36.833 -3 -46.5 -9s-14.5 -17.333 -14.5 -34v-21h136v32c0 102 59.667 153 179 153c36.667 0 68.667 -5 96 -15v-100h-34c-22 0 -37.833 -3.16699 -47.5 -9.5
s-14.5 -18.166 -14.5 -35.499v-25h91v-116h-91v-411h-179v411h-136v-411h-180v411h-57z" />
    <glyph glyph-name=".notdef" horiz-adv-x="386" 
 />
    <glyph glyph-name="space" unicode=" " horiz-adv-x="188" 
 />
    <glyph glyph-name="exclam" unicode="!" horiz-adv-x="301" 
d="M91 218l-36 377v105h191v-105l-37 -377h-118zM150 -7c-26 0 -48.167 8.83301 -66.5 26.5s-27.5 39.167 -27.5 64.5s9.16699 46.833 27.5 64.5s40.5 26.5 66.5 26.5s48.167 -8.83301 66.5 -26.5s27.5 -39.167 27.5 -64.5s-9.16699 -46.833 -27.5 -64.5
s-40.5 -26.5 -66.5 -26.5z" />
    <glyph glyph-name="quotedbl" unicode="&#x22;" horiz-adv-x="405" 
d="M49 458l-25 157v85h158v-85l-25 -157h-108zM248 458l-25 157v85h158v-85l-25 -157h-108z" />
    <glyph glyph-name="numbersign" unicode="#" horiz-adv-x="552" 
d="M54 409v124h88l25 167h117l-25 -167h83l25 167h117l-24 -167h70v-124h-89l-13 -94h70v-124h-88l-28 -191h-117l28 191h-84l-27 -191h-117l27 191h-70v124h88l14 94h-70zM241 409l-13 -94h83l13 94h-83z" />
    <glyph glyph-name="dollar" unicode="$" horiz-adv-x="554" 
d="M320 767v-62.001c61.333 -4.66699 118 -21 170 -49v-125h-71c-30 26.667 -63 43 -99 49v-154c78.667 -21.333 133.5 -47 164.5 -77s46.5 -75.333 46.5 -136c0 -61.333 -18.833 -110.666 -56.5 -147.999s-92.167 -59.666 -163.5 -66.999v-100h-91v97
c-77.333 4 -142.333 22.333 -195 55v132h72c32.667 -35.333 73.667 -56 123 -62v162c-69.333 20.667 -120.333 46.167 -153 76.5s-49 75.833 -49 136.5s18.833 108.667 56.5 144s89.167 56.666 154.5 63.999v64h91zM363 190.999c0 31.333 -17.333 53 -52 65v-129
c34.667 12 52 33.333 52 64zM175 512.999c0 -26 18 -46 54 -60v122c-36 -10 -54 -30.667 -54 -62z" />
    <glyph glyph-name="percent" unicode="%" horiz-adv-x="865" 
d="M204 422c36 0 54 32 54 96c0 64.667 -18 97 -54 97s-54 -32.333 -54 -97c0 -64 18 -96 54 -96zM204 329c-52 0 -96.167 16.5 -132.5 49.5s-54.5 80.167 -54.5 141.5s18 108.166 54 140.499s80.333 48.5 133 48.5s97 -16.167 133 -48.5s54 -79.166 54 -140.499
s-18.167 -108.5 -54.5 -141.5s-80.5 -49.5 -132.5 -49.5zM125 -34l493 763h119l-493 -763h-119zM662 84c36 0 54 32.333 54 97s-18 97 -54 97c-36.667 0 -55 -32.333 -55 -97s18.333 -97 55 -97zM662 -9c-52 0 -96.168 16.667 -132.501 50s-54.5 80.666 -54.5 141.999
c0 60.667 18 107.167 54 139.5s80.333 48.5 133 48.5c52 0 96 -16.167 132 -48.5s54 -78.833 54 -139.5c0 -61.333 -18.167 -108.666 -54.5 -141.999s-80.166 -50 -131.499 -50z" />
    <glyph glyph-name="ampersand" unicode="&#x26;" horiz-adv-x="712" 
d="M517 0l-45 48.999c-53.333 -38 -117 -57 -191 -57c-84.667 0 -149.334 18.5 -194.001 55.5s-67 87.833 -67 152.5c0 45.333 13.333 84.5 40 117.5s61.334 59.5 104.001 79.5c-21.333 37.333 -32 77 -32 119c0 58 21.167 104.667 63.5 140s101.833 53 178.5 53
c70 0 125.333 -14.667 166 -44v-121h-71c-21.333 21.333 -50 32 -86 32c-20.667 0 -37.167 -5.5 -49.5 -16.5s-18.5 -25.833 -18.5 -44.5c0 -15.333 3.66699 -29.333 11 -42s20.333 -29 39 -49l127 -144c22 52 34.667 99.667 38 143h142v-49
c-15.333 -71.333 -43 -139.666 -83 -204.999l109 -124v-45h-181zM310 117.999c27.333 0 53 8.66699 77 26l-149 166c-26 -24 -39 -53.667 -39 -89c0 -30.667 9.5 -55.5 28.5 -74.5s46.5 -28.5 82.5 -28.5z" />
    <glyph glyph-name="quotesingle" unicode="'" horiz-adv-x="206" 
d="M49 458l-25 157v85h158v-85l-25 -157h-108z" />
    <glyph glyph-name="parenleft" unicode="(" horiz-adv-x="352" 
d="M332 741v-110.998c-90 -32 -135 -125.333 -135 -280c0 -160 45 -256.667 135 -290v-109h-51c-33.333 9.33301 -64.333 23.333 -93 42s-55.334 43.334 -80.001 74.001s-44.167 70.167 -58.5 118.5s-21.5 103.166 -21.5 164.499c0 60 7.16699 113.667 21.5 161
s34 86.166 59 116.499s51.833 54.666 80.5 72.999s59.334 31.833 92.001 40.5h51z" />
    <glyph glyph-name="parenright" unicode=")" horiz-adv-x="352" 
d="M19 630l0.000976562 110.998h52c32.667 -8.66699 63.167 -22.167 91.5 -40.5s55 -42.666 80 -72.999s44.833 -69.166 59.5 -116.499s22 -101 22 -161c0 -61.333 -7.16699 -116.166 -21.5 -164.499s-33.833 -87.833 -58.5 -118.5s-51.334 -55.334 -80.001 -74.001
s-59.667 -32.667 -93 -42h-52v109c90 33.333 135 130 135 290c0 154.667 -45 248 -135 280z" />
    <glyph glyph-name="asterisk" unicode="*" horiz-adv-x="402" 
d="M265 651l-28 -77l63 48l47 15l39 -121l-46 -16l-75 3l65 -44l28 -39l-104 -74l-29 40l-24 78l-25 -78l-29 -40l-104 74l29 39l65 44l-75 -3l-47 16l40 121l47 -15l61 -48l-26 77v49h128v-49z" />
    <glyph glyph-name="plus" unicode="+" horiz-adv-x="534" 
d="M510 276h-168v-180h-149v180h-169v139h169v180h149v-180h168v-139z" />
    <glyph glyph-name="comma" unicode="," horiz-adv-x="235" 
d="M23 -41c44.667 6 66.999 19.332 66.999 39.999c0 6 -1.5 10.5 -4.5 13.5s-8.16699 6.33301 -15.5 10s-12.666 6.83398 -15.999 9.50098c-20.667 14.667 -31 36 -31 64c0 22.667 8.66699 41.5 26 56.5s39 22.5 65 22.5c28 0 51.5 -9.33301 70.5 -28s28.5 -46 28.5 -82
c0 -108 -63.333 -168 -190 -180v74z" />
    <glyph glyph-name="hyphen" unicode="-" horiz-adv-x="306" 
d="M30 224v137h246v-137h-246z" />
    <glyph glyph-name="period" unicode="." horiz-adv-x="235" 
d="M117 -7c-26 0 -48.167 8.83301 -66.5 26.5s-27.5 39.167 -27.5 64.5s9.16699 46.833 27.5 64.5s40.5 26.5 66.5 26.5s48.167 -8.83301 66.5 -26.5s27.5 -39.167 27.5 -64.5s-9.16699 -46.833 -27.5 -64.5s-40.5 -26.5 -66.5 -26.5z" />
    <glyph glyph-name="slash" unicode="/" horiz-adv-x="368" 
d="M363 741v-35l-231 -755h-130v35l231 755h130z" />
    <glyph glyph-name="zero" unicode="0" horiz-adv-x="682" 
d="M341 -9c-90.667 0 -165.667 31 -225 93s-89 150.667 -89 266c0 114.667 30 203.167 90 265.5s134.667 93.5 224 93.5s164 -31.167 224 -93.5s90 -150.833 90 -265.5s-29.667 -203.167 -89 -265.5s-134.333 -93.5 -225 -93.5zM341 121c40 0 70.167 17.668 90.5 53.001
s30.5 92.666 30.5 171.999c0 80.667 -10.167 138.667 -30.5 174s-50.5 53 -90.5 53c-40.667 0 -71 -17.667 -91 -53s-30 -93.333 -30 -174c0 -80 10 -137.5 30 -172.5s50.333 -52.5 91 -52.5z" />
    <glyph glyph-name="one" unicode="1" 
d="M327 0h-192v512l-77 -41h-40v133l173 96h136v-700z" />
    <glyph glyph-name="two" unicode="2" horiz-adv-x="549" 
d="M519 144l0.000976562 -144.001h-499v146l193 182c41.333 38 70.333 69.333 87 94s25 48.667 25 72c0 22.667 -7.33301 40.334 -22 53.001s-36.334 19 -65.001 19c-48 0 -91 -15.667 -129 -47h-69v128c66.667 41.333 140.667 62 222 62c171.333 0 257 -68.333 257 -205
c0 -46 -13.167 -87.833 -39.5 -125.5s-68.833 -82.167 -127.5 -133.5l-115 -101h282z" />
    <glyph glyph-name="three" unicode="3" horiz-adv-x="539" 
d="M226 -9c-87.333 0 -157.667 16.667 -211 50v125h71c29.333 -28 70.333 -42 123 -42c34 0 61.5 7.5 82.5 22.5s31.5 36.167 31.5 63.5c0 28 -8.83301 48.5 -26.5 61.5s-45.167 19.5 -82.5 19.5h-57v125h50c75.333 0 113 26.333 113 79c0 50.667 -29.333 76 -88 76
c-48.667 0 -90.667 -13 -126 -39h-67v119c62 38.667 134.333 58 217 58c77.333 0 137.833 -15.5 181.5 -46.5s65.5 -78.167 65.5 -141.5c0 -81.333 -43.667 -134.666 -131 -159.999v-4c95.333 -14.667 143 -67.334 143 -158.001c0.666992 -66 -25.333 -117.167 -78 -153.5
s-123 -54.5 -211 -54.5z" />
    <glyph glyph-name="four" unicode="4" horiz-adv-x="605" 
d="M511 0h-188v146h-303v146l312 408h179v-429h76v-125h-76v-146zM155 275v-4h171v226h-4z" />
    <glyph glyph-name="five" unicode="5" horiz-adv-x="550" 
d="M526 229c0 -74 -27 -132.168 -81 -174.501s-127 -63.5 -219 -63.5c-80.667 0 -148.667 16 -204 48v129h70c31.333 -28.667 72.666 -43 123.999 -43c36.667 0 65.667 8.83301 87 26.5s32 42.834 32 75.501c0 32 -8 55.833 -24 71.5s-37.333 23.5 -64 23.5
c-38.667 0 -70.667 -13.333 -96 -40h-109v418h445v-144h-310v-144h3c30.667 24.667 73.334 37 128.001 37c65.333 0 118 -18.5 158 -55.5s60 -91.833 60 -164.5z" />
    <glyph glyph-name="six" unicode="6" horiz-adv-x="622" 
d="M323 -9c-90.667 0 -162.666 28.833 -215.999 86.5s-80 143.5 -80 257.5c0 119.333 31.5 211.5 94.5 276.5s151.5 97.5 265.5 97.5c65.333 0 122 -11.333 170 -34v-134h-69c-26 19.333 -60.667 29 -104 29c-50 0 -88 -14.333 -114 -43s-42.333 -72 -49 -130
c40 32 93 48 159 48s119 -18.5 159 -55.5s60 -89.5 60 -157.5c0 -72.667 -24.833 -131 -74.5 -175s-116.834 -66 -201.501 -66zM319.001 325c-37.333 0 -71.001 -9.33301 -101.001 -28c1.33301 -66.667 10.333 -114.167 27 -142.5s41.334 -42.5 74.001 -42.5
c62 0 93 37.333 93 112c0 67.333 -31 101 -93 101z" />
    <glyph glyph-name="seven" unicode="7" horiz-adv-x="533" 
d="M93 0v60l263 488v4h-337v148h488v-158l-224 -542h-190z" />
    <glyph glyph-name="eight" unicode="8" horiz-adv-x="614" 
d="M307 -9c-91.333 0 -161.835 18.333 -211.502 55s-74.5 87.667 -74.5 153c0 86.667 44.667 144.334 134 173.001v4c-70.667 24 -106 72.667 -106 146c0 57.333 23.833 102.833 71.5 136.5s109.834 50.5 186.501 50.5s138.834 -16.833 186.501 -50.5
s71.5 -79.167 71.5 -136.5c0 -74 -35 -122.667 -105 -146v-4c88.667 -28.667 133 -86.334 133 -173.001c0 -65.333 -24.833 -116.333 -74.5 -153s-120.167 -55 -211.5 -55zM306.998 112c33.333 0 58.666 9.33301 75.999 28s26 43 26 73c0 29.333 -8.66699 53.5 -26 72.5
s-42.666 28.5 -75.999 28.5s-58.833 -9.5 -76.5 -28.5s-26.5 -43.167 -26.5 -72.5c0 -30 8.83301 -54.333 26.5 -73s43.167 -28 76.5 -28zM306.998 427c25.333 0 45.333 7 60 21s22 33.333 22 58s-7.33301 44.167 -22 58.5s-34.667 21.5 -60 21.5
c-26 0 -46.167 -7 -60.5 -21s-21.5 -33.667 -21.5 -59s7.16699 -44.833 21.5 -58.5s34.5 -20.5 60.5 -20.5z" />
    <glyph glyph-name="nine" unicode="9" horiz-adv-x="622" 
d="M233 -9c-66.667 0 -124.999 10.3301 -174.999 30.9971v134h70c24 -19.333 59.667 -29 107 -29c56 0 96.333 13.833 121 41.5s39.667 70.834 45 129.501c-40.667 -30 -92.334 -45 -155.001 -45c-68 0 -122.167 18.5 -162.5 55.5s-60.5 89.5 -60.5 157.5
c0 72.667 25 131.334 75 176.001s117 67 201 67c90.667 0 162.834 -28.833 216.501 -86.5s80.5 -144.167 80.5 -259.5c0 -119.333 -30.833 -211.166 -92.5 -275.499s-151.834 -96.5 -270.501 -96.5zM303.001 373.997c37.333 0 71 9 101 27
c-2 68 -11.167 115.833 -27.5 143.5s-40.833 41.5 -73.5 41.5c-62 0 -93 -38 -93 -114c0 -65.333 31 -98 93 -98z" />
    <glyph glyph-name="colon" unicode=":" horiz-adv-x="236" 
d="M118 277c-26.667 0 -49 8.66895 -67 26.002s-27 38.666 -27 63.999s9 47 27 65s40.333 27 67 27c26 0 48.167 -9 66.5 -27s27.5 -39.667 27.5 -65c0 -24.667 -9.16699 -45.834 -27.5 -63.501s-40.5 -26.5 -66.5 -26.5zM118 -6.99805c-26.667 0 -49 8.83301 -67 26.5
s-27 39.167 -27 64.5s9 46.833 27 64.5s40.333 26.5 67 26.5c26 0 48.167 -8.83301 66.5 -26.5s27.5 -39.167 27.5 -64.5s-9.16699 -46.833 -27.5 -64.5s-40.5 -26.5 -66.5 -26.5z" />
    <glyph glyph-name="semicolon" unicode=";" horiz-adv-x="236" 
d="M22 -41c44.667 6 66.998 19.332 66.998 39.999c0 6 -1.5 10.5 -4.5 13.5s-8.16699 6.33301 -15.5 10s-12.666 6.83398 -15.999 9.50098c-20.667 14.667 -31 36 -31 64c0 22.667 8.66699 41.5 26 56.5s39 22.5 65 22.5c28.667 0 52.334 -9.33301 71.001 -28s28 -46 28 -82
c0 -108 -63.333 -168 -190 -180v74zM117.998 276.999c-26.667 0 -49 8.66895 -67 26.002s-27 38.666 -27 63.999s9 47 27 65s40.333 27 67 27c26 0 48.167 -9 66.5 -27s27.5 -39.667 27.5 -65c0 -24.667 -9.16699 -45.834 -27.5 -63.501s-40.5 -26.5 -66.5 -26.5z" />
    <glyph glyph-name="less" unicode="&#x3c;" horiz-adv-x="471" 
d="M25 269v121l381 185h38v-135l-236 -108v-3l236 -109v-136h-38z" />
    <glyph glyph-name="equal" unicode="=" horiz-adv-x="504" 
d="M477 350h-450v133h450v-133zM477 140h-450v133h450v-133z" />
    <glyph glyph-name="greater" unicode="&#x3e;" horiz-adv-x="471" 
d="M447 390v-121l-382 -185h-38v135l236 108v3l-236 108v137h38z" />
    <glyph glyph-name="question" unicode="?" horiz-adv-x="464" 
d="M115 218c-6.66699 39.333 -5.66602 71.833 3.00098 97.5s28 53.167 58 82.5c18 16.667 31.5 29.667 40.5 39s17.5 21.333 25.5 36s12 29 12 43c0 18 -6 32 -18 42s-28.333 15 -49 15c-40.667 0 -75 -13.333 -103 -40h-68v123c55.333 35.333 119.666 53 192.999 53
c74.667 0 131.834 -16 171.501 -48s59.5 -78 59.5 -138c0 -38 -9.16699 -70.333 -27.5 -97s-45.833 -53.334 -82.5 -80.001c-24 -18 -40.667 -31.333 -50 -40s-17.833 -20.667 -25.5 -36s-10.834 -32.666 -9.50098 -51.999h-130zM184.001 -7
c-26 0 -48.167 8.83301 -66.5 26.5s-27.5 39.167 -27.5 64.5s9.16699 46.833 27.5 64.5s40.5 26.5 66.5 26.5s48.167 -8.83301 66.5 -26.5s27.5 -39.167 27.5 -64.5s-9.16699 -46.833 -27.5 -64.5s-40.5 -26.5 -66.5 -26.5z" />
    <glyph glyph-name="at" unicode="@" horiz-adv-x="882" 
d="M442 -134c-44 0 -86.1699 4.5 -126.503 13.5s-78.5 23.333 -114.5 43s-67.333 43.834 -94 72.501s-47.667 64 -63 106s-23 88.333 -23 139c0 66.667 13.333 127.667 40 183s61.5 100.333 104.5 135s90.333 61.5 142 80.5s103.834 28.5 156.501 28.5
c113.333 0 207.833 -29.5 283.5 -88.5s113.5 -139.833 113.5 -242.5c0 -88 -24.833 -155 -74.5 -201s-111.167 -69 -184.5 -69c-71.333 0 -115.333 21 -132 63c-37.333 -41.333 -81 -62 -131 -62c-38 0 -68 12.333 -90 37s-33 60 -33 106c0 64 20.5 121.167 61.5 171.5
s93.833 75.5 158.5 75.5c40.667 0 74.334 -14 101.001 -42c18 24 42 36 72 36h68l-54 -238c-8 -36 0.333008 -54 25 -54c30.667 0 56.167 15 76.5 45s30.5 74 30.5 132c0 75.333 -26 134.166 -78 176.499s-123 63.5 -213 63.5c-42.667 0 -83.5 -7 -122.5 -21
s-74.167 -34.333 -105.5 -61s-56.333 -62 -75 -106s-28 -93.333 -28 -148c0 -95.333 28.333 -166.333 85 -213s131.334 -70 224.001 -70c100.667 0 184.667 22 252 66h36v-86c-31.333 -21.333 -72.833 -38.5 -124.5 -51.5s-106.167 -19.5 -163.5 -19.5zM403.997 169
c23.333 0 43.667 9.33301 61 28l35 151c-12 4 -24.667 6 -38 6c-28 0 -51 -13.667 -69 -41s-27 -59.333 -27 -96c0 -32 12.667 -48 38 -48z" />
    <glyph glyph-name="A" unicode="A" horiz-adv-x="694" 
d="M19 0v45l223 655h208l226 -655v-45h-186l-49 158h-223l-47 -158h-152zM328 524l-71 -236h145l-72 236h-2z" />
    <glyph glyph-name="B" unicode="B" horiz-adv-x="627" 
d="M56 0v700h262c87.333 0 152.5 -15 195.5 -45s64.5 -76 64.5 -138c0 -78.667 -42 -127.667 -126 -147v-4c101.333 -18.667 152 -73 152 -163c0 -66 -24.333 -116.333 -73 -151s-118 -52 -208 -52h-267zM244 124h71c64 0 96 30 96 90c0 59.333 -32 89 -96 89h-71v-179z
M244 420h65c57.333 0 86 26 86 78c0 51.333 -28.333 77 -85 77h-66v-155z" />
    <glyph glyph-name="C" unicode="C" horiz-adv-x="635" 
d="M371 -9c-106 0 -189.833 31.1699 -251.5 93.5029s-92.5 149.5 -92.5 261.5c0 113.333 32.667 202.166 98 266.499s152.666 96.5 261.999 96.5c82 0 152 -16.667 210 -50v-133h-74c-33.333 30.667 -77 46 -131 46s-95.667 -18.333 -125 -55s-44 -91.334 -44 -164.001
c0 -78.667 13.333 -136.334 40 -173.001s66.667 -55 120 -55c59.333 0 110 20.333 152 61h68v-127c-61.333 -45.333 -138.666 -68 -231.999 -68z" />
    <glyph glyph-name="D" unicode="D" horiz-adv-x="701" 
d="M56 0v700h248c247.333 0 371 -115.333 371 -346c0 -236 -125.667 -354 -377 -354h-242zM248 129h47c63.333 0 109.833 17 139.5 51s44.5 90.333 44.5 169s-14.5 134.667 -43.5 168s-75.833 50 -140.5 50h-47v-438z" />
    <glyph glyph-name="E" unicode="E" horiz-adv-x="581" 
d="M56 0v700h482v-134h-291v-149h205v-126h-205v-161h301v-130h-492z" />
    <glyph glyph-name="F" unicode="F" horiz-adv-x="571" 
d="M248 0h-192v700h485v-134h-293v-167h225v-128h-225v-271z" />
    <glyph glyph-name="G" unicode="G" horiz-adv-x="681" 
d="M371 -9c-113.333 0 -199.166 30.501 -257.499 91.501s-87.5 148.833 -87.5 263.5c0 116 32.167 205.5 96.5 268.5s154.5 94.5 270.5 94.5c77.333 0 147.333 -14.667 210 -44v-138h-71c-38 29.333 -83.667 44 -137 44c-56.667 0 -99.334 -17.333 -128.001 -52
s-43 -91.334 -43 -170.001c0 -80.667 11.833 -139.167 35.5 -175.5s60.5 -54.5 110.5 -54.5c31.333 0 58 3.33301 80 10v128h-83v116h265v-329c-71.333 -35.333 -158.333 -53 -261 -53z" />
    <glyph glyph-name="H" unicode="H" horiz-adv-x="711" 
d="M248 0h-192v700h192v-276h215v276h192v-700h-192v289h-215v-289z" />
    <glyph glyph-name="I" unicode="I" horiz-adv-x="311" 
d="M252 0h-193v700h193v-700z" />
    <glyph glyph-name="J" unicode="J" horiz-adv-x="490" 
d="M187 -9c-69.333 0 -126.333 14 -171 42v129h66c23.333 -22 53.333 -33 90 -33c49.333 0 74 24 74 72v499h192v-499c0 -140 -83.667 -210 -251 -210z" />
    <glyph glyph-name="K" unicode="K" horiz-adv-x="693" 
d="M56 0v700h192v-285l237 285h165v-43l-203 -234l224 -380v-43h-187l-172 291l-64 -70v-221h-192z" />
    <glyph glyph-name="L" unicode="L" horiz-adv-x="552" 
d="M523 0h-467v700h192v-568h275v-132z" />
    <glyph glyph-name="M" unicode="M" horiz-adv-x="881" 
d="M56 0v700h251l133 -416h3l133 416h249v-700h-188v483h-3l-157 -483h-110l-155 483h-3v-483h-153z" />
    <glyph glyph-name="N" unicode="N" horiz-adv-x="707" 
d="M56 0v700h205l229 -405h3v405h158v-700h-174l-261 459h-3v-459h-157z" />
    <glyph glyph-name="O" unicode="O" horiz-adv-x="742" 
d="M371 -9c-99.333 0 -181.667 31.833 -247 95.5s-98 151.167 -98 262.5s33 199.166 99 263.499s148 96.5 246 96.5s180.167 -32.167 246.5 -96.5s99.5 -152.166 99.5 -263.499s-32.833 -198.833 -98.5 -262.5s-148.167 -95.5 -247.5 -95.5zM370.999 122
c46 0 82.5 18.667 109.5 56s40.5 93.666 40.5 168.999c0 76 -13.5 132.833 -40.5 170.5s-63.5 56.5 -109.5 56.5s-82.5 -18.833 -109.5 -56.5s-40.5 -94.5 -40.5 -170.5c0 -75.333 13.5 -131.666 40.5 -168.999s63.5 -56 109.5 -56z" />
    <glyph glyph-name="P" unicode="P" horiz-adv-x="619" 
d="M56 0v699.999h257c96 0 167.667 -18.667 215 -56s71 -94.666 71 -171.999c0 -150.667 -97.667 -226 -293 -226h-58v-246h-192zM247 570.999v-205h58c37.333 0 64 9 80 27s24 44 24 78c0 34.667 -7.66699 60 -23 76s-42.333 24 -81 24h-58z" />
    <glyph glyph-name="Q" unicode="Q" horiz-adv-x="742" 
d="M678 -119l-326 87.999c-108 29.333 -189.333 73.833 -244 133.5s-82 142.834 -82 249.501c0 110 33 197 99 261s148 96 246 96c98.667 0 181 -32 247 -96s99 -151.667 99 -263c0 -72.667 -16.333 -133.667 -49 -183s-77.667 -85 -135 -107v-3l207 -31v-145h-62z
M371 118.999c46 0 82.5 18.667 109.5 56s40.5 94.666 40.5 171.999c0 76 -13.5 132.833 -40.5 170.5s-63.5 56.5 -109.5 56.5s-82.5 -18.833 -109.5 -56.5s-40.5 -94.5 -40.5 -170.5c0 -77.333 13.5 -134.666 40.5 -171.999s63.5 -56 109.5 -56z" />
    <glyph glyph-name="R" unicode="R" horiz-adv-x="658" 
d="M456 0l-135 256.999h-73v-257h-192v700h263c186.667 0 280 -71.333 280 -214c0 -85.333 -34.667 -147.666 -104 -186.999l139 -254v-45h-178zM246 569.999v-188h61c68 0 102 31.333 102 94s-34 94 -102 94h-61z" />
    <glyph glyph-name="S" unicode="S" horiz-adv-x="554" 
d="M251 -9c-90 0 -166.329 18.6689 -228.996 56.002v133h71c34.667 -37.333 85 -56 151 -56c72.667 0 109 23 109 69c0 8.66699 -0.833008 16.167 -2.5 22.5s-5.33398 12.166 -11.001 17.499s-10.334 9.5 -14.001 12.5s-10.834 6.5 -21.501 10.5s-18.5 6.66699 -23.5 8
l-30 8c-15 4 -25.5 6.66699 -31.5 8c-68 17.333 -117.667 41.833 -149 73.5s-47 79.167 -47 142.5c0 69.333 23.833 122.166 71.5 158.499s111.5 54.5 191.5 54.5c84.667 0 154 -15.667 208 -47v-129h-69c-38 28.667 -82 43 -132 43c-68 0 -102 -21.667 -102 -65
c0 -21.333 8.5 -37 25.5 -47s46.833 -20 89.5 -30c83.333 -19.333 141.5 -45 174.5 -77s49.5 -80.333 49.5 -145c0 -70.667 -23.833 -125.167 -71.5 -163.5s-116.834 -57.5 -207.501 -57.5z" />
    <glyph glyph-name="T" unicode="T" horiz-adv-x="603" 
d="M397 0h-192v567h-180v133h553v-133h-181v-567z" />
    <glyph glyph-name="U" unicode="U" horiz-adv-x="693" 
d="M366 131c39.333 0 68.167 10 86.5 30s27.5 55.333 27.5 106v433h159v-434c0 -182.667 -95 -274 -285 -274c-98.667 0 -173.5 23.5 -224.5 70.5s-76.5 114.833 -76.5 203.5v434h192v-433c0 -50.667 9.83301 -86 29.5 -106s50.167 -30 91.5 -30z" />
    <glyph glyph-name="V" unicode="V" horiz-adv-x="685" 
d="M239 0l-222 655v45h187l149 -480h2l151 480h161v-45l-222 -655h-206z" />
    <glyph glyph-name="W" unicode="W" horiz-adv-x="944" 
d="M175 0l-156 655v45h186l94 -461h2l107 461h152l110 -461h2l91 461h162v-45l-157 -655h-202l-95 411h-2l-95 -411h-199z" />
    <glyph glyph-name="X" unicode="X" horiz-adv-x="681" 
d="M25 0v47l186 315l-181 291v47h190l137 -229l123 229h157v-47l-171 -293l190 -313v-47h-189l-148 251l-136 -251h-158z" />
    <glyph glyph-name="Y" unicode="Y" horiz-adv-x="637" 
d="M420 0h-192v260l-214 393v47h180l140 -273h2l135 273h152v-47l-203 -388v-265z" />
    <glyph glyph-name="Z" unicode="Z" horiz-adv-x="572" 
d="M26 0v139l311 424v4h-289v133h495v-144l-311 -421v-4h311v-131h-517z" />
    <glyph glyph-name="bracketleft" unicode="[" horiz-adv-x="343" 
d="M61 -49v790h256v-115h-93v-560h93v-115h-256z" />
    <glyph glyph-name="backslash" unicode="\" horiz-adv-x="368" 
d="M5 706v35h129l232 -755v-35h-130z" />
    <glyph glyph-name="bracketright" unicode="]" horiz-adv-x="343" 
d="M282 741v-790h-255v115h92v560h-92v115h255z" />
    <glyph glyph-name="asciicircum" unicode="^" horiz-adv-x="442" 
d="M15 451v38l140 211h131l141 -211v-38h-128l-77 110h-3l-76 -110h-128z" />
    <glyph glyph-name="underscore" unicode="_" horiz-adv-x="380" 
d="M383 -162h-386v110h386v-110z" />
    <glyph glyph-name="grave" unicode="`" 
d="M257 561h-105l-102 99v43h173l34 -109v-33z" />
    <glyph glyph-name="a" unicode="a" horiz-adv-x="553" 
d="M410 0c-38.667 0 -62.6641 16.667 -71.9971 50c-34 -38 -84.333 -57 -151 -57c-48.667 0 -88.667 13.667 -120 41s-47 66 -47 116c0 54 18.667 94.833 56 122.5s87.666 41.5 150.999 41.5c34 0 67.667 -3.33301 101 -10v36c0 23.333 -6.83301 40.333 -20.5 51
s-36.5 16 -68.5 16c-48.667 0 -90.334 -11.667 -125.001 -35h-54v121c65.333 28 136.666 42 213.999 42c80 0 139 -14.333 177 -43s57 -75 57 -139v-353h-98zM258.003 98c24 0 47.333 9.66699 70 29v93c-20 3.33301 -39.667 5 -59 5c-52 0 -78 -21 -78 -63
c0 -42.667 22.333 -64 67 -64z" />
    <glyph glyph-name="b" unicode="b" horiz-adv-x="607" 
d="M228 606v-132c44 40.667 96.333 61 157 61c56.667 0 104 -20.667 142 -62s57 -107.666 57 -198.999c0 -94.667 -20.833 -165.334 -62.5 -212.001s-95.167 -70 -160.5 -70c-66.667 0 -119 20 -157 60c-18.667 -34.667 -39.667 -52 -63 -52h-93v700h114
c28 0 46 -5.66699 54 -17s12 -37 12 -77zM303 401c-22.667 0 -47.668 -5.66699 -75.001 -17v-252c20.667 -14.667 45 -22 73 -22c30.667 0 55.167 10.667 73.5 32s27.5 60 27.5 116c0 54.667 -8.66699 92.167 -26 112.5s-41.666 30.5 -72.999 30.5z" />
    <glyph glyph-name="c" unicode="c" horiz-adv-x="508" 
d="M301 -8c-88.667 0 -157.667 23.332 -207 69.999s-74 113.334 -74 200.001c0 84 26.833 150.5 80.5 199.5s124.167 73.5 211.5 73.5c66 0 121.667 -12.333 167 -37v-123h-65c-24.667 22 -56 33 -94 33c-36 0 -64.5 -12.5 -85.5 -37.5s-31.5 -61.833 -31.5 -110.5
c0 -96 37.667 -144 113 -144c41.333 0 76.333 12.333 105 37h60v-113c-49.333 -32 -109.333 -48 -180 -48z" />
    <glyph glyph-name="d" unicode="d" horiz-adv-x="607" 
d="M432 0c-12.667 0 -22.6689 4 -30.002 12s-13 22.333 -17 43c-39.333 -42.667 -90 -64 -152 -64c-62.667 0 -113.334 22.5 -152.001 67.5s-58 110.833 -58 197.5c0 50 6.33301 93.667 19 131s29.834 66.333 51.501 87s44.834 36 69.501 46s51 15 79 15
c56.667 0 102.334 -16.667 137.001 -50v215h114c28 0 46 -5.83301 54 -17.5s12 -37.167 12 -76.5v-606h-127zM295.998 110c29.333 0 57 10.666 83 31.999v241c-19.333 12 -43 18 -71 18c-68.667 0 -103 -47 -103 -141c0 -53.333 7.5 -91.666 22.5 -114.999
s37.833 -35 68.5 -35z" />
    <glyph glyph-name="e" unicode="e" horiz-adv-x="557" 
d="M535 224h-333.001c4 -42.667 16 -72 36 -88s49.333 -24 88 -24c52.667 0 97.334 13 134.001 39h56v-107c-61.333 -34.667 -134 -52 -218 -52c-90 0 -158.833 23.667 -206.5 71s-71.5 113 -71.5 197s24.833 150.833 74.5 200.5s114.5 74.5 194.5 74.5
c165.333 0 248 -88.333 248 -265c0 -8 -0.333008 -17.5 -1 -28.5s-1 -16.833 -1 -17.5zM288.999 425c-49.333 0 -78 -35.667 -86 -107h164c-1.33301 39.333 -8.33301 67 -21 83s-31.667 24 -57 24z" />
    <glyph glyph-name="f" unicode="f" horiz-adv-x="358" 
d="M12 411v115.999h57v32c0 102 60 153 180 153c36.667 0 68.667 -5 96 -15v-100h-35c-21.333 0 -36.833 -3.16699 -46.5 -9.5s-14.5 -18.166 -14.5 -35.499v-25h90v-116h-90v-411h-180v411h-57z" />
    <glyph glyph-name="g" unicode="g" horiz-adv-x="607" 
d="M559 527l0.000976562 -486.998c0 -68.667 -25.5 -120.834 -76.5 -156.501s-122.5 -53.5 -214.5 -53.5c-90 0 -162.667 13.333 -218 40v122h56c37.333 -24.667 83.666 -37 138.999 -37c46 0 79.833 7.16699 101.5 21.5s32.5 37.166 32.5 68.499v26
c-36.667 -30 -83.667 -45 -141 -45c-64 0 -115.833 19.667 -155.5 59s-59.5 101 -59.5 185c0 91.333 21.833 158.333 65.5 201s97.167 64 160.5 64c58.667 0 107 -19.667 145 -59c12 34 34.667 51 68 51h97zM300.001 140.002c26.667 0 53 9 79 27v214
c-20.667 13.333 -45 20 -73 20c-30.667 0 -55.167 -9 -73.5 -27s-27.5 -51 -27.5 -99c0 -52 7.5 -87.5 22.5 -106.5s39.167 -28.5 72.5 -28.5z" />
    <glyph glyph-name="h" unicode="h" horiz-adv-x="602" 
d="M228 606v-140c56 46 118 69 186 69c95.333 0 143 -49.667 143 -149v-386h-180v339c0 22 -4.66699 37.167 -14 45.5s-25.333 12.5 -48 12.5s-51.667 -5.66699 -87 -17v-380h-180v700h114c28 0 46 -5.66699 54 -17s12 -37 12 -77z" />
    <glyph glyph-name="i" unicode="i" horiz-adv-x="278" 
d="M228 0h-179.001v527h116c26.667 0 43.834 -6.33301 51.501 -19s11.5 -40 11.5 -82v-426zM138.999 559c-26.667 0 -48.8359 7.83301 -66.5029 23.5s-26.5 35.834 -26.5 60.501s8.83301 45 26.5 61s39.834 24 66.501 24s48.834 -8 66.501 -24s26.5 -36.333 26.5 -61
s-8.66699 -44.834 -26 -60.501s-39.666 -23.5 -66.999 -23.5z" />
    <glyph glyph-name="j" unicode="j" horiz-adv-x="278" 
d="M-39 -156l-0.000976562 98.001h28c22 0 37.5 4.5 46.5 13.5s13.5 24.5 13.5 46.5v525h116c26.667 0 43.834 -6.5 51.501 -19.5s11.5 -40.167 11.5 -81.5v-433c0 -56.667 -14.5 -97.834 -43.5 -123.501s-72.833 -38.5 -131.5 -38.5c-34 0 -64.667 4.33301 -92 13z
M138.999 559.001c-26.667 0 -48.8359 7.83301 -66.5029 23.5s-26.5 35.834 -26.5 60.501s8.83301 45 26.5 61s39.834 24 66.501 24s48.834 -8 66.501 -24s26.5 -36.333 26.5 -61s-8.66699 -44.834 -26 -60.501s-39.666 -23.5 -66.999 -23.5z" />
    <glyph glyph-name="k" unicode="k" horiz-adv-x="578" 
d="M228 606v-275l164 196h150v-43l-145 -165l165 -276v-43h-169l-122 205l-43 -47v-158h-180v700h114c28 0 46 -5.66699 54 -17s12 -37 12 -77z" />
    <glyph glyph-name="l" unicode="l" horiz-adv-x="280" 
d="M230 0h-180v700h114c28 0 46 -5.66699 54 -17s12 -37 12 -77v-606z" />
    <glyph glyph-name="m" unicode="m" horiz-adv-x="909" 
d="M173 527c15.333 0 26.998 -4.5 34.998 -13.5s13.333 -26.167 16 -51.5c54.667 48.667 115.334 73 182.001 73c67.333 0 110.333 -25 129 -75c55.333 50 118.333 75 189 75c93.333 0 140 -49.667 140 -149v-386h-180v339c0 21.333 -4.5 36.333 -13.5 45
s-24.167 13 -45.5 13c-23.333 0 -49.666 -5.33301 -78.999 -16v-381h-180v339c0 21.333 -4.5 36.333 -13.5 45s-24.167 13 -45.5 13c-20 0 -46.333 -5 -79 -15v-382h-180v527h125z" />
    <glyph glyph-name="n" unicode="n" horiz-adv-x="602" 
d="M173 527c15.333 0 26.833 -4.33301 34.5 -13s13.167 -25.667 16.5 -51c58 48 121.333 72 190 72c95.333 0 143 -49.667 143 -149v-386h-180v339c0 22 -4.66699 37.167 -14 45.5s-25.333 12.5 -48 12.5s-51.667 -5.66699 -87 -17v-380h-180v527h125z" />
    <glyph glyph-name="o" unicode="o" horiz-adv-x="601" 
d="M301 -8c-81.333 0 -148.5 24.333 -201.5 73s-79.5 114 -79.5 196c0 82.667 26.5 149 79.5 199s120.167 75 201.5 75c80.667 0 147.5 -25 200.5 -75s79.5 -116.333 79.5 -199c0 -82 -26.333 -147.333 -79 -196s-119.667 -73 -201 -73zM301 110c30 0 53.833 12.333 71.5 37
s26.5 62 26.5 112c0 50.667 -8.83301 88.834 -26.5 114.501s-41.5 38.5 -71.5 38.5c-30.667 0 -54.834 -12.833 -72.501 -38.5s-26.5 -63.834 -26.5 -114.501c0 -50 8.83301 -87.333 26.5 -112s41.834 -37 72.501 -37z" />
    <glyph glyph-name="p" unicode="p" horiz-adv-x="607" 
d="M357 5c-54 0 -97.002 12.332 -129.002 36.999v-204h-180v689h125c14.667 0 25.834 -4 33.501 -12s13.167 -23 16.5 -45c46 43.333 100 65 162 65c26.667 0 51.334 -4.5 74.001 -13.5s43.667 -23.167 63 -42.5s34.5 -46.166 45.5 -80.499s16.5 -74.5 16.5 -120.5
c0 -48.667 -6.16699 -91 -18.5 -127s-29.5 -64.333 -51.5 -85s-46 -36 -72 -46s-54.333 -15 -85 -15zM303.998 400.999c-23.333 0 -48.667 -5.66602 -76 -16.999v-242c20 -14 44.333 -21 73 -21c31.333 0 56 10.167 74 30.5s27 57.166 27 110.499
c0 52 -8.66699 88.167 -26 108.5s-41.333 30.5 -72 30.5z" />
    <glyph glyph-name="q" unicode="q" horiz-adv-x="607" 
d="M379 -162v213c-36 -30.667 -83 -46 -141 -46c-62.667 0 -114.167 21.333 -154.5 64s-60.5 106.667 -60.5 192c0 49.333 6.33301 92.333 19 129s30 65.167 52 85.5s46 35.333 72 45s53.667 14.5 83 14.5c58.667 0 107 -20.667 145 -62c14 36 36.667 54 68 54h97v-689h-180
zM300 122c26.667 0 53 9 79 27v232c-20.667 13.333 -45 20 -73 20c-67.333 0 -101 -44.667 -101 -134c0 -54.667 7.33301 -92.5 22 -113.5s39 -31.5 73 -31.5z" />
    <glyph glyph-name="r" unicode="r" horiz-adv-x="415" 
d="M377 383c-59.333 0 -109 -8.33301 -149 -25v-358h-180v527h125c15.333 0 27 -5 35 -15s13.333 -29 16 -57c40 50.667 88.333 76 145 76c8 0 18.667 -1.33301 32 -4v-144h-24z" />
    <glyph glyph-name="s" unicode="s" horiz-adv-x="469" 
d="M215 -7c-72 0 -135.333 14.001 -190 42.001v118h61c28.667 -26 69.334 -39 122.001 -39c52 0 78 12.667 78 38c0 14 -6 24 -18 30s-36.333 11.667 -73 17c-59.333 7.33301 -103.333 23.166 -132 47.499s-43 62.833 -43 115.5c0 56 20 98.667 60 128s94 44 162 44
c68.667 0 128 -11.667 178 -35v-116h-57c-32 21.333 -70.667 32 -116 32c-46 0 -69 -12.667 -69 -38c0 -11.333 6.66699 -20 20 -26s36.666 -11 69.999 -15c64.667 -8 111.167 -23.833 139.5 -47.5s42.5 -62.5 42.5 -116.5c0 -57.333 -19.5 -101.5 -58.5 -132.5
s-97.833 -46.5 -176.5 -46.5z" />
    <glyph glyph-name="t" unicode="t" horiz-adv-x="368" 
d="M12 411l-0.000976562 115.999h57v134h180v-134h98v-116h-98v-240c0 -23.333 4.83301 -39.5 14.5 -48.5s26.5 -13.5 50.5 -13.5h35v-104c-32 -9.33301 -66.333 -14 -103 -14c-57.333 0 -101.166 11.833 -131.499 35.5s-45.5 62.834 -45.5 117.501v267h-57z" />
    <glyph glyph-name="u" unicode="u" horiz-adv-x="610" 
d="M297 124c20.667 0 47.998 5.66602 81.998 16.999v386h179v-527h-125c-15.333 0 -26.666 3.83301 -33.999 11.5s-12.666 23.5 -15.999 47.5c-58 -44.667 -118 -67 -180 -67c-102.667 0 -154 50.333 -154 151v384h180v-343c0 -23.333 5.5 -39.166 16.5 -47.499
s28.167 -12.5 51.5 -12.5z" />
    <glyph glyph-name="v" unicode="v" horiz-adv-x="574" 
d="M201 0l-186 486v41h172l113 -329h2l104 329h153v-41l-180 -486h-178z" />
    <glyph glyph-name="w" unicode="w" horiz-adv-x="818" 
d="M160 0l-143 485v42h173l76 -304h2l89 304h132l84 -304h2l81 304h145v-42l-147 -485h-160l-85 290h-2l-89 -290h-158z" />
    <glyph glyph-name="x" unicode="x" horiz-adv-x="571" 
d="M19 0v42l147 227l-137 216v42h176l95 -162l88 162h147v-42l-126 -206l143 -237v-42h-175l-102 178l-102 -178h-154z" />
    <glyph glyph-name="y" unicode="y" horiz-adv-x="569" 
d="M136 -162v41l69 146l-190 461v41h171l110 -299h3l102 299h154v-41l-256 -648h-163z" />
    <glyph glyph-name="z" unicode="z" horiz-adv-x="508" 
d="M25 0v121l247 282h-234v124h441v-124l-248 -281h243v-122h-449z" />
    <glyph glyph-name="braceleft" unicode="{" horiz-adv-x="376" 
d="M97 88v150.002c0 15.333 -4.66699 28.333 -14 39s-23.333 16 -42 16h-22v116h22c18.667 0 32.667 5.33301 42 16s14 23.667 14 39v141c0 43.333 13 76.833 39 100.5s64.667 35.5 116 35.5h97v-115h-61c-7.33301 0 -13.833 -3.16699 -19.5 -9.5s-8.5 -13.166 -8.5 -20.499
v-134c0 -28.667 -7 -51.834 -21 -69.501s-38 -30.834 -72 -39.501v-3c34 -8.66699 58 -21.834 72 -39.501s21 -40.834 21 -69.501v-145c0 -7.33301 2.83301 -14.166 8.5 -20.499s12.167 -9.5 19.5 -9.5h61v-115h-99c-50 0 -88 11.833 -114 35.5s-39 57.5 -39 101.5z" />
    <glyph glyph-name="bar" unicode="|" horiz-adv-x="198" 
d="M166 741v-790h-134v790h134z" />
    <glyph glyph-name="braceright" unicode="}" horiz-adv-x="376" 
d="M278 238v-150.002c0 -44 -13 -77.833 -39 -101.5s-64 -35.5 -114 -35.5h-98v115h60c8 0 14.833 3.16699 20.5 9.5s8.5 13.166 8.5 20.499v145c0 28.667 7 51.834 21 69.501s37.667 30.834 71 39.501v3c-33.333 8.66699 -57 21.834 -71 39.501s-21 40.834 -21 69.501v134
c0 7.33301 -2.83301 14.166 -8.5 20.499s-12.5 9.5 -20.5 9.5h-60v115h97c51.333 0 89.833 -11.833 115.5 -35.5s38.5 -57.167 38.5 -100.5v-141c0 -15.333 4.66699 -28.333 14 -39s23.333 -16 42 -16h23v-116h-23c-18.667 0 -32.667 -5.33301 -42 -16s-14 -23.667 -14 -39z
" />
    <glyph glyph-name="asciitilde" unicode="~" horiz-adv-x="406" 
d="M16 206l0.000976562 53.002c6.66699 35.333 20.667 63.666 42 84.999s48 32 80 32c19.333 0 42.5 -4.16699 69.5 -12.5s43.5 -12.5 49.5 -12.5c17.333 0 29 9.33301 35 28h97v-53c-6 -34.667 -19.667 -62.834 -41 -84.501s-48 -32.5 -80 -32.5
c-17.333 0 -39.833 4.16699 -67.5 12.5s-44.834 12.5 -51.501 12.5c-17.333 0 -29 -9.33301 -35 -28h-98z" />
    <glyph glyph-name="exclamdown" unicode="&#xa1;" horiz-adv-x="301" 
d="M209 413l37 -376v-105h-191v105l36 376h118zM150 638c26.667 0 49 -8.66895 67 -26.002s27 -38.666 27 -63.999s-9 -47 -27 -65s-40.333 -27 -67 -27c-25.333 0 -47.333 9 -66 27s-28 39.667 -28 65c0 24.667 9.33301 45.834 28 63.501s40.667 26.5 66 26.5z" />
    <glyph glyph-name="cent" unicode="&#xa2;" horiz-adv-x="520" 
d="M488 40c-35.333 -23.333 -77.999 -38.001 -127.999 -44.001v-99h-91v97c-78.667 6 -139.834 32.167 -183.501 78.5s-65.5 109.5 -65.5 189.5c0 76.667 22.833 138.834 68.5 186.501s106.5 75.5 182.5 83.5v63h91v-63c48.667 -4.66699 90 -16 124 -34v-123h-65
c-16 14 -35.667 23.667 -59 29v-286c23.333 5.33301 45.333 17 66 35h60v-113zM202.001 259.999c0 -74.667 23 -120.667 69 -138v277c-46 -18.667 -69 -65 -69 -139z" />
    <glyph glyph-name="sterling" unicode="&#xa3;" horiz-adv-x="540" 
d="M19 0l0.000976562 120.004c51.333 19.333 77 59 77 119c0 11.333 -1.33301 27.666 -4 48.999h-68v118h41c-8 33.333 -12 63.666 -12 90.999c0 67.333 24 119.5 72 156.5s111.333 55.5 190 55.5c76.667 0 142 -16.667 196 -50v-133h-69
c-32.667 26.667 -69.334 40 -110.001 40c-26.667 0 -48.667 -6.5 -66 -19.5s-26 -33.167 -26 -60.5c0 -26.667 2 -53.334 6 -80.001h162v-118h-147c1.33301 -18.667 2 -32.334 2 -41.001c0 -40.667 -12.667 -75 -38 -103h295v-144h-501z" />
    <glyph glyph-name="yen" unicode="&#xa5;" horiz-adv-x="606" 
d="M49 292v95h115l-145 266v47h176l122 -250h3l116 250h151v-47l-139 -266h120v-95h-165v-47h165v-94h-165v-151h-189v151h-165v94h165v47h-165z" />
    <glyph glyph-name="brokenbar" unicode="&#xa6;" horiz-adv-x="198" 
d="M32 -49v357h135l-1 -357h-134zM32 390v351h134l1 -351h-135z" />
    <glyph glyph-name="section" unicode="&#xa7;" horiz-adv-x="550" 
d="M19 274c0 64 30.999 108.997 92.999 134.997c-32.667 26 -49 67 -49 123c0 54 20 97 60 129s94 48 162 48c71.333 0 132.333 -12 183 -36v-116h-57c-30.667 22.667 -70.667 34 -120 34c-51.333 0 -77 -14.333 -77 -43c0 -12.667 7.16699 -23.667 21.5 -33
s40.166 -18.666 77.499 -27.999c76.667 -19.333 131.667 -41.833 165 -67.5s50 -65.5 50 -119.5c0 -63.333 -30.667 -108.333 -92 -135c34.667 -27.333 52 -66 52 -116c0 -56 -20 -100.5 -60 -133.5s-99.333 -49.5 -178 -49.5c-73.333 0 -138.666 13.667 -195.999 41v118h58
c10.667 -10 29.334 -19.167 56.001 -27.5s52.667 -12.5 78 -12.5c52.667 0 79 14.667 79 44c0 14.667 -7.16699 25.834 -21.5 33.501s-43.5 17.5 -87.5 29.5c-70.667 19.333 -121.167 42.333 -151.5 69s-45.5 64.334 -45.5 113.001zM256.999 238.997
c30.667 -8.66699 57.333 -16.665 80 -23.998c26.667 11.333 40 29 40 53c0 18 -7.33301 32.167 -22 42.5s-40 20.166 -76 29.499c-34.667 9.33301 -58 16 -70 20c-29.333 -8.66699 -44 -25.334 -44 -50.001c0 -16.667 6.5 -30.167 19.5 -40.5s37.167 -20.5 72.5 -30.5z" />
    <glyph glyph-name="dieresis" unicode="&#xa8;" 
d="M97 560c-24.667 0 -45 7.5 -61 22.5s-24 33.833 -24 56.5c0 23.333 8 42.5 24 57.5s36.333 22.5 61 22.5s44.834 -7.5 60.501 -22.5s23.5 -34.167 23.5 -57.5s-7.83301 -42.333 -23.5 -57s-35.834 -22 -60.501 -22zM301 560c-24.667 0 -44.834 7.33301 -60.501 22
s-23.5 33.667 -23.5 57s7.83301 42.5 23.5 57.5s35.834 22.5 60.501 22.5s45 -7.5 61 -22.5s24 -34.167 24 -57.5c0 -22.667 -8 -41.5 -24 -56.5s-36.333 -22.5 -61 -22.5z" />
    <glyph glyph-name="copyright" unicode="&#xa9;" horiz-adv-x="781" 
d="M391 -8c-100.667 0 -186.334 32 -257.001 96s-106 151.333 -106 262s35.333 198 106 262s156.334 96 257.001 96s186.167 -32 256.5 -96s105.5 -151.333 105.5 -262s-35.167 -198 -105.5 -262s-155.833 -96 -256.5 -96zM391 48c83.333 0 153.166 27.167 209.499 81.5
s84.5 127.833 84.5 220.5s-28.167 166.167 -84.5 220.5s-126.166 81.5 -209.499 81.5c-84 0 -154.167 -27.167 -210.5 -81.5s-84.5 -127.833 -84.5 -220.5s28.167 -166.167 84.5 -220.5s126.5 -81.5 210.5 -81.5zM402 151c-64.667 0 -115.168 17.334 -151.501 52.001
s-54.5 83.667 -54.5 147c0 62 19.667 111.167 59 147.5s91 54.5 155 54.5c46 0 87.667 -9 125 -27v-95h-52c-18.667 16 -41 24 -67 24c-25.333 0 -45.166 -8.83301 -59.499 -26.5s-21.5 -43.834 -21.5 -78.501c0 -68 26.333 -102 79 -102c29.333 0 54 8.66699 74 26h48v-86
c-37.333 -24 -82 -36 -134 -36z" />
    <glyph glyph-name="ordfeminine" unicode="&#xaa;" horiz-adv-x="466" 
d="M344 258c-31.333 0 -51.332 14.334 -59.999 43.001c-28.667 -32.667 -70.334 -49 -125.001 -49c-40.667 0 -74.167 11.5 -100.5 34.5s-39.5 55.5 -39.5 97.5c0 45.333 15.5 79.666 46.5 102.999s73.167 35 126.5 35c34.667 0 62.667 -2.66699 84 -8v27
c0 18 -5.66699 31.333 -17 40s-30 13 -56 13c-38 0 -72 -9.33301 -102 -28h-49v105c58.667 24.667 119.667 37 183 37c69.333 0 120 -12.167 152 -36.5s48 -64.5 48 -120.5v-293h-91zM222.001 345.001c17.333 0 35.333 7.33301 54 22v74c-18.667 2.66699 -34 4 -46 4
c-40.667 0 -61 -17 -61 -51c0 -32.667 17.667 -49 53 -49z" />
    <glyph glyph-name="guillemotleft" unicode="&#xab;" horiz-adv-x="532" 
d="M144 40l-113 188v63l113 189h134v-36l-105 -182v-2l105 -184v-36h-134zM367 40l-113 188v63l113 189h134v-36l-105 -182v-2l105 -184v-36h-134z" />
    <glyph glyph-name="registered" unicode="&#xae;" horiz-adv-x="384" 
d="M192 350c-50.667 0 -94.167 16.167 -130.5 48.5s-54.5 75.833 -54.5 130.5s18 98.167 54 130.5s79.667 48.5 131 48.5c50.667 0 94.167 -16.167 130.5 -48.5s54.5 -75.833 54.5 -130.5c0 -54 -18.167 -97.333 -54.5 -130s-79.833 -49 -130.5 -49zM192 389
c40.667 0 74 12.167 100 36.5s39 58.833 39 103.5s-13 79.167 -39 103.5s-59.333 36.5 -100 36.5s-74 -12.167 -100 -36.5s-39 -58.833 -39 -103.5s13 -79.167 39 -103.5s59.333 -36.5 100 -36.5zM221 441l-29 60.001h-14v-60h-62v183h82c51.333 0 77 -20.667 77 -62
c0 -20.667 -8.66699 -36.334 -26 -47.001l30 -55v-19h-58zM192 540.001c14.667 0 22 7.66699 22 23c0 14 -7.33301 21 -22 21h-15v-44h15z" />
    <glyph glyph-name="macron" unicode="&#xaf;" 
d="M334 687v-108h-270v108h270z" />
    <glyph glyph-name="degree" unicode="&#xb0;" horiz-adv-x="350" 
d="M175 417c-42 0 -77.667 13.5 -107 40.5s-44 61.833 -44 104.5s14.667 77.334 44 104.001s65 40 107 40s77.833 -13.333 107.5 -40s44.5 -61.334 44.5 -104.001s-14.833 -77.5 -44.5 -104.5s-65.5 -40.5 -107.5 -40.5zM175 493c19.333 0 34.833 6.33301 46.5 19
s17.5 29.334 17.5 50.001s-5.83301 37.167 -17.5 49.5s-27.167 18.5 -46.5 18.5c-18.667 0 -33.667 -6.16699 -45 -18.5s-17 -28.833 -17 -49.5s5.66699 -37.334 17 -50.001s26.333 -19 45 -19z" />
    <glyph glyph-name="two.superior" unicode="&#xb2;" horiz-adv-x="348" 
d="M317 406v-98h-295v98l109 96c34.667 30.667 52 54.667 52 72c0 21.333 -13.333 32 -40 32c-25.333 0 -46 -7.33301 -62 -22h-52v88c38 23.333 83.667 35 137 35c104 0 156 -39.333 156 -118c0 -26.667 -7 -49.5 -21 -68.5s-37.333 -41.833 -70 -68.5l-56 -46h142z" />
    <glyph glyph-name="three.superior" unicode="&#xb3;" horiz-adv-x="343" 
d="M147 301c-48 0 -90.668 10 -128.001 30v82h48c18.667 -14 40.334 -21 65.001 -21c36.667 0 55 12.333 55 37c0 24 -17 36 -51 36h-40v79h36c36 0 54 11.667 54 35c0 22 -15 33 -45 33c-22.667 0 -43.667 -6 -63 -18h-48v80c35.333 22 80 33 134 33
c45.333 0 81.5 -9 108.5 -27s40.5 -44.667 40.5 -80c0 -46.667 -26.667 -76.334 -80 -89.001v-3c58 -8 87 -38 87 -90c0 -37.333 -15.167 -66.166 -45.5 -86.499s-72.833 -30.5 -127.5 -30.5z" />
    <glyph glyph-name="acute" unicode="&#xb4;" 
d="M247 561h-105v33l33 109h173v-43z" />
    <glyph glyph-name="paragraph" unicode="&#xb6;" horiz-adv-x="590" 
d="M242 -91v391h-3c-67.333 0 -120.5 16.333 -159.5 49s-58.5 82.667 -58.5 150c0 134 84.667 201 254 201h259v-791h-114v677h-64v-677h-114z" />
    <glyph glyph-name="periodcentered" unicode="&#xb7;" horiz-adv-x="235" 
d="M117 204c-26 0 -48.167 8.66699 -66.5 26s-27.5 38.666 -27.5 63.999s9.16699 46.833 27.5 64.5s40.5 26.5 66.5 26.5s48.167 -8.83301 66.5 -26.5s27.5 -39.167 27.5 -64.5s-9.16699 -46.666 -27.5 -63.999s-40.5 -26 -66.5 -26z" />
    <glyph glyph-name="cedilla" unicode="&#xb8;" 
d="M153 0h75.999v-24c54 -2.66699 81 -27 81 -73c0 -24 -9.5 -43 -28.5 -57s-46.833 -21 -83.5 -21c-31.333 0 -58.666 5.33301 -81.999 16v62h31c8.66699 -7.33301 19.667 -11 33 -11c17.333 0 26 5.33301 26 16s-10.333 16 -31 16h-22v76z" />
    <glyph glyph-name="one.superior" unicode="&#xb9;" horiz-adv-x="275" 
d="M230 308h-139v266l-49 -25h-24v97l109 54h103v-392z" />
    <glyph glyph-name="ordmasculine" unicode="&#xba;" horiz-adv-x="522" 
d="M261 251c-70 0 -127.167 20.333 -171.5 61s-66.5 95.667 -66.5 165c0 70 22.333 126 67 168s101.667 63 171 63s126.333 -21 171 -63s67 -98 67 -168c0 -69.333 -22.167 -124.333 -66.5 -165s-101.5 -61 -171.5 -61zM261 355c51.333 0 77 40.333 77 121
c0 82.667 -25.667 124 -77 124s-77 -41.333 -77 -124c0 -80.667 25.667 -121 77 -121z" />
    <glyph glyph-name="guillemotright" unicode="&#xbb;" horiz-adv-x="532" 
d="M254 40v36l105 184v2l-105 182v36h134l113 -189v-63l-113 -188h-134zM31 40v36l105 184v2l-105 182v36h134l113 -189v-63l-113 -188h-134z" />
    <glyph glyph-name="onequarter" unicode="&#xbc;" horiz-adv-x="773" 
d="M721 0h-132v79h-171v94l176 219h127v-231h39v-82h-39v-79zM510 162v-2h83v104h-2zM237 308h-139v266l-49 -25h-23v97l109 54h102v-392zM680 729l-493 -763h-116l493 763h116z" />
    <glyph glyph-name="onehalf" unicode="&#xbd;" horiz-adv-x="814" 
d="M789 98v-98h-295v98l109 96c34.667 30.667 52 54.667 52 72c0 21.333 -13.333 32 -40 32c-25.333 0 -46 -7.33301 -62 -22h-52v88c38 23.333 83.667 35 137 35c104 0 156 -39.333 156 -118c0 -26.667 -7 -49.5 -21 -68.5s-37.333 -41.833 -70 -68.5l-56 -46h142zM237 308
h-139v266l-49 -25h-23v97l109 54h102v-392zM679 729l-493 -763h-116l493 763h116z" />
    <glyph glyph-name="threequarters" unicode="&#xbe;" horiz-adv-x="811" 
d="M157 301c-48 0 -90.668 10 -128.001 30v82h48c18.667 -14 40.334 -21 65.001 -21c36.667 0 55 12.333 55 37c0 24 -17 36 -51 36h-40v79h36c36 0 54 11.667 54 35c0 22 -15 33 -45 33c-22.667 0 -43.667 -6 -63 -18h-48v80c35.333 22 80 33 134 33
c45.333 0 81.5 -9 108.5 -27s40.5 -44.667 40.5 -80c0 -46.667 -26.667 -76.334 -80 -89.001v-3c58 -8 87 -38 87 -90c0 -37.333 -15.167 -66.166 -45.5 -86.499s-72.833 -30.5 -127.5 -30.5zM758.999 0h-132v79h-171v94l176 219h127v-231h39v-82h-39v-79zM547.999 162v-2
h83v104h-2zM727.999 729l-493 -763h-116l493 763h116z" />
    <glyph glyph-name="questiondown" unicode="&#xbf;" horiz-adv-x="464" 
d="M349 413c6.66699 -38.667 5.66504 -70.9961 -3.00195 -96.9961s-28 -53.333 -58 -82c-18.667 -18 -32.167 -31.333 -40.5 -40s-16.666 -20.334 -24.999 -35.001s-12.5 -29 -12.5 -43c0 -18.667 6 -32.834 18 -42.501s28.333 -14.5 49 -14.5c40.667 0 75 13.333 103 40h68
v-124c-57.333 -35.333 -121.666 -53 -192.999 -53c-74.667 0 -131.834 16.167 -171.501 48.5s-59.5 78.5 -59.5 138.5c0 38 9.16699 70.167 27.5 96.5s45.833 53.166 82.5 80.499c24 18.667 40.667 32 50 40s17.833 19.667 25.5 35s10.834 32.666 9.50098 51.999h130z
M279.998 638.004c26.667 0 49 -8.66895 67 -26.002s27 -38.666 27 -63.999s-9 -47 -27 -65s-40.333 -27 -67 -27c-26 0 -48.167 9 -66.5 27s-27.5 39.667 -27.5 65c0 24.667 9.16699 45.834 27.5 63.501s40.5 26.5 66.5 26.5z" />
    <glyph glyph-name="Agrave" unicode="&#xc0;" horiz-adv-x="694" 
d="M19 0v45l223 655h208l226 -655v-45h-186l-49 158h-223l-47 -158h-152zM404 723h-105l-102 93v42h173l34 -102v-33zM328 524l-71 -236h145l-72 236h-2z" />
    <glyph glyph-name="Aacute" unicode="&#xc1;" horiz-adv-x="694" 
d="M19 0v45l223 655h208l226 -655v-45h-186l-49 158h-223l-47 -158h-152zM284 723v33l33 102h173v-42l-101 -93h-105zM328 524l-71 -236h145l-72 236h-2z" />
    <glyph glyph-name="Acircumflex" unicode="&#xc2;" horiz-adv-x="694" 
d="M27 0v45l223 655h208l226 -655v-45h-186l-49 158h-223l-47 -158h-152zM201 723v38l91 100h121l89 -100v-38h-97l-56 38l-55 -38h-93zM336 524l-71 -236h145l-72 236h-2z" />
    <glyph glyph-name="Atilde" unicode="&#xc3;" horiz-adv-x="694" 
d="M19 0v45l223 655h208l226 -655v-45h-186l-49 158h-223l-47 -158h-152zM172 723l0.000976562 40c5.33301 33.333 17.166 58.833 35.499 76.5s41.833 26.5 70.5 26.5c18 0 39.333 -4 64 -12s40 -12 46 -12c15.333 0 25.666 8 30.999 24h90v-40
c-5.33301 -32.667 -17.166 -58 -35.499 -76s-41.5 -27 -69.5 -27c-18.667 0 -40.167 4.33301 -64.5 13s-39.5 13 -45.5 13c-17.333 0 -28 -8.66699 -32 -26h-90zM328.001 524l-71 -236h145l-72 236h-2z" />
    <glyph glyph-name="Adieresis" unicode="&#xc4;" horiz-adv-x="694" 
d="M19 0v45l223 655h208l226 -655v-45h-186l-49 158h-223l-47 -158h-152zM242 723c-24.667 0 -45 7.5 -61 22.5s-24 33.833 -24 56.5s8 41.5 24 56.5s36.333 22.5 61 22.5s44.834 -7.33301 60.501 -22s23.5 -33.667 23.5 -57s-7.83301 -42.333 -23.5 -57
s-35.834 -22 -60.501 -22zM446 723c-24.667 0 -44.834 7.33301 -60.501 22s-23.5 33.667 -23.5 57s7.83301 42.333 23.5 57s35.834 22 60.501 22s45 -7.5 61 -22.5s24 -33.833 24 -56.5s-8 -41.5 -24 -56.5s-36.333 -22.5 -61 -22.5zM328 524l-71 -236h145l-72 236h-2z" />
    <glyph glyph-name="Aring" unicode="&#xc5;" horiz-adv-x="694" 
d="M19 0v45l223 655h208l226 -655v-45h-186l-49 158h-223l-47 -158h-152zM343 723c-30 0 -55.333 9.33301 -76 28s-31 43.334 -31 74.001c0 30 10.333 54.5 31 73.5s46 28.5 76 28.5s55.333 -9.5 76 -28.5s31 -43.5 31 -73.5c0 -30.667 -10.333 -55.334 -31 -74.001
s-46 -28 -76 -28zM328 524l-71 -236h145l-72 236h-2zM343 789c10 0 18.167 3.33301 24.5 10s9.5 15.334 9.5 26.001s-3.16699 19.334 -9.5 26.001s-14.5 10 -24.5 10s-18 -3.33301 -24 -10s-9 -15.334 -9 -26.001s3 -19.334 9 -26.001s14 -10 24 -10z" />
    <glyph glyph-name="AE" unicode="&#xc6;" horiz-adv-x="963" 
d="M438 0v165h-204l-76 -165h-149v45l318 655h593v-134h-291v-149h204v-126h-204v-161h301v-130h-492zM418 566l-125 -272h145v272h-20z" />
    <glyph glyph-name="Ccedilla" unicode="&#xc7;" horiz-adv-x="631" 
d="M603 59c-58.667 -42.667 -131.333 -65.3301 -218 -67.9971v-15c54 -2.66699 81 -27 81 -73c0 -24 -9.5 -43 -28.5 -57s-46.833 -21 -83.5 -21c-31.333 0 -58.666 5.33301 -81.999 16v62h31c8.66699 -7.33301 19.667 -11 33 -11c17.333 0 26 5.33301 26 16
s-10.333 16 -31 16h-22v71c-88 11.333 -157 47.5 -207 108.5s-75 141.833 -75 242.5c0 113.333 32.667 202.166 98 266.499s152.666 96.5 261.999 96.5c82 0 152 -16.667 210 -50v-133h-74c-33.333 30.667 -77 46 -131 46s-95.667 -18.333 -125 -55
s-44 -91.334 -44 -164.001c0 -78.667 13.333 -136.334 40 -173.001s66.667 -55 120 -55c59.333 0 110 20.333 152 61h68v-127z" />
    <glyph glyph-name="Egrave" unicode="&#xc8;" horiz-adv-x="581" 
d="M369 723h-105l-102 93v42h173l34 -102v-33zM56 0v700h482v-134h-291v-149h205v-126h-205v-161h301v-130h-492z" />
    <glyph glyph-name="Eacute" unicode="&#xc9;" horiz-adv-x="581" 
d="M252 723v33l33 102h173v-42l-101 -93h-105zM56 0v700h482v-134h-291v-149h205v-126h-205v-161h301v-130h-492z" />
    <glyph glyph-name="Ecircumflex" unicode="&#xca;" horiz-adv-x="581" 
d="M56 0v700h482v-134h-291v-149h205v-126h-205v-161h301v-130h-492zM158 723v38l91 100h121l89 -100v-38h-97l-56 38l-55 -38h-93z" />
    <glyph glyph-name="Edieresis" unicode="&#xcb;" horiz-adv-x="581" 
d="M207 723c-24.667 0 -45 7.5 -61 22.5s-24 33.833 -24 56.5s8 41.5 24 56.5s36.333 22.5 61 22.5s44.834 -7.33301 60.501 -22s23.5 -33.667 23.5 -57s-7.83301 -42.333 -23.5 -57s-35.834 -22 -60.501 -22zM411 723c-24.667 0 -44.834 7.33301 -60.501 22
s-23.5 33.667 -23.5 57s7.83301 42.333 23.5 57s35.834 22 60.501 22s45 -7.5 61 -22.5s24 -33.833 24 -56.5s-8 -41.5 -24 -56.5s-36.333 -22.5 -61 -22.5zM56 0v700h482v-134h-291v-149h205v-126h-205v-161h301v-130h-492z" />
    <glyph glyph-name="Igrave" unicode="&#xcc;" horiz-adv-x="311" 
d="M252 0h-193v700h193v-700zM216 723h-105l-102 93v42h173l34 -102v-33z" />
    <glyph glyph-name="Iacute" unicode="&#xcd;" horiz-adv-x="311" 
d="M252 0h-193v700h193v-700zM99 723v33l33 102h173v-42l-101 -93h-105z" />
    <glyph glyph-name="Icircumflex" unicode="&#xce;" horiz-adv-x="311" 
d="M252 0h-193v700h193v-700zM5 723v38l91 100h121l89 -100v-38h-97l-56 38l-55 -38h-93z" />
    <glyph glyph-name="Idieresis" unicode="&#xcf;" horiz-adv-x="311" 
d="M252 0h-193v700h193v-700zM53 723c-24.667 0 -45 7.5 -61 22.5s-24 33.833 -24 56.5s8 41.5 24 56.5s36.333 22.5 61 22.5s44.834 -7.33301 60.501 -22s23.5 -33.667 23.5 -57s-7.83301 -42.333 -23.5 -57s-35.834 -22 -60.501 -22zM257 723
c-24.667 0 -44.834 7.33301 -60.501 22s-23.5 33.667 -23.5 57s7.83301 42.333 23.5 57s35.834 22 60.501 22s45 -7.5 61 -22.5s24 -33.833 24 -56.5s-8 -41.5 -24 -56.5s-36.333 -22.5 -61 -22.5z" />
    <glyph glyph-name="Eth" unicode="&#xd0;" horiz-adv-x="705" 
d="M5 287v124h55v289h248c247.333 0 371 -115.333 371 -346c0 -236 -125.667 -354 -377 -354h-242v287h-55zM252 129h47c63.333 0 109.833 17 139.5 51s44.5 90.333 44.5 169s-14.5 134.667 -43.5 168s-75.833 50 -140.5 50h-47v-156h126v-124h-126v-158z" />
    <glyph glyph-name="Ntilde" unicode="&#xd1;" horiz-adv-x="707" 
d="M201 723l0.000976562 40c5.33301 33.333 17.166 58.833 35.499 76.5s41.833 26.5 70.5 26.5c18 0 39.333 -4 64 -12s40 -12 46 -12c15.333 0 25.666 8 30.999 24h90v-40c-5.33301 -32.667 -17.166 -58 -35.499 -76s-41.5 -27 -69.5 -27
c-18.667 0 -40.167 4.33301 -64.5 13s-39.5 13 -45.5 13c-17.333 0 -28 -8.66699 -32 -26h-90zM56.001 0v700h205l229 -405h3v405h158v-700h-174l-261 459h-3v-459h-157z" />
    <glyph glyph-name="Ograve" unicode="&#xd2;" horiz-adv-x="742" 
d="M431 723h-105l-102 93v42h173l34 -102v-33zM371 -9c-99.333 0 -181.667 31.833 -247 95.5s-98 151.167 -98 262.5s33 199.166 99 263.499s148 96.5 246 96.5s180.167 -32.167 246.5 -96.5s99.5 -152.166 99.5 -263.499s-32.833 -198.833 -98.5 -262.5
s-148.167 -95.5 -247.5 -95.5zM370.999 122c46 0 82.5 18.667 109.5 56s40.5 93.666 40.5 168.999c0 76 -13.5 132.833 -40.5 170.5s-63.5 56.5 -109.5 56.5s-82.5 -18.833 -109.5 -56.5s-40.5 -94.5 -40.5 -170.5c0 -75.333 13.5 -131.666 40.5 -168.999
s63.5 -56 109.5 -56z" />
    <glyph glyph-name="Oacute" unicode="&#xd3;" horiz-adv-x="742" 
d="M314 723v33l33 102h173v-42l-101 -93h-105zM371 -9c-99.333 0 -181.667 31.833 -247 95.5s-98 151.167 -98 262.5s33 199.166 99 263.499s148 96.5 246 96.5s180.167 -32.167 246.5 -96.5s99.5 -152.166 99.5 -263.499s-32.833 -198.833 -98.5 -262.5
s-148.167 -95.5 -247.5 -95.5zM370.999 122c46 0 82.5 18.667 109.5 56s40.5 93.666 40.5 168.999c0 76 -13.5 132.833 -40.5 170.5s-63.5 56.5 -109.5 56.5s-82.5 -18.833 -109.5 -56.5s-40.5 -94.5 -40.5 -170.5c0 -75.333 13.5 -131.666 40.5 -168.999
s63.5 -56 109.5 -56z" />
    <glyph glyph-name="Ocircumflex" unicode="&#xd4;" horiz-adv-x="742" 
d="M371 -9c-99.333 0 -181.667 31.833 -247 95.5s-98 151.167 -98 262.5s33 199.166 99 263.499s148 96.5 246 96.5s180.167 -32.167 246.5 -96.5s99.5 -152.166 99.5 -263.499s-32.833 -198.833 -98.5 -262.5s-148.167 -95.5 -247.5 -95.5zM370.999 122
c46 0 82.5 18.667 109.5 56s40.5 93.666 40.5 168.999c0 76 -13.5 132.833 -40.5 170.5s-63.5 56.5 -109.5 56.5s-82.5 -18.833 -109.5 -56.5s-40.5 -94.5 -40.5 -170.5c0 -75.333 13.5 -131.666 40.5 -168.999s63.5 -56 109.5 -56zM219.999 723v38l91 100h121l89 -100v-38
h-97l-56 38l-55 -38h-93z" />
    <glyph glyph-name="Otilde" unicode="&#xd5;" horiz-adv-x="742" 
d="M202 723l0.000976562 40c5.33301 33.333 17.166 58.833 35.499 76.5s41.833 26.5 70.5 26.5c18 0 39.333 -4 64 -12s40 -12 46 -12c15.333 0 25.666 8 30.999 24h90v-40c-5.33301 -32.667 -17.166 -58 -35.499 -76s-41.5 -27 -69.5 -27
c-18.667 0 -40.167 4.33301 -64.5 13s-39.5 13 -45.5 13c-17.333 0 -28 -8.66699 -32 -26h-90zM371.001 -9c-99.333 0 -181.667 31.833 -247 95.5s-98 151.167 -98 262.5s33 199.166 99 263.499s148 96.5 246 96.5s180.167 -32.167 246.5 -96.5s99.5 -152.166 99.5 -263.499
s-32.833 -198.833 -98.5 -262.5s-148.167 -95.5 -247.5 -95.5zM371 122c46 0 82.5 18.667 109.5 56s40.5 93.666 40.5 168.999c0 76 -13.5 132.833 -40.5 170.5s-63.5 56.5 -109.5 56.5s-82.5 -18.833 -109.5 -56.5s-40.5 -94.5 -40.5 -170.5
c0 -75.333 13.5 -131.666 40.5 -168.999s63.5 -56 109.5 -56z" />
    <glyph glyph-name="Odieresis" unicode="&#xd6;" horiz-adv-x="742" 
d="M269 723c-24.667 0 -45 7.5 -61 22.5s-24 33.833 -24 56.5s8 41.5 24 56.5s36.333 22.5 61 22.5s44.834 -7.33301 60.501 -22s23.5 -33.667 23.5 -57s-7.83301 -42.333 -23.5 -57s-35.834 -22 -60.501 -22zM473 723c-24.667 0 -44.834 7.33301 -60.501 22
s-23.5 33.667 -23.5 57s7.83301 42.333 23.5 57s35.834 22 60.501 22s45 -7.5 61 -22.5s24 -33.833 24 -56.5s-8 -41.5 -24 -56.5s-36.333 -22.5 -61 -22.5zM371 -9c-99.333 0 -181.667 31.833 -247 95.5s-98 151.167 -98 262.5s33 199.166 99 263.499s148 96.5 246 96.5
s180.167 -32.167 246.5 -96.5s99.5 -152.166 99.5 -263.499s-32.833 -198.833 -98.5 -262.5s-148.167 -95.5 -247.5 -95.5zM370.999 122c46 0 82.5 18.667 109.5 56s40.5 93.666 40.5 168.999c0 76 -13.5 132.833 -40.5 170.5s-63.5 56.5 -109.5 56.5
s-82.5 -18.833 -109.5 -56.5s-40.5 -94.5 -40.5 -170.5c0 -75.333 13.5 -131.666 40.5 -168.999s63.5 -56 109.5 -56z" />
    <glyph glyph-name="multiply" unicode="&#xd7;" horiz-adv-x="525" 
d="M403 107l-140 139l-139 -139l-95 95l139 138l-139 138l95 95l139 -139l140 139l94 -95l-139 -138l139 -138z" />
    <glyph glyph-name="Oslash" unicode="&#xd8;" horiz-adv-x="742" 
d="M371 -9c-70 0 -132 16.001 -186 48.001l-49 -61h-97v28l74 91c-58 64.667 -87 148.667 -87 252c0 111.333 33 199.166 99 263.499s148 96.5 246 96.5c72 0 136.667 -18 194 -54l48 59h96v-28l-75 -92c55.333 -65.333 83 -147 83 -245
c0 -111.333 -32.833 -198.833 -98.5 -262.5s-148.167 -95.5 -247.5 -95.5zM218 347.001c0 -40 3.66699 -75.333 11 -106l240 296c-24.667 26 -57.334 39 -98.001 39c-47.333 0 -84.666 -19 -111.999 -57s-41 -95.333 -41 -172zM371 120.001c46.667 0 84 18.833 112 56.5
s42 94.5 42 170.5c0 34.667 -3.33301 67.667 -10 99l-238 -293c24 -22 55.333 -33 94 -33z" />
    <glyph glyph-name="Ugrave" unicode="&#xd9;" horiz-adv-x="693" 
d="M422 723h-105l-102 93v42h173l34 -102v-33zM366 131c39.333 0 68.167 10 86.5 30s27.5 55.333 27.5 106v433h159v-434c0 -182.667 -95 -274 -285 -274c-98.667 0 -173.5 23.5 -224.5 70.5s-76.5 114.833 -76.5 203.5v434h192v-433c0 -50.667 9.83301 -86 29.5 -106
s50.167 -30 91.5 -30z" />
    <glyph glyph-name="Uacute" unicode="&#xda;" horiz-adv-x="693" 
d="M305 723v33l33 102h173v-42l-101 -93h-105zM366 131c39.333 0 68.167 10 86.5 30s27.5 55.333 27.5 106v433h159v-434c0 -182.667 -95 -274 -285 -274c-98.667 0 -173.5 23.5 -224.5 70.5s-76.5 114.833 -76.5 203.5v434h192v-433c0 -50.667 9.83301 -86 29.5 -106
s50.167 -30 91.5 -30z" />
    <glyph glyph-name="Ucircumflex" unicode="&#xdb;" horiz-adv-x="693" 
d="M366 131c39.333 0 68.167 10 86.5 30s27.5 55.333 27.5 106v433h159v-434c0 -182.667 -95 -274 -285 -274c-98.667 0 -173.5 23.5 -224.5 70.5s-76.5 114.833 -76.5 203.5v434h192v-433c0 -50.667 9.83301 -86 29.5 -106s50.167 -30 91.5 -30zM211.001 723v38l91 100h121
l89 -100v-38h-97l-56 38l-55 -38h-93z" />
    <glyph glyph-name="Udieresis" unicode="&#xdc;" horiz-adv-x="693" 
d="M259 723c-24.667 0 -45 7.5 -61 22.5s-24 33.833 -24 56.5s8 41.5 24 56.5s36.333 22.5 61 22.5s44.834 -7.33301 60.501 -22s23.5 -33.667 23.5 -57s-7.83301 -42.333 -23.5 -57s-35.834 -22 -60.501 -22zM463 723c-24.667 0 -44.834 7.33301 -60.501 22
s-23.5 33.667 -23.5 57s7.83301 42.333 23.5 57s35.834 22 60.501 22s45 -7.5 61 -22.5s24 -33.833 24 -56.5s-8 -41.5 -24 -56.5s-36.333 -22.5 -61 -22.5zM366 131c39.333 0 68.167 10 86.5 30s27.5 55.333 27.5 106v433h159v-434c0 -182.667 -95 -274 -285 -274
c-98.667 0 -173.5 23.5 -224.5 70.5s-76.5 114.833 -76.5 203.5v434h192v-433c0 -50.667 9.83301 -86 29.5 -106s50.167 -30 91.5 -30z" />
    <glyph glyph-name="Yacute" unicode="&#xdd;" horiz-adv-x="637" 
d="M420 0h-192v260l-214 393v47h180l140 -273h2l135 273h152v-47l-203 -388v-265zM271 723v33l33 102h173v-42l-101 -93h-105z" />
    <glyph glyph-name="Thorn" unicode="&#xde;" horiz-adv-x="619" 
d="M56 0v700h192v-122h65c190.667 0 286 -74.333 286 -223c0 -148 -97.667 -222 -293 -222h-58v-133h-192zM247 448v-194h58c37.333 0 64 8.33301 80 25s24 41.667 24 75s-7.5 57.333 -22.5 72s-42.167 22 -81.5 22h-58z" />
    <glyph glyph-name="germandbls" unicode="&#xdf;" horiz-adv-x="652" 
d="M48 0l-0.000976562 497.999c0 68 23.667 120.5 71 157.5s117.333 55.5 210 55.5c78 0 138 -13 180 -39s63 -64.667 63 -116c0 -42 -26.667 -83 -80 -123c-21.333 -16 -35.5 -28 -42.5 -36s-10.5 -16.333 -10.5 -25c0 -8 4 -15 12 -21s24 -14 48 -24
c47.333 -19.333 81.666 -41.166 102.999 -65.499s32 -58.833 32 -103.5c0 -50.667 -18.167 -91 -54.5 -121s-89.5 -45 -159.5 -45c-60.667 0 -108.334 11.333 -143.001 34v117h57c23.333 -20.667 50 -31 80 -31c17.333 0 31.166 3 41.499 9s15.5 13.667 15.5 23
c0 10.667 -5 19 -15 25s-31.333 15.333 -64 28c-74.667 27.333 -112 73.333 -112 138c0 18 3.33301 35 10 51s13.834 28.667 21.501 38s19.5 22.666 35.5 39.999c2 2 5.83301 6.16699 11.5 12.5s9.33398 10.333 11.001 12s4.33398 4.83398 8.00098 9.50098
s6.16699 8.16699 7.5 10.5s2.83301 5.33301 4.5 9s2.83398 7.16699 3.50098 10.5s1 7 1 11c0 14.667 -6.16699 26.5 -18.5 35.5s-29.5 13.5 -51.5 13.5c-64 0 -96 -31.333 -96 -94v-494h-180z" />
    <glyph glyph-name="agrave" unicode="&#xe0;" horiz-adv-x="553" 
d="M410 0c-38.667 0 -62.6641 16.667 -71.9971 50c-34 -38 -84.333 -57 -151 -57c-48.667 0 -88.667 13.667 -120 41s-47 66 -47 116c0 54 18.667 94.833 56 122.5s87.666 41.5 150.999 41.5c34 0 67.667 -3.33301 101 -10v36c0 23.333 -6.83301 40.333 -20.5 51
s-36.5 16 -68.5 16c-48.667 0 -90.334 -11.667 -125.001 -35h-54v121c65.333 28 136.666 42 213.999 42c80 0 139 -14.333 177 -43s57 -75 57 -139v-353h-98zM326.003 561h-105l-102 99v43h173l34 -109v-33zM328.003 127v93c-20 3.33301 -39.667 5 -59 5
c-52 0 -78 -21 -78 -63c0 -42.667 22.333 -64 67 -64c24 0 47.333 9.66699 70 29z" />
    <glyph glyph-name="aacute" unicode="&#xe1;" horiz-adv-x="553" 
d="M410 0c-38.667 0 -62.6641 16.667 -71.9971 50c-34 -38 -84.333 -57 -151 -57c-48.667 0 -88.667 13.667 -120 41s-47 66 -47 116c0 54 18.667 94.833 56 122.5s87.666 41.5 150.999 41.5c34 0 67.667 -3.33301 101 -10v36c0 23.333 -6.83301 40.333 -20.5 51
s-36.5 16 -68.5 16c-48.667 0 -90.334 -11.667 -125.001 -35h-54v121c65.333 28 136.666 42 213.999 42c80 0 139 -14.333 177 -43s57 -75 57 -139v-353h-98zM326.003 561h-105v33l33 109h173v-43zM328.003 127v93c-20 3.33301 -39.667 5 -59 5c-52 0 -78 -21 -78 -63
c0 -42.667 22.333 -64 67 -64c24 0 47.333 9.66699 70 29z" />
    <glyph glyph-name="acircumflex" unicode="&#xe2;" horiz-adv-x="553" 
d="M410 0c-38.667 0 -62.6641 16.667 -71.9971 50c-34 -38 -84.333 -57 -151 -57c-48.667 0 -88.667 13.667 -120 41s-47 66 -47 116c0 54 18.667 94.833 56 122.5s87.666 41.5 150.999 41.5c34 0 67.667 -3.33301 101 -10v36c0 23.333 -6.83301 40.333 -20.5 51
s-36.5 16 -68.5 16c-48.667 0 -90.334 -11.667 -125.001 -35h-54v121c65.333 28 136.666 42 213.999 42c80 0 139 -14.333 177 -43s57 -75 57 -139v-353h-98zM122.003 561v38l91 104h121l89 -104v-38h-97l-56 42l-55 -42h-93zM258.003 98c24 0 47.333 9.66699 70 29v93
c-20 3.33301 -39.667 5 -59 5c-52 0 -78 -21 -78 -63c0 -42.667 22.333 -64 67 -64z" />
    <glyph glyph-name="atilde" unicode="&#xe3;" horiz-adv-x="553" 
d="M410 0c-38.667 0 -62.6641 16.667 -71.9971 50c-34 -38 -84.333 -57 -151 -57c-48.667 0 -88.667 13.667 -120 41s-47 66 -47 116c0 54 18.667 94.833 56 122.5s87.666 41.5 150.999 41.5c34 0 67.667 -3.33301 101 -10v36c0 23.333 -6.83301 40.333 -20.5 51
s-36.5 16 -68.5 16c-48.667 0 -90.334 -11.667 -125.001 -35h-54v121c65.333 28 136.666 42 213.999 42c80 0 139 -14.333 177 -43s57 -75 57 -139v-353h-98zM104.003 562l0.000976562 40c5.33301 33.333 17.166 59 35.499 77s41.833 27 70.5 27c18 0 39.333 -4 64 -12
s40 -12 46 -12c15.333 0 25.666 8 30.999 24h90v-40c-5.33301 -33.333 -17.166 -59 -35.499 -77s-41.5 -27 -69.5 -27c-18.667 0 -40.167 4.33301 -64.5 13s-39.5 13 -45.5 13c-17.333 0 -28 -8.66699 -32 -26h-90zM328.004 127v93c-20 3.33301 -39.667 5 -59 5
c-52 0 -78 -21 -78 -63c0 -42.667 22.333 -64 67 -64c24 0 47.333 9.66699 70 29z" />
    <glyph glyph-name="adieresis" unicode="&#xe4;" horiz-adv-x="553" 
d="M410 0c-38.667 0 -62.6641 16.667 -71.9971 50c-34 -38 -84.333 -57 -151 -57c-48.667 0 -88.667 13.667 -120 41s-47 66 -47 116c0 54 18.667 94.833 56 122.5s87.666 41.5 150.999 41.5c34 0 67.667 -3.33301 101 -10v36c0 23.333 -6.83301 40.333 -20.5 51
s-36.5 16 -68.5 16c-48.667 0 -90.334 -11.667 -125.001 -35h-54v121c65.333 28 136.666 42 213.999 42c80 0 139 -14.333 177 -43s57 -75 57 -139v-353h-98zM170.003 560c-24.667 0 -45 7.5 -61 22.5s-24 33.833 -24 56.5c0 23.333 8 42.5 24 57.5s36.333 22.5 61 22.5
s44.834 -7.5 60.501 -22.5s23.5 -34.167 23.5 -57.5s-7.83301 -42.333 -23.5 -57s-35.834 -22 -60.501 -22zM374.003 560c-24.667 0 -44.834 7.33301 -60.501 22s-23.5 33.667 -23.5 57s7.83301 42.5 23.5 57.5s35.834 22.5 60.501 22.5s45 -7.5 61 -22.5
s24 -34.167 24 -57.5c0 -22.667 -8 -41.5 -24 -56.5s-36.333 -22.5 -61 -22.5zM328.003 127v93c-20 3.33301 -39.667 5 -59 5c-52 0 -78 -21 -78 -63c0 -42.667 22.333 -64 67 -64c24 0 47.333 9.66699 70 29z" />
    <glyph glyph-name="aring" unicode="&#xe5;" horiz-adv-x="553" 
d="M410 0c-38.667 0 -62.6641 16.667 -71.9971 50c-34 -38 -84.333 -57 -151 -57c-48.667 0 -88.667 13.667 -120 41s-47 66 -47 116c0 54 18.667 94.833 56 122.5s87.666 41.5 150.999 41.5c34 0 67.667 -3.33301 101 -10v36c0 23.333 -6.83301 40.333 -20.5 51
s-36.5 16 -68.5 16c-48.667 0 -90.334 -11.667 -125.001 -35h-54v121c65.333 28 136.666 42 213.999 42c80 0 139 -14.333 177 -43s57 -75 57 -139v-353h-98zM272.003 562c-30 0 -55.333 9.33301 -76 28s-31 43.334 -31 74.001c0 30 10.333 54.5 31 73.5s46 28.5 76 28.5
s55.333 -9.5 76 -28.5s31 -43.5 31 -73.5c0 -30.667 -10.333 -55.334 -31 -74.001s-46 -28 -76 -28zM328.003 127v93c-20 3.33301 -39.667 5 -59 5c-52 0 -78 -21 -78 -63c0 -42.667 22.333 -64 67 -64c24 0 47.333 9.66699 70 29zM272.003 628c10 0 18.167 3.33301 24.5 10
s9.5 15.334 9.5 26.001s-3.16699 19.334 -9.5 26.001s-14.5 10 -24.5 10s-18 -3.33301 -24 -10s-9 -15.334 -9 -26.001s3 -19.334 9 -26.001s14 -10 24 -10z" />
    <glyph glyph-name="ae" unicode="&#xe6;" horiz-adv-x="863" 
d="M202 -7c-56 0 -100.331 13.3311 -132.998 39.998s-49 66.334 -49 119.001c0 53.333 19.167 94 57.5 122s91.5 42 159.5 42h91v25c0 22.667 -6.83301 39.334 -20.5 50.001s-36.5 16 -68.5 16c-48.667 0 -90.334 -11.667 -125.001 -35h-54v121
c65.333 28 135.666 42 210.999 42c78 0 132.333 -16.333 163 -49c47.333 32.667 101.333 49 162 49c164.667 0 247 -88.333 247 -265c0 -8 -0.333008 -17.5 -1 -28.5s-1 -16.833 -1 -17.5h-333c4 -42.667 16 -72 36 -88s49 -24 87 -24c52 0 97 13 135 39h56v-107
c-61.333 -34.667 -134 -52 -218 -52c-96 0 -168 26.667 -216 80c-46 -52.667 -108 -79 -186 -79zM255.002 97.998c35.333 0 65.666 14 90.999 42c-9.33301 24 -15.666 52 -18.999 84h-60c-50.667 0 -76 -20.667 -76 -62c0 -21.333 5.83301 -37.333 17.5 -48
s27.167 -16 46.5 -16zM595.002 424.998c-23.333 0 -42.5 -7.83105 -57.5 -23.498s-24.5 -43.834 -28.5 -84.501h164c-1.33301 39.333 -8.33301 67.166 -21 83.499s-31.667 24.5 -57 24.5z" />
    <glyph glyph-name="ccedilla" unicode="&#xe7;" horiz-adv-x="508" 
d="M481 40c-49.333 -32 -109.001 -48 -179.001 -48v-16c54 -2.66699 81 -27 81 -73c0 -24 -9.5 -43 -28.5 -57s-46.833 -21 -83.5 -21c-31.333 0 -58.666 5.33301 -81.999 16v62h31c8.66699 -7.33301 19.667 -11 33 -11c17.333 0 26 5.33301 26 16s-10.333 16 -31 16h-22v75
c-66 12 -116.833 40.5 -152.5 85.5s-53.5 104.167 -53.5 177.5c0 84 26.833 150.5 80.5 199.5s124.167 73.5 211.5 73.5c66 0 121.667 -12.333 167 -37v-123h-65c-24.667 22 -56 33 -94 33c-36 0 -64.5 -12.5 -85.5 -37.5s-31.5 -61.833 -31.5 -110.5
c0 -96 37.667 -144 113 -144c41.333 0 76.333 12.333 105 37h60v-113z" />
    <glyph glyph-name="egrave" unicode="&#xe8;" horiz-adv-x="557" 
d="M535 224h-333.001c4 -42.667 16 -72 36 -88s49.333 -24 88 -24c52.667 0 97.334 13 134.001 39h56v-107c-61.333 -34.667 -134 -52 -218 -52c-90 0 -158.833 23.667 -206.5 71s-71.5 113 -71.5 197s24.833 150.833 74.5 200.5s114.5 74.5 194.5 74.5
c165.333 0 248 -88.333 248 -265c0 -8 -0.333008 -17.5 -1 -28.5s-1 -16.833 -1 -17.5zM337.999 561h-105l-102 99v43h173l34 -109v-33zM288.999 425c-49.333 0 -78 -35.667 -86 -107h164c-1.33301 39.333 -8.33301 67 -21 83s-31.667 24 -57 24z" />
    <glyph glyph-name="eacute" unicode="&#xe9;" horiz-adv-x="557" 
d="M535 224h-333.001c4 -42.667 16 -72 36 -88s49.333 -24 88 -24c52.667 0 97.334 13 134.001 39h56v-107c-61.333 -34.667 -134 -52 -218 -52c-90 0 -158.833 23.667 -206.5 71s-71.5 113 -71.5 197s24.833 150.833 74.5 200.5s114.5 74.5 194.5 74.5
c165.333 0 248 -88.333 248 -265c0 -8 -0.333008 -17.5 -1 -28.5s-1 -16.833 -1 -17.5zM337.999 561h-105v33l33 109h173v-43zM288.999 425c-49.333 0 -78 -35.667 -86 -107h164c-1.33301 39.333 -8.33301 67 -21 83s-31.667 24 -57 24z" />
    <glyph glyph-name="ecircumflex" unicode="&#xea;" horiz-adv-x="557" 
d="M535 224h-333.001c4 -42.667 16 -72 36 -88s49.333 -24 88 -24c52.667 0 97.334 13 134.001 39h56v-107c-61.333 -34.667 -134 -52 -218 -52c-90 0 -158.833 23.667 -206.5 71s-71.5 113 -71.5 197s24.833 150.833 74.5 200.5s114.5 74.5 194.5 74.5
c165.333 0 248 -88.333 248 -265c0 -8 -0.333008 -17.5 -1 -28.5s-1 -16.833 -1 -17.5zM133.999 561v38l91 104h121l89 -104v-38h-97l-56 42l-55 -42h-93zM288.999 425c-49.333 0 -78 -35.667 -86 -107h164c-1.33301 39.333 -8.33301 67 -21 83s-31.667 24 -57 24z" />
    <glyph glyph-name="edieresis" unicode="&#xeb;" horiz-adv-x="557" 
d="M535 224h-333.001c4 -42.667 16 -72 36 -88s49.333 -24 88 -24c52.667 0 97.334 13 134.001 39h56v-107c-61.333 -34.667 -134 -52 -218 -52c-90 0 -158.833 23.667 -206.5 71s-71.5 113 -71.5 197s24.833 150.833 74.5 200.5s114.5 74.5 194.5 74.5
c165.333 0 248 -88.333 248 -265c0 -8 -0.333008 -17.5 -1 -28.5s-1 -16.833 -1 -17.5zM385.999 560c-24.667 0 -44.834 7.33301 -60.501 22s-23.5 33.667 -23.5 57s7.83301 42.5 23.5 57.5s35.834 22.5 60.501 22.5s45 -7.5 61 -22.5s24 -34.167 24 -57.5
c0 -22.667 -8 -41.5 -24 -56.5s-36.333 -22.5 -61 -22.5zM181.999 560c-24.667 0 -45 7.5 -61 22.5s-24 33.833 -24 56.5c0 23.333 8 42.5 24 57.5s36.333 22.5 61 22.5s44.834 -7.5 60.501 -22.5s23.5 -34.167 23.5 -57.5s-7.83301 -42.333 -23.5 -57
s-35.834 -22 -60.501 -22zM288.999 425c-49.333 0 -78 -35.667 -86 -107h164c-1.33301 39.333 -8.33301 67 -21 83s-31.667 24 -57 24z" />
    <glyph glyph-name="igrave" unicode="&#xec;" horiz-adv-x="278" 
d="M228 0h-179.001v527h116c26.667 0 43.834 -6.33301 51.501 -19s11.5 -40 11.5 -82v-426zM199.999 561h-105l-102 99v43h173l34 -109v-33z" />
    <glyph glyph-name="iacute" unicode="&#xed;" horiz-adv-x="278" 
d="M181 561h-105v33l33 109h173v-43zM228 0h-179.001v527h116c26.667 0 43.834 -6.33301 51.501 -19s11.5 -40 11.5 -82v-426z" />
    <glyph glyph-name="icircumflex" unicode="&#xee;" horiz-adv-x="278" 
d="M-11 561v38l91 104h121l89 -104v-38h-97l-56 42l-55 -42h-93zM228 0h-179.001v527h116c26.667 0 43.834 -6.33301 51.501 -19s11.5 -40 11.5 -82v-426z" />
    <glyph glyph-name="idieresis" unicode="&#xef;" horiz-adv-x="278" 
d="M37 560c-24.667 0 -45 7.5 -61 22.5s-24 33.833 -24 56.5c0 23.333 8 42.5 24 57.5s36.333 22.5 61 22.5s44.834 -7.5 60.501 -22.5s23.5 -34.167 23.5 -57.5s-7.83301 -42.333 -23.5 -57s-35.834 -22 -60.501 -22zM241 560c-24.667 0 -44.834 7.33301 -60.501 22
s-23.5 33.667 -23.5 57s7.83301 42.5 23.5 57.5s35.834 22.5 60.501 22.5s45 -7.5 61 -22.5s24 -34.167 24 -57.5c0 -22.667 -8 -41.5 -24 -56.5s-36.333 -22.5 -61 -22.5zM228 0h-179.001v527h116c26.667 0 43.834 -6.33301 51.501 -19s11.5 -40 11.5 -82v-426z" />
    <glyph glyph-name="eth" unicode="&#xf0;" horiz-adv-x="601" 
d="M163 522l0.000976562 28.001l40 34c-14 4 -32.333 8.33301 -55 13v103h70c33.333 -4.66699 65.666 -12.334 96.999 -23.001l26 22h101v-27l-40 -34c119.333 -71.333 179 -188.333 179 -351c0 -98 -26 -171.667 -78 -221s-121 -74 -207 -74
c-82 0 -148.5 23.167 -199.5 69.5s-76.5 109.5 -76.5 189.5c0 78 22.167 139.333 66.5 184s98.5 67 162.5 67c30.667 0 55 -4 73 -12s35.667 -20.333 53 -37c-14.667 38 -42 69.333 -82 94l-29 -25h-101zM304.001 110.001c63.333 0 95 46.334 95 139.001
c0 94 -31.667 141 -95 141c-31.333 0 -56.166 -11.833 -74.499 -35.5s-27.5 -58.834 -27.5 -105.501c0 -46 9.16699 -80.667 27.5 -104s43.166 -35 74.499 -35z" />
    <glyph glyph-name="ntilde" unicode="&#xf1;" horiz-adv-x="602" 
d="M173 527c15.333 0 26.833 -4.33301 34.5 -13s13.167 -25.667 16.5 -51c58 48 121.333 72 190 72c95.333 0 143 -49.667 143 -149v-386h-180v339c0 22 -4.66699 37.167 -14 45.5s-25.333 12.5 -48 12.5s-51.667 -5.66699 -87 -17v-380h-180v527h125zM136 562
l0.000976562 40c5.33301 33.333 17.166 59 35.499 77s41.833 27 70.5 27c18 0 39.333 -4 64 -12s40 -12 46 -12c15.333 0 25.666 8 30.999 24h90v-40c-5.33301 -33.333 -17.166 -59 -35.499 -77s-41.5 -27 -69.5 -27c-18.667 0 -40.167 4.33301 -64.5 13s-39.5 13 -45.5 13
c-17.333 0 -28 -8.66699 -32 -26h-90z" />
    <glyph glyph-name="ograve" unicode="&#xf2;" horiz-adv-x="601" 
d="M301 -8c-81.333 0 -148.5 24.333 -201.5 73s-79.5 114 -79.5 196c0 82.667 26.5 149 79.5 199s120.167 75 201.5 75c80.667 0 147.5 -25 200.5 -75s79.5 -116.333 79.5 -199c0 -82 -26.333 -147.333 -79 -196s-119.667 -73 -201 -73zM301 110c30 0 53.833 12.333 71.5 37
s26.5 62 26.5 112c0 50.667 -8.83301 88.834 -26.5 114.501s-41.5 38.5 -71.5 38.5c-30.667 0 -54.834 -12.833 -72.501 -38.5s-26.5 -63.834 -26.5 -114.501c0 -50 8.83301 -87.333 26.5 -112s41.834 -37 72.501 -37zM354 561h-105l-102 99v43h173l34 -109v-33z" />
    <glyph glyph-name="oacute" unicode="&#xf3;" horiz-adv-x="601" 
d="M354 561h-105v33l33 109h173v-43zM301 -8c-81.333 0 -148.5 24.333 -201.5 73s-79.5 114 -79.5 196c0 82.667 26.5 149 79.5 199s120.167 75 201.5 75c80.667 0 147.5 -25 200.5 -75s79.5 -116.333 79.5 -199c0 -82 -26.333 -147.333 -79 -196s-119.667 -73 -201 -73z
M301 110c30 0 53.833 12.333 71.5 37s26.5 62 26.5 112c0 50.667 -8.83301 88.834 -26.5 114.501s-41.5 38.5 -71.5 38.5c-30.667 0 -54.834 -12.833 -72.501 -38.5s-26.5 -63.834 -26.5 -114.501c0 -50 8.83301 -87.333 26.5 -112s41.834 -37 72.501 -37z" />
    <glyph glyph-name="ocircumflex" unicode="&#xf4;" horiz-adv-x="601" 
d="M150 561v38l91 104h121l89 -104v-38h-97l-56 42l-55 -42h-93zM301 -8c-81.333 0 -148.5 24.333 -201.5 73s-79.5 114 -79.5 196c0 82.667 26.5 149 79.5 199s120.167 75 201.5 75c80.667 0 147.5 -25 200.5 -75s79.5 -116.333 79.5 -199c0 -82 -26.333 -147.333 -79 -196
s-119.667 -73 -201 -73zM301 110c30 0 53.833 12.333 71.5 37s26.5 62 26.5 112c0 50.667 -8.83301 88.834 -26.5 114.501s-41.5 38.5 -71.5 38.5c-30.667 0 -54.834 -12.833 -72.501 -38.5s-26.5 -63.834 -26.5 -114.501c0 -50 8.83301 -87.333 26.5 -112
s41.834 -37 72.501 -37z" />
    <glyph glyph-name="otilde" unicode="&#xf5;" horiz-adv-x="601" 
d="M301 -8c-81.333 0 -148.5 24.333 -201.5 73s-79.5 114 -79.5 196c0 82.667 26.5 149 79.5 199s120.167 75 201.5 75c80.667 0 147.5 -25 200.5 -75s79.5 -116.333 79.5 -199c0 -82 -26.333 -147.333 -79 -196s-119.667 -73 -201 -73zM301 110c30 0 53.833 12.333 71.5 37
s26.5 62 26.5 112c0 50.667 -8.83301 88.834 -26.5 114.501s-41.5 38.5 -71.5 38.5c-30.667 0 -54.834 -12.833 -72.501 -38.5s-26.5 -63.834 -26.5 -114.501c0 -50 8.83301 -87.333 26.5 -112s41.834 -37 72.501 -37zM132 562l0.000976562 40
c5.33301 33.333 17.166 59 35.499 77s41.833 27 70.5 27c18 0 39.333 -4 64 -12s40 -12 46 -12c15.333 0 25.666 8 30.999 24h90v-40c-5.33301 -33.333 -17.166 -59 -35.499 -77s-41.5 -27 -69.5 -27c-18.667 0 -40.167 4.33301 -64.5 13s-39.5 13 -45.5 13
c-17.333 0 -28 -8.66699 -32 -26h-90z" />
    <glyph glyph-name="odieresis" unicode="&#xf6;" horiz-adv-x="601" 
d="M198 560c-24.667 0 -45 7.5 -61 22.5s-24 33.833 -24 56.5c0 23.333 8 42.5 24 57.5s36.333 22.5 61 22.5s44.834 -7.5 60.501 -22.5s23.5 -34.167 23.5 -57.5s-7.83301 -42.333 -23.5 -57s-35.834 -22 -60.501 -22zM402 560c-24.667 0 -44.834 7.33301 -60.501 22
s-23.5 33.667 -23.5 57s7.83301 42.5 23.5 57.5s35.834 22.5 60.501 22.5s45 -7.5 61 -22.5s24 -34.167 24 -57.5c0 -22.667 -8 -41.5 -24 -56.5s-36.333 -22.5 -61 -22.5zM301 -8c-81.333 0 -148.5 24.333 -201.5 73s-79.5 114 -79.5 196c0 82.667 26.5 149 79.5 199
s120.167 75 201.5 75c80.667 0 147.5 -25 200.5 -75s79.5 -116.333 79.5 -199c0 -82 -26.333 -147.333 -79 -196s-119.667 -73 -201 -73zM301 110c30 0 53.833 12.333 71.5 37s26.5 62 26.5 112c0 50.667 -8.83301 88.834 -26.5 114.501s-41.5 38.5 -71.5 38.5
c-30.667 0 -54.834 -12.833 -72.501 -38.5s-26.5 -63.834 -26.5 -114.501c0 -50 8.83301 -87.333 26.5 -112s41.834 -37 72.501 -37z" />
    <glyph glyph-name="divide" unicode="&#xf7;" horiz-adv-x="534" 
d="M510 276h-486v139h486v-139zM268 243c25.333 0 47 -8.83301 65 -26.5s27 -39.167 27 -64.5c0 -24.667 -9 -45.667 -27 -63s-39.667 -26 -65 -26c-26.667 0 -49 8.5 -67 25.5s-27 38.167 -27 63.5s9 46.833 27 64.5s40.333 26.5 67 26.5zM268 628
c25.333 0 47 -8.83105 65 -26.498s27 -38.834 27 -63.501c0 -25.333 -9 -46.666 -27 -63.999s-39.667 -26 -65 -26c-26.667 0 -49 8.66699 -67 26s-27 38.666 -27 63.999s9 46.666 27 63.999s40.333 26 67 26z" />
    <glyph glyph-name="oslash" unicode="&#xf8;" horiz-adv-x="601" 
d="M301 -8c-52 0 -99.333 10.333 -142 31l-40 -49h-82v26l57 70c-49.333 49.333 -74 113 -74 191c0 82.667 26.5 149 79.5 199s120.167 75 201.5 75c53.333 0 101.333 -11.667 144 -35l36 45h82v-26l-54 -67c48 -50 72 -113.667 72 -191c0 -82 -26.333 -147.333 -79 -196
s-119.667 -73 -201 -73zM197 259c0 -24 1.33301 -43 4 -57l159 194c-15.333 13.333 -35 20 -59 20c-32 0 -57.333 -13.167 -76 -39.5s-28 -65.5 -28 -117.5zM301 104c31.333 0 56.168 13.168 74.501 39.501s27.5 64.833 27.5 115.5c0 23.333 -1.33301 42.666 -4 57.999
l-159 -194c15.333 -12.667 35.666 -19 60.999 -19z" />
    <glyph glyph-name="ugrave" unicode="&#xf9;" horiz-adv-x="610" 
d="M297 124c20.667 0 47.998 5.66602 81.998 16.999v386h179v-527h-125c-15.333 0 -26.666 3.83301 -33.999 11.5s-12.666 23.5 -15.999 47.5c-58 -44.667 -118 -67 -180 -67c-102.667 0 -154 50.333 -154 151v384h180v-343c0 -23.333 5.5 -39.166 16.5 -47.499
s28.167 -12.5 51.5 -12.5zM358.998 560.999h-105l-102 99v43h173l34 -109v-33z" />
    <glyph glyph-name="uacute" unicode="&#xfa;" horiz-adv-x="610" 
d="M297 124c20.667 0 47.998 5.66602 81.998 16.999v386h179v-527h-125c-15.333 0 -26.666 3.83301 -33.999 11.5s-12.666 23.5 -15.999 47.5c-58 -44.667 -118 -67 -180 -67c-102.667 0 -154 50.333 -154 151v384h180v-343c0 -23.333 5.5 -39.166 16.5 -47.499
s28.167 -12.5 51.5 -12.5zM358.998 560.999h-105v33l33 109h173v-43z" />
    <glyph glyph-name="ucircumflex" unicode="&#xfb;" horiz-adv-x="610" 
d="M297 124c20.667 0 47.998 5.66602 81.998 16.999v386h179v-527h-125c-15.333 0 -26.666 3.83301 -33.999 11.5s-12.666 23.5 -15.999 47.5c-58 -44.667 -118 -67 -180 -67c-102.667 0 -154 50.333 -154 151v384h180v-343c0 -23.333 5.5 -39.166 16.5 -47.499
s28.167 -12.5 51.5 -12.5zM153.998 560.999v38l91 104h121l89 -104v-38h-97l-56 42l-55 -42h-93z" />
    <glyph glyph-name="udieresis" unicode="&#xfc;" horiz-adv-x="610" 
d="M297 124c20.667 0 47.998 5.66602 81.998 16.999v386h179v-527h-125c-15.333 0 -26.666 3.83301 -33.999 11.5s-12.666 23.5 -15.999 47.5c-58 -44.667 -118 -67 -180 -67c-102.667 0 -154 50.333 -154 151v384h180v-343c0 -23.333 5.5 -39.166 16.5 -47.499
s28.167 -12.5 51.5 -12.5zM406.998 559.999c-24.667 0 -44.834 7.33301 -60.501 22s-23.5 33.667 -23.5 57s7.83301 42.5 23.5 57.5s35.834 22.5 60.501 22.5s45 -7.5 61 -22.5s24 -34.167 24 -57.5c0 -22.667 -8 -41.5 -24 -56.5s-36.333 -22.5 -61 -22.5zM202.998 559.999
c-24.667 0 -45 7.5 -61 22.5s-24 33.833 -24 56.5c0 23.333 8 42.5 24 57.5s36.333 22.5 61 22.5s44.834 -7.5 60.501 -22.5s23.5 -34.167 23.5 -57.5s-7.83301 -42.333 -23.5 -57s-35.834 -22 -60.501 -22z" />
    <glyph glyph-name="yacute" unicode="&#xfd;" horiz-adv-x="569" 
d="M136 -162v41l69 146l-190 461v41h171l110 -299h3l102 299h154v-41l-256 -648h-163zM350 561h-105v33l33 109h173v-43z" />
    <glyph glyph-name="thorn" unicode="&#xfe;" horiz-adv-x="605" 
d="M228 606l0.000976562 -131.001c43.333 40 95.666 60 156.999 60c56 0 103.167 -21 141.5 -63s57.5 -107 57.5 -195c0 -93.333 -20.833 -162.666 -62.5 -207.999s-95.5 -68 -161.5 -68c-54 0 -98 13 -132 39v-202h-180v862h114c28 0 46 -5.66699 54 -17s12 -37 12 -77z
M304.001 400.999c-23.333 0 -48.667 -5.66699 -76 -17v-244c20 -14 44.333 -21 73 -21c31.333 0 56 10.333 74 31s27 58 27 112c0 52 -8.66699 88.167 -26 108.5s-41.333 30.5 -72 30.5z" />
    <glyph glyph-name="ydieresis" unicode="&#xff;" horiz-adv-x="569" 
d="M136 -162v41l69 146l-190 461v41h171l110 -299h3l102 299h154v-41l-256 -648h-163zM194 560c-24.667 0 -45 7.5 -61 22.5s-24 33.833 -24 56.5c0 23.333 8 42.5 24 57.5s36.333 22.5 61 22.5s44.834 -7.5 60.501 -22.5s23.5 -34.167 23.5 -57.5
s-7.83301 -42.333 -23.5 -57s-35.834 -22 -60.501 -22zM398 560c-24.667 0 -44.834 7.33301 -60.501 22s-23.5 33.667 -23.5 57s7.83301 42.5 23.5 57.5s35.834 22.5 60.501 22.5s45 -7.5 61 -22.5s24 -34.167 24 -57.5c0 -22.667 -8 -41.5 -24 -56.5
s-36.333 -22.5 -61 -22.5z" />
    <glyph glyph-name="Amacron" unicode="&#x100;" horiz-adv-x="694" 
d="M19 0v45l223 655h208l226 -655v-45h-186l-49 158h-223l-47 -158h-152zM480 842v-109h-276v109h276zM328 524l-71 -236h145l-72 236h-2z" />
    <glyph glyph-name="amacron" unicode="&#x101;" horiz-adv-x="553" 
d="M410 0c-38.667 0 -62.6641 16.667 -71.9971 50c-34 -38 -84.333 -57 -151 -57c-48.667 0 -88.667 13.667 -120 41s-47 66 -47 116c0 54 18.667 94.833 56 122.5s87.666 41.5 150.999 41.5c34 0 67.667 -3.33301 101 -10v36c0 23.333 -6.83301 40.333 -20.5 51
s-36.5 16 -68.5 16c-48.667 0 -90.334 -11.667 -125.001 -35h-54v121c65.333 28 136.666 42 213.999 42c80 0 139 -14.333 177 -43s57 -75 57 -139v-353h-98zM407.003 687v-108h-270v108h270zM258.003 98c24 0 47.333 9.66699 70 29v93c-20 3.33301 -39.667 5 -59 5
c-52 0 -78 -21 -78 -63c0 -42.667 22.333 -64 67 -64z" />
    <glyph glyph-name="Abreve" unicode="&#x102;" horiz-adv-x="694" 
d="M19 0v45l223 655h208l226 -655v-45h-186l-49 158h-223l-47 -158h-152zM343 723c-40 0 -72.668 9.33203 -98.001 27.999s-41 42.334 -47 71.001v39h103c2.66699 -20.667 16.667 -31 42 -31c24 0 38 10.333 42 31h103v-39c-6.66699 -28 -22.667 -51.5 -48 -70.5
s-57.666 -28.5 -96.999 -28.5zM327.999 523.999l-71 -236h145l-72 236h-2z" />
    <glyph glyph-name="abreve" unicode="&#x103;" horiz-adv-x="553" 
d="M410 0c-38.667 0 -62.6641 16.667 -71.9971 50c-34 -38 -84.333 -57 -151 -57c-48.667 0 -88.667 13.667 -120 41s-47 66 -47 116c0 54 18.667 94.833 56 122.5s87.666 41.5 150.999 41.5c34 0 67.667 -3.33301 101 -10v36c0 23.333 -6.83301 40.333 -20.5 51
s-36.5 16 -68.5 16c-48.667 0 -90.334 -11.667 -125.001 -35h-54v121c65.333 28 136.666 42 213.999 42c80 0 139 -14.333 177 -43s57 -75 57 -139v-353h-98zM272.003 561c-40 0 -72.5 10 -97.5 30s-40.833 45.333 -47.5 76v40h103c2 -25.333 16 -38 42 -38
c24.667 0 38.667 12.667 42 38h103v-40c-6.66699 -30.667 -22.5 -56 -47.5 -76s-57.5 -30 -97.5 -30zM328.003 127v93c-20 3.33301 -39.667 5 -59 5c-52 0 -78 -21 -78 -63c0 -42.667 22.333 -64 67 -64c24 0 47.333 9.66699 70 29z" />
    <glyph glyph-name="Aogonek" unicode="&#x104;" horiz-adv-x="694" 
d="M595 -167c-36 0 -63.5 6.83301 -82.5 20.5s-28.5 32.5 -28.5 56.5c0 36 22.667 66 68 90h-62l-49 158h-223l-47 -158h-152v45l223 655h208l226 -655v-45h-22c-22.667 -19.333 -34 -36 -34 -50c0 -16 12.333 -24 37 -24h18v-76c-19.333 -11.333 -46 -17 -80 -17zM328 524
l-71 -236h145l-72 236h-2z" />
    <glyph glyph-name="aogonek" unicode="&#x105;" horiz-adv-x="553" 
d="M428 -167c-36 0 -63.4971 6.83301 -82.4971 20.5s-28.5 32.5 -28.5 56.5c0 39.333 23.667 70 71 92c-26 4.66699 -42.667 20.667 -50 48c-34 -38 -84.333 -57 -151 -57c-48.667 0 -88.667 13.667 -120 41s-47 66 -47 116c0 54 18.667 94.833 56 122.5
s87.666 41.5 150.999 41.5c34 0 67.667 -3.33301 101 -10v36c0 23.333 -6.83301 40.333 -20.5 51s-36.5 16 -68.5 16c-48.667 0 -90.334 -11.667 -125.001 -35h-54v121c65.333 28 136.666 42 213.999 42c80 0 139 -14.333 177 -43s57 -75 57 -139v-353h-21
c-22.667 -19.333 -34 -36 -34 -50c0 -16 12.333 -24 37 -24h18v-76c-19.333 -11.333 -46 -17 -80 -17zM258.003 98c24 0 47.333 9.66699 70 29v93c-20 3.33301 -39.667 5 -59 5c-52 0 -78 -21 -78 -63c0 -42.667 22.333 -64 67 -64z" />
    <glyph glyph-name="Cacute" unicode="&#x106;" horiz-adv-x="635" 
d="M371 -9c-106 0 -189.833 31.1699 -251.5 93.5029s-92.5 149.5 -92.5 261.5c0 113.333 32.667 202.166 98 266.499s152.666 96.5 261.999 96.5c82 0 152 -16.667 210 -50v-133h-74c-33.333 30.667 -77 46 -131 46s-95.667 -18.333 -125 -55s-44 -91.334 -44 -164.001
c0 -78.667 13.333 -136.334 40 -173.001s66.667 -55 120 -55c59.333 0 110 20.333 152 61h68v-127c-61.333 -45.333 -138.666 -68 -231.999 -68zM304 723.003v33l33 102h173v-42l-101 -93h-105z" />
    <glyph glyph-name="cacute" unicode="&#x107;" horiz-adv-x="508" 
d="M339 561h-105v33l33 109h173v-43zM301 -8c-88.667 0 -157.667 23.332 -207 69.999s-74 113.334 -74 200.001c0 84 26.833 150.5 80.5 199.5s124.167 73.5 211.5 73.5c66 0 121.667 -12.333 167 -37v-123h-65c-24.667 22 -56 33 -94 33c-36 0 -64.5 -12.5 -85.5 -37.5
s-31.5 -61.833 -31.5 -110.5c0 -96 37.667 -144 113 -144c41.333 0 76.333 12.333 105 37h60v-113c-49.333 -32 -109.333 -48 -180 -48z" />
    <glyph glyph-name="Ccircumflex" unicode="&#x108;" horiz-adv-x="635" 
d="M371 -9c-106 0 -189.833 31.1699 -251.5 93.5029s-92.5 149.5 -92.5 261.5c0 113.333 32.667 202.166 98 266.499s152.666 96.5 261.999 96.5c82 0 152 -16.667 210 -50v-133h-74c-33.333 30.667 -77 46 -131 46s-95.667 -18.333 -125 -55s-44 -91.334 -44 -164.001
c0 -78.667 13.333 -136.334 40 -173.001s66.667 -55 120 -55c59.333 0 110 20.333 152 61h68v-127c-61.333 -45.333 -138.666 -68 -231.999 -68zM211 723.003v38l91 100h121l89 -100v-38h-97l-56 38l-55 -38h-93z" />
    <glyph glyph-name="ccircumflex" unicode="&#x109;" horiz-adv-x="508" 
d="M134 561v38l91 104h121l89 -104v-38h-97l-56 42l-55 -42h-93zM301 -8c-88.667 0 -157.667 23.332 -207 69.999s-74 113.334 -74 200.001c0 84 26.833 150.5 80.5 199.5s124.167 73.5 211.5 73.5c66 0 121.667 -12.333 167 -37v-123h-65c-24.667 22 -56 33 -94 33
c-36 0 -64.5 -12.5 -85.5 -37.5s-31.5 -61.833 -31.5 -110.5c0 -96 37.667 -144 113 -144c41.333 0 76.333 12.333 105 37h60v-113c-49.333 -32 -109.333 -48 -180 -48z" />
    <glyph glyph-name="Cdotaccent" unicode="&#x10a;" horiz-adv-x="635" 
d="M361 723c-26.667 0 -48.834 7.83301 -66.501 23.5s-26.5 35.834 -26.5 60.501s8.83301 45 26.5 61s39.834 24 66.501 24s48.834 -8 66.501 -24s26.5 -36.333 26.5 -61s-8.83301 -44.834 -26.5 -60.501s-39.834 -23.5 -66.501 -23.5zM371 -9
c-106 0 -189.833 31.1699 -251.5 93.5029s-92.5 149.5 -92.5 261.5c0 113.333 32.667 202.166 98 266.499s152.666 96.5 261.999 96.5c82 0 152 -16.667 210 -50v-133h-74c-33.333 30.667 -77 46 -131 46s-95.667 -18.333 -125 -55s-44 -91.334 -44 -164.001
c0 -78.667 13.333 -136.334 40 -173.001s66.667 -55 120 -55c59.333 0 110 20.333 152 61h68v-127c-61.333 -45.333 -138.666 -68 -231.999 -68z" />
    <glyph glyph-name="cdotaccent" unicode="&#x10b;" horiz-adv-x="508" 
d="M301 -8c-88.667 0 -157.667 23.332 -207 69.999s-74 113.334 -74 200.001c0 84 26.833 150.5 80.5 199.5s124.167 73.5 211.5 73.5c66 0 121.667 -12.333 167 -37v-123h-65c-24.667 22 -56 33 -94 33c-36 0 -64.5 -12.5 -85.5 -37.5s-31.5 -61.833 -31.5 -110.5
c0 -96 37.667 -144 113 -144c41.333 0 76.333 12.333 105 37h60v-113c-49.333 -32 -109.333 -48 -180 -48zM285 558.999c-26.667 0 -48.834 7.83301 -66.501 23.5s-26.5 35.834 -26.5 60.501s8.83301 45 26.5 61s39.834 24 66.501 24s48.834 -8 66.501 -24
s26.5 -36.333 26.5 -61s-8.83301 -44.834 -26.5 -60.501s-39.834 -23.5 -66.501 -23.5z" />
    <glyph glyph-name="Ccaron" unicode="&#x10c;" horiz-adv-x="635" 
d="M371 -9c-106 0 -189.833 31.1699 -251.5 93.5029s-92.5 149.5 -92.5 261.5c0 113.333 32.667 202.166 98 266.499s152.666 96.5 261.999 96.5c82 0 152 -16.667 210 -50v-133h-74c-33.333 30.667 -77 46 -131 46s-95.667 -18.333 -125 -55s-44 -91.334 -44 -164.001
c0 -78.667 13.333 -136.334 40 -173.001s66.667 -55 120 -55c59.333 0 110 20.333 152 61h68v-127c-61.333 -45.333 -138.666 -68 -231.999 -68zM512 861.003v-38l-92 -100h-121l-88 100v38h97l56 -38l55 38h93z" />
    <glyph glyph-name="ccaron" unicode="&#x10d;" horiz-adv-x="508" 
d="M435 703v-38l-92 -104h-121l-88 104v38h97l56 -42l55 42h93zM301 -8c-88.667 0 -157.667 23.332 -207 69.999s-74 113.334 -74 200.001c0 84 26.833 150.5 80.5 199.5s124.167 73.5 211.5 73.5c66 0 121.667 -12.333 167 -37v-123h-65c-24.667 22 -56 33 -94 33
c-36 0 -64.5 -12.5 -85.5 -37.5s-31.5 -61.833 -31.5 -110.5c0 -96 37.667 -144 113 -144c41.333 0 76.333 12.333 105 37h60v-113c-49.333 -32 -109.333 -48 -180 -48z" />
    <glyph glyph-name="Dcaron" unicode="&#x10e;" horiz-adv-x="701" 
d="M470 861v-38l-92 -100h-121l-88 100v38h97l56 -38l55 38h93zM56 0v700h248c247.333 0 371 -115.333 371 -346c0 -236 -125.667 -354 -377 -354h-242zM248 129h47c63.333 0 109.833 17 139.5 51s44.5 90.333 44.5 169s-14.5 134.667 -43.5 168s-75.833 50 -140.5 50h-47
v-438z" />
    <glyph glyph-name="dcaron" unicode="&#x10f;" horiz-adv-x="607" 
d="M559 606l-0.00195312 -606h-127c-12.667 -0 -22.667 3.83301 -30 11.5s-13 22.167 -17 43.5c-39.333 -42.667 -90 -64 -152 -64c-62.667 0 -113.334 22.5 -152.001 67.5s-58 110.833 -58 197.5c0 50 6.33301 93.667 19 131s29.834 66.333 51.501 87s44.834 36 69.501 46
s51 15 79 15c56.667 0 102.334 -16.667 137.001 -50v215h114c28 0 46 -5.83301 54 -17.5s12 -37.167 12 -76.5zM295.998 110c29.333 0 57 10.666 83 31.999v241c-19.333 12 -43 18 -71 18c-68.667 0 -103 -47 -103 -141c0 -53.333 7.5 -91.666 22.5 -114.999
s37.833 -35 68.5 -35zM589.998 560.999v139h139v-43l-58 -96h-81z" />
    <glyph glyph-name="Dcroat" unicode="&#x110;" horiz-adv-x="705" 
d="M5 287v124h55v289h248c247.333 0 371 -115.333 371 -346c0 -236 -125.667 -354 -377 -354h-242v287h-55zM252 129h47c63.333 0 109.833 17 139.5 51s44.5 90.333 44.5 169s-14.5 134.667 -43.5 168s-75.833 50 -140.5 50h-47v-156h126v-124h-126v-158z" />
    <glyph glyph-name="dcroat" unicode="&#x111;" horiz-adv-x="607" 
d="M253 559l-0.00292969 89.999h126v51h114c26 0 43.333 -3.66699 52 -11s13.334 -20.666 14.001 -39.999h49v-90h-49v-559h-127c-12.667 -0 -22.667 3.83301 -30 11.5s-13 22.167 -17 43.5c-39.333 -42.667 -90 -64 -152 -64c-62.667 0 -113.334 22.5 -152.001 67.5
s-58 110.833 -58 197.5c0 50 6.33301 93.667 19 131s29.834 66.333 51.501 87s44.834 36 69.501 46s51 15 79 15c56.667 0 102.334 -16.667 137.001 -50v74h-126zM295.997 109.999c29.333 0 57 10.666 83 31.999v241c-19.333 12 -43 18 -71 18c-68.667 0 -103 -47 -103 -141
c0 -53.333 7.5 -91.666 22.5 -114.999s37.833 -35 68.5 -35z" />
    <glyph glyph-name="Emacron" unicode="&#x112;" horiz-adv-x="581" 
d="M447 842v-109h-276v109h276zM56 0v700h482v-134h-291v-149h205v-126h-205v-161h301v-130h-492z" />
    <glyph glyph-name="emacron" unicode="&#x113;" horiz-adv-x="557" 
d="M535 224h-333.001c4 -42.667 16 -72 36 -88s49.333 -24 88 -24c52.667 0 97.334 13 134.001 39h56v-107c-61.333 -34.667 -134 -52 -218 -52c-90 0 -158.833 23.667 -206.5 71s-71.5 113 -71.5 197s24.833 150.833 74.5 200.5s114.5 74.5 194.5 74.5
c165.333 0 248 -88.333 248 -265c0 -8 -0.333008 -17.5 -1 -28.5s-1 -16.833 -1 -17.5zM418.999 687v-108h-270v108h270zM288.999 425c-49.333 0 -78 -35.667 -86 -107h164c-1.33301 39.333 -8.33301 67 -21 83s-31.667 24 -57 24z" />
    <glyph glyph-name="Ebreve" unicode="&#x114;" horiz-adv-x="581" 
d="M309 723c-40 0 -72.668 9.33203 -98.001 27.999s-41 42.334 -47 71.001v39h103c2.66699 -20.667 16.667 -31 42 -31c24 0 38 10.333 42 31h103v-39c-6.66699 -28 -22.667 -51.5 -48 -70.5s-57.666 -28.5 -96.999 -28.5zM55.999 -0.000976562v700h482v-134h-291v-149h205
v-126h-205v-161h301v-130h-492z" />
    <glyph glyph-name="ebreve" unicode="&#x115;" horiz-adv-x="557" 
d="M535 224h-333.001c4 -42.667 16 -72 36 -88s49.333 -24 88 -24c52.667 0 97.334 13 134.001 39h56v-107c-61.333 -34.667 -134 -52 -218 -52c-90 0 -158.833 23.667 -206.5 71s-71.5 113 -71.5 197s24.833 150.833 74.5 200.5s114.5 74.5 194.5 74.5
c165.333 0 248 -88.333 248 -265c0 -8 -0.333008 -17.5 -1 -28.5s-1 -16.833 -1 -17.5zM283.999 561c-40 0 -72.5 10 -97.5 30s-40.833 45.333 -47.5 76v40h103c2 -25.333 16 -38 42 -38c24.667 0 38.667 12.667 42 38h103v-40c-6.66699 -30.667 -22.5 -56 -47.5 -76
s-57.5 -30 -97.5 -30zM288.999 425c-49.333 0 -78 -35.667 -86 -107h164c-1.33301 39.333 -8.33301 67 -21 83s-31.667 24 -57 24z" />
    <glyph glyph-name="Edotaccent" unicode="&#x116;" horiz-adv-x="581" 
d="M309 723c-26.667 0 -48.834 7.83301 -66.501 23.5s-26.5 35.834 -26.5 60.501s8.83301 45 26.5 61s39.834 24 66.501 24s48.834 -8 66.501 -24s26.5 -36.333 26.5 -61s-8.83301 -44.834 -26.5 -60.501s-39.834 -23.5 -66.501 -23.5zM56 0v700h482v-134h-291v-149h205
v-126h-205v-161h301v-130h-492z" />
    <glyph glyph-name="edotaccent" unicode="&#x117;" horiz-adv-x="557" 
d="M535 224h-333.001c4 -42.667 16 -72 36 -88s49.333 -24 88 -24c52.667 0 97.334 13 134.001 39h56v-107c-61.333 -34.667 -134 -52 -218 -52c-90 0 -158.833 23.667 -206.5 71s-71.5 113 -71.5 197s24.833 150.833 74.5 200.5s114.5 74.5 194.5 74.5
c165.333 0 248 -88.333 248 -265c0 -8 -0.333008 -17.5 -1 -28.5s-1 -16.833 -1 -17.5zM283.999 559c-26.667 0 -48.834 7.83301 -66.501 23.5s-26.5 35.834 -26.5 60.501s8.83301 45 26.5 61s39.834 24 66.501 24s48.834 -8 66.501 -24s26.5 -36.333 26.5 -61
s-8.83301 -44.834 -26.5 -60.501s-39.834 -23.5 -66.501 -23.5zM288.999 425c-49.333 0 -78 -35.667 -86 -107h164c-1.33301 39.333 -8.33301 67 -21 83s-31.667 24 -57 24z" />
    <glyph glyph-name="Eogonek" unicode="&#x118;" horiz-adv-x="581" 
d="M56 0v700h482v-134h-291v-149h205v-126h-205v-161h301v-130h-43c-22.667 -19.333 -34 -36 -34 -50c0 -16 12.333 -24 37 -24h18v-76c-19.333 -11.333 -46 -17 -80 -17c-36 0 -63.5 6.83301 -82.5 20.5s-28.5 32.5 -28.5 56.5c0 36 22.667 66 68 90h-347z" />
    <glyph glyph-name="eogonek" unicode="&#x119;" horiz-adv-x="557" 
d="M454 1c-21.333 -18 -32 -35 -32 -51s12.333 -24 37 -24h18v-76c-19.333 -11.333 -46 -17 -80 -17c-36 0 -63.667 6.83301 -83 20.5s-29 32.834 -29 57.501c0 32 20 60 60 84c-12.667 -2 -28.334 -3 -47.001 -3c-90 0 -158.833 23.667 -206.5 71s-71.5 113 -71.5 197
s24.833 150.833 74.5 200.5s114.5 74.5 194.5 74.5c165.333 0 248 -88.333 248 -265c0 -8 -0.333008 -17.5 -1 -28.5s-1 -16.833 -1 -17.5h-332c4 -42 16 -71.167 36 -87.5s49 -24.5 87 -24.5c52.667 0 97.334 13 134.001 39h56v-107l-32 -21.5
c-14.667 -9.66699 -24.667 -16.834 -30 -21.501zM289 425c-23.333 0 -42.332 -7.83301 -56.999 -23.5s-24.334 -43.5 -29.001 -83.5h164c-1.33301 39.333 -8.33301 67 -21 83s-31.667 24 -57 24z" />
    <glyph glyph-name="Ecaron" unicode="&#x11a;" horiz-adv-x="581" 
d="M459 861v-38l-92 -100h-121l-88 100v38h97l56 -38l55 38h93zM56 0v700h482v-134h-291v-149h205v-126h-205v-161h301v-130h-492z" />
    <glyph glyph-name="ecaron" unicode="&#x11b;" horiz-adv-x="557" 
d="M535 224h-333.001c4 -42.667 16 -72 36 -88s49.333 -24 88 -24c52.667 0 97.334 13 134.001 39h56v-107c-61.333 -34.667 -134 -52 -218 -52c-90 0 -158.833 23.667 -206.5 71s-71.5 113 -71.5 197s24.833 150.833 74.5 200.5s114.5 74.5 194.5 74.5
c165.333 0 248 -88.333 248 -265c0 -8 -0.333008 -17.5 -1 -28.5s-1 -16.833 -1 -17.5zM434.999 703v-38l-92 -104h-121l-88 104v38h97l56 -42l55 42h93zM288.999 425c-49.333 0 -78 -35.667 -86 -107h164c-1.33301 39.333 -8.33301 67 -21 83s-31.667 24 -57 24z" />
    <glyph glyph-name="Gcircumflex" unicode="&#x11c;" horiz-adv-x="681" 
d="M371 -9c-113.333 0 -199.166 30.501 -257.499 91.501s-87.5 148.833 -87.5 263.5c0 116 32.167 205.5 96.5 268.5s154.5 94.5 270.5 94.5c77.333 0 147.333 -14.667 210 -44v-138h-71c-38 29.333 -83.667 44 -137 44c-56.667 0 -99.334 -17.333 -128.001 -52
s-43 -91.334 -43 -170.001c0 -80.667 11.833 -139.167 35.5 -175.5s60.5 -54.5 110.5 -54.5c31.333 0 58 3.33301 80 10v128h-83v116h265v-329c-71.333 -35.333 -158.333 -53 -261 -53zM211 723.001v38l91 100h121l89 -100v-38h-97l-56 38l-55 -38h-93z" />
    <glyph glyph-name="gcircumflex" unicode="&#x11d;" horiz-adv-x="607" 
d="M559 527l0.000976562 -486.998c0 -68.667 -25.5 -120.834 -76.5 -156.501s-122.5 -53.5 -214.5 -53.5c-90 0 -162.667 13.333 -218 40v122h56c37.333 -24.667 83.666 -37 138.999 -37c46 0 79.833 7.16699 101.5 21.5s32.5 37.166 32.5 68.499v26
c-36.667 -30 -83.667 -45 -141 -45c-64 0 -115.833 19.667 -155.5 59s-59.5 101 -59.5 185c0 91.333 21.833 158.333 65.5 201s97.167 64 160.5 64c58.667 0 107 -19.667 145 -59c12 34 34.667 51 68 51h97zM300.001 140.002c26.667 0 53 9 79 27v214
c-20.667 13.333 -45 20 -73 20c-30.667 0 -55.167 -9 -73.5 -27s-27.5 -51 -27.5 -99c0 -52 7.5 -87.5 22.5 -106.5s39.167 -28.5 72.5 -28.5zM148.001 561.002v38l91 104h121l89 -104v-38h-97l-56 42l-55 -42h-93z" />
    <glyph glyph-name="Gbreve" unicode="&#x11e;" horiz-adv-x="681" 
d="M362 723c-40 0 -72.668 9.33203 -98.001 27.999s-41 42.334 -47 71.001v39h103c2.66699 -20.667 16.667 -31 42 -31c24 0 38 10.333 42 31h103v-39c-6.66699 -28 -22.667 -51.5 -48 -70.5s-57.666 -28.5 -96.999 -28.5zM370.999 -9.00098
c-113.333 0 -199.166 30.501 -257.499 91.501s-87.5 148.833 -87.5 263.5c0 116 32.167 205.5 96.5 268.5s154.5 94.5 270.5 94.5c77.333 0 147.333 -14.667 210 -44v-138h-71c-38 29.333 -83.667 44 -137 44c-56.667 0 -99.334 -17.333 -128.001 -52
s-43 -91.334 -43 -170.001c0 -80.667 11.833 -139.167 35.5 -175.5s60.5 -54.5 110.5 -54.5c31.333 0 58 3.33301 80 10v128h-83v116h265v-329c-71.333 -35.333 -158.333 -53 -261 -53z" />
    <glyph glyph-name="gbreve" unicode="&#x11f;" horiz-adv-x="607" 
d="M559 527l0.000976562 -486.998c0 -68.667 -25.5 -120.834 -76.5 -156.501s-122.5 -53.5 -214.5 -53.5c-90 0 -162.667 13.333 -218 40v122h56c37.333 -24.667 83.666 -37 138.999 -37c46 0 79.833 7.16699 101.5 21.5s32.5 37.166 32.5 68.499v26
c-36.667 -30 -83.667 -45 -141 -45c-64 0 -115.833 19.667 -155.5 59s-59.5 101 -59.5 185c0 91.333 21.833 158.333 65.5 201s97.167 64 160.5 64c58.667 0 107 -19.667 145 -59c12 34 34.667 51 68 51h97zM300.001 140.002c26.667 0 53 9 79 27v214
c-20.667 13.333 -45 20 -73 20c-30.667 0 -55.167 -9 -73.5 -27s-27.5 -51 -27.5 -99c0 -52 7.5 -87.5 22.5 -106.5s39.167 -28.5 72.5 -28.5zM298.001 561.002c-40 0 -72.5 10 -97.5 30s-40.833 45.333 -47.5 76v40h103c2 -25.333 16 -38 42 -38
c24.667 0 38.667 12.667 42 38h103v-40c-6.66699 -30.667 -22.5 -56 -47.5 -76s-57.5 -30 -97.5 -30z" />
    <glyph glyph-name="Gdotaccent" unicode="&#x120;" horiz-adv-x="681" 
d="M362 723c-26.667 0 -48.834 7.83301 -66.501 23.5s-26.5 35.834 -26.5 60.501s8.83301 45 26.5 61s39.834 24 66.501 24s48.834 -8 66.501 -24s26.5 -36.333 26.5 -61s-8.83301 -44.834 -26.5 -60.501s-39.834 -23.5 -66.501 -23.5zM371 -9
c-113.333 0 -199.166 30.501 -257.499 91.501s-87.5 148.833 -87.5 263.5c0 116 32.167 205.5 96.5 268.5s154.5 94.5 270.5 94.5c77.333 0 147.333 -14.667 210 -44v-138h-71c-38 29.333 -83.667 44 -137 44c-56.667 0 -99.334 -17.333 -128.001 -52
s-43 -91.334 -43 -170.001c0 -80.667 11.833 -139.167 35.5 -175.5s60.5 -54.5 110.5 -54.5c31.333 0 58 3.33301 80 10v128h-83v116h265v-329c-71.333 -35.333 -158.333 -53 -261 -53z" />
    <glyph glyph-name="gdotaccent" unicode="&#x121;" horiz-adv-x="607" 
d="M559 527l0.000976562 -486.998c0 -68.667 -25.5 -120.834 -76.5 -156.501s-122.5 -53.5 -214.5 -53.5c-90 0 -162.667 13.333 -218 40v122h56c37.333 -24.667 83.666 -37 138.999 -37c46 0 79.833 7.16699 101.5 21.5s32.5 37.166 32.5 68.499v26
c-36.667 -30 -83.667 -45 -141 -45c-64 0 -115.833 19.667 -155.5 59s-59.5 101 -59.5 185c0 91.333 21.833 158.333 65.5 201s97.167 64 160.5 64c58.667 0 107 -19.667 145 -59c12 34 34.667 51 68 51h97zM300.001 140.002c26.667 0 53 9 79 27v214
c-20.667 13.333 -45 20 -73 20c-30.667 0 -55.167 -9 -73.5 -27s-27.5 -51 -27.5 -99c0 -52 7.5 -87.5 22.5 -106.5s39.167 -28.5 72.5 -28.5zM298.001 559.002c-26.667 0 -48.834 7.83301 -66.501 23.5s-26.5 35.834 -26.5 60.501s8.83301 45 26.5 61s39.834 24 66.501 24
s48.834 -8 66.501 -24s26.5 -36.333 26.5 -61s-8.83301 -44.834 -26.5 -60.501s-39.834 -23.5 -66.501 -23.5z" />
    <glyph glyph-name="Gcommaaccent" unicode="&#x122;" horiz-adv-x="681" 
d="M289 -228v62c30.667 2.66699 46 10.667 46 24c0 3.33301 -1 6 -3 8s-5.33301 4.16699 -10 6.5s-7.66699 4.16602 -9 5.49902c-16.667 10 -25 25.667 -25 47c0 16.667 6.66699 30.334 20 41.001s30.333 16 51 16c22.667 0 41.167 -6.83301 55.5 -20.5
s21.5 -33.5 21.5 -59.5c0 -80.667 -49 -124 -147 -130zM371 -9c-113.333 0 -199.166 30.501 -257.499 91.501s-87.5 148.833 -87.5 263.5c0 116 32.167 205.5 96.5 268.5s154.5 94.5 270.5 94.5c77.333 0 147.333 -14.667 210 -44v-138h-71c-38 29.333 -83.667 44 -137 44
c-56.667 0 -99.334 -17.333 -128.001 -52s-43 -91.334 -43 -170.001c0 -80.667 11.833 -139.167 35.5 -175.5s60.5 -54.5 110.5 -54.5c31.333 0 58 3.33301 80 10v128h-83v116h265v-329c-71.333 -35.333 -158.333 -53 -261 -53z" />
    <glyph glyph-name="gcommaaccent" unicode="&#x123;" horiz-adv-x="607" 
d="M559 527l0.000976562 -486.998c0 -68.667 -25.5 -120.834 -76.5 -156.501s-122.5 -53.5 -214.5 -53.5c-90 0 -162.667 13.333 -218 40v122h56c37.333 -24.667 83.666 -37 138.999 -37c46 0 79.833 7.16699 101.5 21.5s32.5 37.166 32.5 68.499v26
c-36.667 -30 -83.667 -45 -141 -45c-64 0 -115.833 19.667 -155.5 59s-59.5 101 -59.5 185c0 91.333 21.833 158.333 65.5 201s97.167 64 160.5 64c58.667 0 107 -19.667 145 -59c12 34 34.667 51 68 51h97zM300.001 140.002c26.667 0 53 9 79 27v214
c-20.667 13.333 -45 20 -73 20c-30.667 0 -55.167 -9 -73.5 -27s-27.5 -51 -27.5 -99c0 -52 7.5 -87.5 22.5 -106.5s39.167 -28.5 72.5 -28.5zM370.001 774.002v-62c-30.667 -2.66699 -46 -10.667 -46 -24c0 -3.33301 1 -6 3 -8s5.33301 -4.16699 10 -6.5
s7.66699 -4.16602 9 -5.49902c16.667 -10 25 -25.667 25 -47c0 -16.667 -6.66699 -30.334 -20 -41.001s-30.333 -16 -51 -16c-22.667 0 -41.167 6.83301 -55.5 20.5s-21.5 33.5 -21.5 59.5c0 80.667 49 124 147 130z" />
    <glyph glyph-name="Hcircumflex" unicode="&#x124;" horiz-adv-x="711" 
d="M248 0h-192v700h192v-276h215v276h192v-700h-192v289h-215v-289zM204 723v38l91 100h121l89 -100v-38h-97l-56 38l-55 -38h-93z" />
    <glyph glyph-name="hcircumflex" unicode="&#x125;" horiz-adv-x="602" 
d="M228 606v-140c56 46 118 69 186 69c95.333 0 143 -49.667 143 -149v-386h-180v339c0 22 -4.66699 37.167 -14 45.5s-25.333 12.5 -48 12.5s-51.667 -5.66699 -87 -17v-380h-180v700h114c28 0 46 -5.66699 54 -17s12 -37 12 -77zM150 721v38l91 104h121l89 -104v-38h-97
l-56 42l-55 -42h-93z" />
    <glyph glyph-name="Hbar" unicode="&#x126;" horiz-adv-x="711" 
d="M1 500v108h55v92h192v-92h215v92h192v-92h55v-108h-55v-500h-192v289h-215v-289h-192v500h-55zM248 422h215v78h-215v-78z" />
    <glyph glyph-name="hbar" unicode="&#x127;" horiz-adv-x="602" 
d="M-1 559l-0.000976562 89.999h49v51h114c26 0 43.333 -3.66699 52 -11s13.334 -20.666 14.001 -39.999h126v-90h-126v-93c56 46 118 69 186 69c95.333 0 143 -49.667 143 -149v-386h-180v339c0 22 -4.66699 37.167 -14 45.5s-25.333 12.5 -48 12.5
s-51.667 -5.66699 -87 -17v-380h-180v559h-49z" />
    <glyph glyph-name="Imacron" unicode="&#x12a;" horiz-adv-x="311" 
d="M252 0h-193v700h193v-700zM293 842v-109h-276v109h276z" />
    <glyph glyph-name="imacron" unicode="&#x12b;" horiz-adv-x="278" 
d="M228 0h-179.001v527h116c26.667 0 43.834 -6.33301 51.501 -19s11.5 -40 11.5 -82v-426zM266.999 687v-108h-257v108h257z" />
    <glyph glyph-name="Iogonek" unicode="&#x12e;" horiz-adv-x="311" 
d="M174 -167c-36 0 -63.5 6.83301 -82.5 20.5s-28.5 32.5 -28.5 56.5c0 36 22.667 66 68 90h-72v700h193v-700h-19c-22.667 -19.333 -34 -36 -34 -50c0 -16 12.333 -24 37 -24h18v-76c-19.333 -11.333 -46 -17 -80 -17z" />
    <glyph glyph-name="iogonek" unicode="&#x12f;" horiz-adv-x="278" 
d="M154 -167c-36 0 -63.501 6.83301 -82.501 20.5s-28.5 32.5 -28.5 56.5c0 36 22.667 66 68 90h-62v527h116c26.667 0 43.834 -6.33301 51.501 -19s11.5 -40 11.5 -82v-426h-15c-22.667 -19.333 -34 -36 -34 -50c0 -16 12.333 -24 37 -24h18v-76
c-19.333 -11.333 -46 -17 -80 -17zM138.999 559c-26.667 0 -48.8359 7.83301 -66.5029 23.5s-26.5 35.834 -26.5 60.501s8.83301 45 26.5 61s39.834 24 66.501 24s48.834 -8 66.501 -24s26.5 -36.333 26.5 -61s-8.66699 -44.834 -26 -60.501s-39.666 -23.5 -66.999 -23.5z
" />
    <glyph glyph-name="Idotaccent" unicode="&#x130;" horiz-adv-x="311" 
d="M252 0h-193v700h193v-700zM155 723c-26.667 0 -48.834 7.83301 -66.501 23.5s-26.5 35.834 -26.5 60.501s8.83301 45 26.5 61s39.834 24 66.501 24s48.834 -8 66.501 -24s26.5 -36.333 26.5 -61s-8.83301 -44.834 -26.5 -60.501s-39.834 -23.5 -66.501 -23.5z" />
    <glyph glyph-name="dotlessi" unicode="&#x131;" horiz-adv-x="278" 
d="M228 0h-179.001v527h116c26.667 0 43.834 -6.33301 51.501 -19s11.5 -40 11.5 -82v-426z" />
    <glyph glyph-name="Jcircumflex" unicode="&#x134;" horiz-adv-x="490" 
d="M187 -9c-69.333 0 -126.333 14 -171 42v129h66c23.333 -22 53.333 -33 90 -33c49.333 0 74 24 74 72v499h192v-499c0 -140 -83.667 -210 -251 -210zM188 723v38l91 100h121l89 -100v-38h-97l-56 38l-55 -38h-93z" />
    <glyph glyph-name="jcircumflex" unicode="&#x135;" horiz-adv-x="278" 
d="M-39 -156l-0.000976562 98.001h28c22 0 37.5 4.5 46.5 13.5s13.5 24.5 13.5 46.5v525h116c26.667 0 43.834 -6.5 51.501 -19.5s11.5 -40.167 11.5 -81.5v-433c0 -56.667 -14.5 -97.834 -43.5 -123.501s-72.833 -38.5 -131.5 -38.5c-34 0 -64.667 4.33301 -92 13z
M-12.001 561.001v38l91 104h121l89 -104v-38h-97l-56 42l-55 -42h-93z" />
    <glyph glyph-name="Kcommaaccent" unicode="&#x136;" horiz-adv-x="693" 
d="M56 0v700h192v-285l237 285h165v-43l-203 -234l224 -380v-43h-187l-172 291l-64 -70v-221h-192zM282 -228v62c30.667 2.66699 46 10.667 46 24c0 3.33301 -1 6 -3 8s-5.33301 4.16699 -10 6.5s-7.66699 4.16602 -9 5.49902c-16.667 10 -25 25.667 -25 47
c0 16.667 6.66699 30.334 20 41.001s30.333 16 51 16c22.667 0 41.167 -6.83301 55.5 -20.5s21.5 -33.5 21.5 -59.5c0 -80.667 -49 -124 -147 -130z" />
    <glyph glyph-name="kcommaaccent" unicode="&#x137;" horiz-adv-x="578" 
d="M228 606v-275l164 196h150v-43l-145 -165l165 -276v-43h-169l-122 205l-43 -47v-158h-180v700h114c28 0 46 -5.66699 54 -17s12 -37 12 -77zM231 -228v62c30.667 2.66699 46 10.667 46 24c0 3.33301 -1 6 -3 8s-5.33301 4.16699 -10 6.5s-7.66699 4.16602 -9 5.49902
c-16.667 10 -25 25.667 -25 47c0 16.667 6.66699 30.334 20 41.001s30.333 16 51 16c22.667 0 41.167 -6.83301 55.5 -20.5s21.5 -33.5 21.5 -59.5c0 -80.667 -49 -124 -147 -130z" />
    <glyph glyph-name="Lacute" unicode="&#x139;" horiz-adv-x="552" 
d="M96 723v33l33 102h173v-42l-101 -93h-105zM523 0h-467v700h192v-568h275v-132z" />
    <glyph glyph-name="lacute" unicode="&#x13a;" horiz-adv-x="280" 
d="M185 721h-105v33l33 109h173v-43zM230 0h-180v700h114c28 0 46 -5.66699 54 -17s12 -37 12 -77v-606z" />
    <glyph glyph-name="Lcommaaccent" unicode="&#x13b;" horiz-adv-x="552" 
d="M221 -228v62c30.667 2.66699 46 10.667 46 24c0 3.33301 -1 6 -3 8s-5.33301 4.16699 -10 6.5s-7.66699 4.16602 -9 5.49902c-16.667 10 -25 25.667 -25 47c0 16.667 6.66699 30.334 20 41.001s30.333 16 51 16c22.667 0 41.167 -6.83301 55.5 -20.5
s21.5 -33.5 21.5 -59.5c0 -80.667 -49 -124 -147 -130zM523 0h-467v700h192v-568h275v-132z" />
    <glyph glyph-name="lcommaaccent" unicode="&#x13c;" horiz-adv-x="280" 
d="M68 -228v62c30.667 2.66699 46 10.667 46 24c0 3.33301 -1 6 -3 8s-5.33301 4.16699 -10 6.5s-7.66699 4.16602 -9 5.49902c-16.667 10 -25 25.667 -25 47c0 16.667 6.66699 30.334 20 41.001s30.333 16 51 16c22.667 0 41.167 -6.83301 55.5 -20.5
s21.5 -33.5 21.5 -59.5c0 -80.667 -49 -124 -147 -130zM230 0h-180v700h114c28 0 46 -5.66699 54 -17s12 -37 12 -77v-606z" />
    <glyph glyph-name="Lcaron" unicode="&#x13d;" horiz-adv-x="552" 
d="M313 561v139h138v-43l-57 -96h-81zM523 0h-467v700h192v-568h275v-132z" />
    <glyph glyph-name="lcaron" unicode="&#x13e;" horiz-adv-x="280" 
d="M261 561v139h139v-43l-58 -96h-81zM230 0h-180v700h114c28 0 46 -5.66699 54 -17s12 -37 12 -77v-606z" />
    <glyph glyph-name="Lslash" unicode="&#x141;" horiz-adv-x="564" 
d="M534 0h-467v222l-61 -22v123l61 22v355h192v-283l178 66v-123l-178 -66v-162h275v-132z" />
    <glyph glyph-name="lslash" unicode="&#x142;" horiz-adv-x="297" 
d="M238 0h-179v278l-56 -29v118l56 29v304h114c27.333 0 45 -5.66699 53 -17s12 -37 12 -77v-115l59 31v-118l-59 -31v-373z" />
    <glyph glyph-name="Nacute" unicode="&#x143;" horiz-adv-x="707" 
d="M313 723v33l33 102h173v-42l-101 -93h-105zM56 0v700h205l229 -405h3v405h158v-700h-174l-261 459h-3v-459h-157z" />
    <glyph glyph-name="nacute" unicode="&#x144;" horiz-adv-x="602" 
d="M173 527c15.333 0 26.833 -4.33301 34.5 -13s13.167 -25.667 16.5 -51c58 48 121.333 72 190 72c95.333 0 143 -49.667 143 -149v-386h-180v339c0 22 -4.66699 37.167 -14 45.5s-25.333 12.5 -48 12.5s-51.667 -5.66699 -87 -17v-380h-180v527h125zM359 561h-105v33
l33 109h173v-43z" />
    <glyph glyph-name="Ncommaaccent" unicode="&#x145;" horiz-adv-x="707" 
d="M273 -228v62c30.667 2.66699 46 10.667 46 24c0 3.33301 -1 6 -3 8s-5.33301 4.16699 -10 6.5s-7.66699 4.16602 -9 5.49902c-16.667 10 -25 25.667 -25 47c0 16.667 6.66699 30.334 20 41.001s30.333 16 51 16c22.667 0 41.167 -6.83301 55.5 -20.5
s21.5 -33.5 21.5 -59.5c0 -80.667 -49 -124 -147 -130zM56 0v700h205l229 -405h3v405h158v-700h-174l-261 459h-3v-459h-157z" />
    <glyph glyph-name="ncommaaccent" unicode="&#x146;" horiz-adv-x="602" 
d="M173 527c15.333 0 26.833 -4.33301 34.5 -13s13.167 -25.667 16.5 -51c58 48 121.333 72 190 72c95.333 0 143 -49.667 143 -149v-386h-180v339c0 22 -4.66699 37.167 -14 45.5s-25.333 12.5 -48 12.5s-51.667 -5.66699 -87 -17v-380h-180v527h125zM232 -228v62
c30.667 2.66699 46 10.667 46 24c0 3.33301 -1 6 -3 8s-5.33301 4.16699 -10 6.5s-7.66699 4.16602 -9 5.49902c-16.667 10 -25 25.667 -25 47c0 16.667 6.66699 30.334 20 41.001s30.333 16 51 16c22.667 0 41.167 -6.83301 55.5 -20.5s21.5 -33.5 21.5 -59.5
c0 -80.667 -49 -124 -147 -130z" />
    <glyph glyph-name="Ncaron" unicode="&#x147;" horiz-adv-x="707" 
d="M520 861v-38l-92 -100h-121l-88 100v38h97l56 -38l55 38h93zM56 0v700h205l229 -405h3v405h158v-700h-174l-261 459h-3v-459h-157z" />
    <glyph glyph-name="ncaron" unicode="&#x148;" horiz-adv-x="602" 
d="M173 527c15.333 0 26.833 -4.33301 34.5 -13s13.167 -25.667 16.5 -51c58 48 121.333 72 190 72c95.333 0 143 -49.667 143 -149v-386h-180v339c0 22 -4.66699 37.167 -14 45.5s-25.333 12.5 -48 12.5s-51.667 -5.66699 -87 -17v-380h-180v527h125zM455 703v-38l-92 -104
h-121l-88 104v38h97l56 -42l55 42h93z" />
    <glyph glyph-name="Omacron" unicode="&#x14c;" horiz-adv-x="742" 
d="M509 842v-109h-276v109h276zM371 -9c-99.333 0 -181.667 31.833 -247 95.5s-98 151.167 -98 262.5s33 199.166 99 263.499s148 96.5 246 96.5s180.167 -32.167 246.5 -96.5s99.5 -152.166 99.5 -263.499s-32.833 -198.833 -98.5 -262.5s-148.167 -95.5 -247.5 -95.5z
M370.999 122c46 0 82.5 18.667 109.5 56s40.5 93.666 40.5 168.999c0 76 -13.5 132.833 -40.5 170.5s-63.5 56.5 -109.5 56.5s-82.5 -18.833 -109.5 -56.5s-40.5 -94.5 -40.5 -170.5c0 -75.333 13.5 -131.666 40.5 -168.999s63.5 -56 109.5 -56z" />
    <glyph glyph-name="omacron" unicode="&#x14d;" horiz-adv-x="601" 
d="M435 687v-108h-270v108h270zM301 -8c-81.333 0 -148.5 24.333 -201.5 73s-79.5 114 -79.5 196c0 82.667 26.5 149 79.5 199s120.167 75 201.5 75c80.667 0 147.5 -25 200.5 -75s79.5 -116.333 79.5 -199c0 -82 -26.333 -147.333 -79 -196s-119.667 -73 -201 -73zM301 110
c30 0 53.833 12.333 71.5 37s26.5 62 26.5 112c0 50.667 -8.83301 88.834 -26.5 114.501s-41.5 38.5 -71.5 38.5c-30.667 0 -54.834 -12.833 -72.501 -38.5s-26.5 -63.834 -26.5 -114.501c0 -50 8.83301 -87.333 26.5 -112s41.834 -37 72.501 -37z" />
    <glyph glyph-name="Ohungarumlaut" unicode="&#x150;" horiz-adv-x="742" 
d="M371 -9c-99.333 0 -181.667 31.833 -247 95.5s-98 151.167 -98 262.5s33 199.166 99 263.499s148 96.5 246 96.5s180.167 -32.167 246.5 -96.5s99.5 -152.166 99.5 -263.499s-32.833 -198.833 -98.5 -262.5s-148.167 -95.5 -247.5 -95.5zM370.999 122
c46 0 82.5 18.667 109.5 56s40.5 93.666 40.5 168.999c0 76 -13.5 132.833 -40.5 170.5s-63.5 56.5 -109.5 56.5s-82.5 -18.833 -109.5 -56.5s-40.5 -94.5 -40.5 -170.5c0 -75.333 13.5 -131.666 40.5 -168.999s63.5 -56 109.5 -56zM229.999 723v29l31 106h141v-42l-76 -93
h-96zM408.999 723v29l31 106h141v-42l-75 -93h-97z" />
    <glyph glyph-name="ohungarumlaut" unicode="&#x151;" horiz-adv-x="601" 
d="M162 561v28l32 114h138v-42l-77 -100h-93zM338 561v28l32 114h138v-42l-76 -100h-94zM301 -8c-81.333 0 -148.5 24.333 -201.5 73s-79.5 114 -79.5 196c0 82.667 26.5 149 79.5 199s120.167 75 201.5 75c80.667 0 147.5 -25 200.5 -75s79.5 -116.333 79.5 -199
c0 -82 -26.333 -147.333 -79 -196s-119.667 -73 -201 -73zM301 110c30 0 53.833 12.333 71.5 37s26.5 62 26.5 112c0 50.667 -8.83301 88.834 -26.5 114.501s-41.5 38.5 -71.5 38.5c-30.667 0 -54.834 -12.833 -72.501 -38.5s-26.5 -63.834 -26.5 -114.501
c0 -50 8.83301 -87.333 26.5 -112s41.834 -37 72.501 -37z" />
    <glyph glyph-name="OE" unicode="&#x152;" horiz-adv-x="968" 
d="M397 0c-247.333 0 -371 115.333 -371 346c0 236 125.333 354 376 354h523v-134h-285v-149h199v-126h-199v-161h295v-130h-538zM449 569h-44c-64 0 -110.667 -16.667 -140 -50s-44 -89.333 -44 -168s14.5 -135 43.5 -169s75.833 -51 140.5 -51h44v438z" />
    <glyph glyph-name="oe" unicode="&#x153;" horiz-adv-x="934" 
d="M298 -8c-80.667 0 -147.167 24.333 -199.5 73s-78.5 114 -78.5 196c0 82.667 26.167 149 78.5 199s118.5 75 198.5 75c78 0 141 -25.667 189 -77c45.333 51.333 106.666 77 183.999 77c162.667 0 244 -88.333 244 -265c0 -8 -0.333008 -17.5 -1 -28.5
s-1 -16.833 -1 -17.5h-333c4 -42.667 16 -72 36 -88s49.333 -24 88 -24c51.333 0 96 13 134 39h56v-107c-61.333 -34.667 -132.666 -52 -213.999 -52c-86 0 -151 24 -195 72c-46.667 -48 -108.667 -72 -186 -72zM301 109c30 0 53.833 12.5 71.5 37.5s26.5 62.5 26.5 112.5
c0 50.667 -8.83301 88.667 -26.5 114s-41.5 38 -71.5 38c-30.667 0 -54.834 -12.667 -72.501 -38s-26.5 -63.333 -26.5 -114c0 -50 8.83301 -87.5 26.5 -112.5s41.834 -37.5 72.501 -37.5zM666 425c-49.333 0 -78 -35.667 -86 -107h164c-1.33301 39.333 -8.33301 67 -21 83
s-31.667 24 -57 24z" />
    <glyph glyph-name="Racute" unicode="&#x154;" horiz-adv-x="658" 
d="M456 0l-135 256.999h-73v-257h-192v700h263c186.667 0 280 -71.333 280 -214c0 -85.333 -34.667 -147.666 -104 -186.999l139 -254v-45h-178zM246 569.999v-188h61c68 0 102 31.333 102 94s-34 94 -102 94h-61zM256 722.999v33l33 102h173v-42l-101 -93h-105z" />
    <glyph glyph-name="racute" unicode="&#x155;" horiz-adv-x="415" 
d="M377 383c-59.333 0 -109 -8.33301 -149 -25v-358h-180v527h125c15.333 0 27 -5 35 -15s13.333 -29 16 -57c40 50.667 88.333 76 145 76c8 0 18.667 -1.33301 32 -4v-144h-24zM290 561h-105v33l33 109h173v-43z" />
    <glyph glyph-name="Rcommaaccent" unicode="&#x156;" horiz-adv-x="658" 
d="M456 0l-135 256.999h-73v-257h-192v700h263c186.667 0 280 -71.333 280 -214c0 -85.333 -34.667 -147.666 -104 -186.999l139 -254v-45h-178zM246 569.999v-188h61c68 0 102 31.333 102 94s-34 94 -102 94h-61zM265 -228.001v62c30.667 2.66699 46 10.667 46 24
c0 3.33301 -1 6 -3 8s-5.33301 4.16699 -10 6.5s-7.66699 4.16602 -9 5.49902c-16.667 10 -25 25.667 -25 47c0 16.667 6.66699 30.334 20 41.001s30.333 16 51 16c22.667 0 41.167 -6.83301 55.5 -20.5s21.5 -33.5 21.5 -59.5c0 -80.667 -49 -124 -147 -130z" />
    <glyph glyph-name="rcommaaccent" unicode="&#x157;" horiz-adv-x="411" 
d="M377 383c-59.333 0 -109 -8.33301 -149 -25v-358h-180v527h125c15.333 0 27 -5 35 -15s13.333 -29 16 -57c40 50.667 88.333 76 145 76c8 0 18.667 -1.33301 32 -4v-144h-24zM62 -228v62c30.667 2.66699 46 10.667 46 24c0 3.33301 -1 6 -3 8s-5.33301 4.16699 -10 6.5
s-7.66699 4.16602 -9 5.49902c-16.667 10 -25 25.667 -25 47c0 16.667 6.66699 30.334 20 41.001s30.333 16 51 16c22.667 0 41.167 -6.83301 55.5 -20.5s21.5 -33.5 21.5 -59.5c0 -80.667 -49 -124 -147 -130z" />
    <glyph glyph-name="Rcaron" unicode="&#x158;" horiz-adv-x="658" 
d="M456 0l-135 256.999h-73v-257h-192v700h263c186.667 0 280 -71.333 280 -214c0 -85.333 -34.667 -147.666 -104 -186.999l139 -254v-45h-178zM464 860.999v-38l-92 -100h-121l-88 100v38h97l56 -38l55 38h93zM246 569.999v-188h61c68 0 102 31.333 102 94s-34 94 -102 94
h-61z" />
    <glyph glyph-name="rcaron" unicode="&#x159;" horiz-adv-x="411" 
d="M377 383c-59.333 0 -109 -8.33301 -149 -25v-358h-180v527h125c15.333 0 27 -5 35 -15s13.333 -29 16 -57c40 50.667 88.333 76 145 76c8 0 18.667 -1.33301 32 -4v-144h-24zM387 703v-38l-92 -104h-121l-88 104v38h97l56 -42l55 42h93z" />
    <glyph glyph-name="Sacute" unicode="&#x15a;" horiz-adv-x="554" 
d="M253 -9c-90 0 -166.329 18.6689 -228.996 56.002v133h71c34.667 -37.333 85 -56 151 -56c72.667 0 109 23 109 69c0 8.66699 -0.833008 16.167 -2.5 22.5s-5.33398 12.166 -11.001 17.499s-10.334 9.5 -14.001 12.5s-10.834 6.5 -21.501 10.5s-18.5 6.66699 -23.5 8
l-30 8c-15 4 -25.5 6.66699 -31.5 8c-68 17.333 -117.667 41.833 -149 73.5s-47 79.167 -47 142.5c0 69.333 23.833 122.166 71.5 158.499s111.5 54.5 191.5 54.5c84.667 0 154 -15.667 208 -47v-129h-69c-38 28.667 -82 43 -132 43c-68 0 -102 -21.667 -102 -65
c0 -21.333 8.5 -37 25.5 -47s46.833 -20 89.5 -30c83.333 -19.333 141.5 -45 174.5 -77s49.5 -80.333 49.5 -145c0 -70.667 -23.833 -125.167 -71.5 -163.5s-116.834 -57.5 -207.501 -57.5zM224.004 723.002v33l33 102h173v-42l-101 -93h-105z" />
    <glyph glyph-name="sacute" unicode="&#x15b;" horiz-adv-x="469" 
d="M292 561h-105v33l33 109h173v-43zM215 -7c-72 0 -135.333 14.001 -190 42.001v118h61c28.667 -26 69.334 -39 122.001 -39c52 0 78 12.667 78 38c0 14 -6 24 -18 30s-36.333 11.667 -73 17c-59.333 7.33301 -103.333 23.166 -132 47.499s-43 62.833 -43 115.5
c0 56 20 98.667 60 128s94 44 162 44c68.667 0 128 -11.667 178 -35v-116h-57c-32 21.333 -70.667 32 -116 32c-46 0 -69 -12.667 -69 -38c0 -11.333 6.66699 -20 20 -26s36.666 -11 69.999 -15c64.667 -8 111.167 -23.833 139.5 -47.5s42.5 -62.5 42.5 -116.5
c0 -57.333 -19.5 -101.5 -58.5 -132.5s-97.833 -46.5 -176.5 -46.5z" />
    <glyph glyph-name="Scircumflex" unicode="&#x15c;" horiz-adv-x="554" 
d="M253 -9c-90 0 -166.329 18.6689 -228.996 56.002v133h71c34.667 -37.333 85 -56 151 -56c72.667 0 109 23 109 69c0 8.66699 -0.833008 16.167 -2.5 22.5s-5.33398 12.166 -11.001 17.499s-10.334 9.5 -14.001 12.5s-10.834 6.5 -21.501 10.5s-18.5 6.66699 -23.5 8
l-30 8c-15 4 -25.5 6.66699 -31.5 8c-68 17.333 -117.667 41.833 -149 73.5s-47 79.167 -47 142.5c0 69.333 23.833 122.166 71.5 158.499s111.5 54.5 191.5 54.5c84.667 0 154 -15.667 208 -47v-129h-69c-38 28.667 -82 43 -132 43c-68 0 -102 -21.667 -102 -65
c0 -21.333 8.5 -37 25.5 -47s46.833 -20 89.5 -30c83.333 -19.333 141.5 -45 174.5 -77s49.5 -80.333 49.5 -145c0 -70.667 -23.833 -125.167 -71.5 -163.5s-116.834 -57.5 -207.501 -57.5zM131.004 723.002v38l91 100h121l89 -100v-38h-97l-56 38l-55 -38h-93z" />
    <glyph glyph-name="scircumflex" unicode="&#x15d;" horiz-adv-x="469" 
d="M88 561v38l91 104h121l89 -104v-38h-97l-56 42l-55 -42h-93zM215 -7c-72 0 -135.333 14.001 -190 42.001v118h61c28.667 -26 69.334 -39 122.001 -39c52 0 78 12.667 78 38c0 14 -6 24 -18 30s-36.333 11.667 -73 17c-59.333 7.33301 -103.333 23.166 -132 47.499
s-43 62.833 -43 115.5c0 56 20 98.667 60 128s94 44 162 44c68.667 0 128 -11.667 178 -35v-116h-57c-32 21.333 -70.667 32 -116 32c-46 0 -69 -12.667 -69 -38c0 -11.333 6.66699 -20 20 -26s36.666 -11 69.999 -15c64.667 -8 111.167 -23.833 139.5 -47.5
s42.5 -62.5 42.5 -116.5c0 -57.333 -19.5 -101.5 -58.5 -132.5s-97.833 -46.5 -176.5 -46.5z" />
    <glyph glyph-name="Scedilla" unicode="&#x15e;" horiz-adv-x="556" 
d="M532 212c0 -64.667 -19.8311 -115.83 -59.498 -153.497s-97.5 -59.5 -173.5 -65.5v-17c54 -2.66699 81 -27 81 -73c0 -24 -9.5 -43 -28.5 -57s-46.833 -21 -83.5 -21c-31.333 0 -58.666 5.33301 -81.999 16v62h31c8.66699 -7.33301 19.667 -11 33 -11
c17.333 0 26 5.33301 26 16s-10.333 16 -31 16h-22v68c-78.667 3.33301 -145 21.666 -199 54.999v133h71c34.667 -37.333 85 -56 151 -56c72.667 0 109 23 109 69c0 8.66699 -0.833008 16.167 -2.5 22.5s-5.33398 12.166 -11.001 17.499s-10.334 9.5 -14.001 12.5
s-10.834 6.5 -21.501 10.5s-18.5 6.66699 -23.5 8l-30 8c-15 4 -25.5 6.66699 -31.5 8c-68 17.333 -117.667 41.833 -149 73.5s-47 79.167 -47 142.5c0 69.333 23.833 122.166 71.5 158.499s111.5 54.5 191.5 54.5c84.667 0 154 -15.667 208 -47v-129h-69
c-38 28.667 -82 43 -132 43c-68 0 -102 -21.667 -102 -65c0 -21.333 8.5 -37 25.5 -47s46.833 -20 89.5 -30c83.333 -19.333 141.5 -45 174.5 -77s49.5 -80.333 49.5 -145z" />
    <glyph glyph-name="scedilla" unicode="&#x15f;" horiz-adv-x="469" 
d="M450 172c0 -106 -62.334 -165 -187.001 -177v-19c54 -2.66699 81 -27 81 -73c0 -24 -9.5 -43 -28.5 -57s-46.833 -21 -83.5 -21c-31.333 0 -58.666 5.33301 -81.999 16v62h31c8.66699 -7.33301 19.667 -11 33 -11c17.333 0 26 5.33301 26 16s-10.333 16 -31 16h-22v70
c-60.667 2.66699 -114.667 16.334 -162 41.001v118h61c28.667 -26 69.334 -39 122.001 -39c52 0 78 12.667 78 38c0 14 -6 24 -18 30s-36.333 11.667 -73 17c-59.333 7.33301 -103.333 23.166 -132 47.499s-43 62.833 -43 115.5c0 56 20 98.667 60 128s94 44 162 44
c68.667 0 128 -11.667 178 -35v-116h-57c-32 21.333 -70.667 32 -116 32c-46 0 -69 -12.667 -69 -38c0 -11.333 6.66699 -20 20 -26s36.666 -11 69.999 -15c64.667 -8 111.167 -23.833 139.5 -47.5s42.5 -62.5 42.5 -116.5z" />
    <glyph glyph-name="Scaron" unicode="&#x160;" horiz-adv-x="547" 
d="M251 -9c-90 0 -166.329 18.6689 -228.996 56.002v133h71c34.667 -37.333 85 -56 151 -56c72.667 0 109 23 109 69c0 8.66699 -0.833008 16.167 -2.5 22.5s-5.33398 12.166 -11.001 17.499s-10.334 9.5 -14.001 12.5s-10.834 6.5 -21.501 10.5s-18.5 6.66699 -23.5 8
l-30 8c-15 4 -25.5 6.66699 -31.5 8c-68 17.333 -117.667 41.833 -149 73.5s-47 79.167 -47 142.5c0 69.333 23.833 122.166 71.5 158.499s111.5 54.5 191.5 54.5c84.667 0 154 -15.667 208 -47v-129h-69c-38 28.667 -82 43 -132 43c-68 0 -102 -21.667 -102 -65
c0 -21.333 8.5 -37 25.5 -47s46.833 -20 89.5 -30c83.333 -19.333 141.5 -45 174.5 -77s49.5 -80.333 49.5 -145c0 -70.667 -23.833 -125.167 -71.5 -163.5s-116.834 -57.5 -207.501 -57.5zM427.004 861.002v-38l-92 -100h-121l-88 100v38h97l56 -38l55 38h93z" />
    <glyph glyph-name="scaron" unicode="&#x161;" horiz-adv-x="469" 
d="M389 703v-38l-92 -104h-121l-88 104v38h97l56 -42l55 42h93zM215 -7c-72 0 -135.333 14.001 -190 42.001v118h61c28.667 -26 69.334 -39 122.001 -39c52 0 78 12.667 78 38c0 14 -6 24 -18 30s-36.333 11.667 -73 17c-59.333 7.33301 -103.333 23.166 -132 47.499
s-43 62.833 -43 115.5c0 56 20 98.667 60 128s94 44 162 44c68.667 0 128 -11.667 178 -35v-116h-57c-32 21.333 -70.667 32 -116 32c-46 0 -69 -12.667 -69 -38c0 -11.333 6.66699 -20 20 -26s36.666 -11 69.999 -15c64.667 -8 111.167 -23.833 139.5 -47.5
s42.5 -62.5 42.5 -116.5c0 -57.333 -19.5 -101.5 -58.5 -132.5s-97.833 -46.5 -176.5 -46.5z" />
    <glyph glyph-name="Tcommaaccent" unicode="&#x162;" horiz-adv-x="603" 
d="M228 -228v62c30.667 2.66699 46 10.667 46 24c0 3.33301 -1 6 -3 8s-5.33301 4.16699 -10 6.5s-7.66699 4.16602 -9 5.49902c-16.667 10 -25 25.667 -25 47c0 16.667 6.66699 30.334 20 41.001s30.333 16 51 16c22.667 0 41.167 -6.83301 55.5 -20.5
s21.5 -33.5 21.5 -59.5c0 -80.667 -49 -124 -147 -130zM397 0h-192v567h-180v133h553v-133h-181v-567z" />
    <glyph glyph-name="tcommaaccent" unicode="&#x163;" horiz-adv-x="368" 
d="M132 -228v62c30.667 2.66699 46 10.667 46 24c0 3.33301 -1 6 -3 8s-5.33301 4.16699 -10 6.5s-7.66699 4.16602 -9 5.49902c-16.667 10 -25 25.667 -25 47c0 16.667 6.66699 30.334 20 41.001s30.333 16 51 16c22.667 0 41.167 -6.83301 55.5 -20.5
s21.5 -33.5 21.5 -59.5c0 -80.667 -49 -124 -147 -130zM12 411l-0.000976562 115.999h57v134h180v-134h98v-116h-98v-240c0 -23.333 4.83301 -39.5 14.5 -48.5s26.5 -13.5 50.5 -13.5h35v-104c-32 -9.33301 -66.333 -14 -103 -14c-57.333 0 -101.166 11.833 -131.499 35.5
s-45.5 62.834 -45.5 117.501v267h-57z" />
    <glyph glyph-name="Tcaron" unicode="&#x164;" horiz-adv-x="603" 
d="M452 861v-38l-92 -100h-121l-88 100v38h97l56 -38l55 38h93zM397 0h-192v567h-180v133h553v-133h-181v-567z" />
    <glyph glyph-name="tcaron" unicode="&#x165;" horiz-adv-x="368" 
d="M366 561h-81v139h139v-43zM12 411l-0.000976562 115.999h57v134h180v-134h98v-116h-98v-240c0 -23.333 4.83301 -39.5 14.5 -48.5s26.5 -13.5 50.5 -13.5h35v-104c-32 -9.33301 -66.333 -14 -103 -14c-57.333 0 -101.166 11.833 -131.499 35.5
s-45.5 62.834 -45.5 117.501v267h-57z" />
    <glyph glyph-name="Umacron" unicode="&#x16a;" horiz-adv-x="693" 
d="M499 842v-109h-276v109h276zM366 131c39.333 0 68.167 10 86.5 30s27.5 55.333 27.5 106v433h159v-434c0 -182.667 -95 -274 -285 -274c-98.667 0 -173.5 23.5 -224.5 70.5s-76.5 114.833 -76.5 203.5v434h192v-433c0 -50.667 9.83301 -86 29.5 -106s50.167 -30 91.5 -30
z" />
    <glyph glyph-name="umacron" unicode="&#x16b;" horiz-adv-x="610" 
d="M297 124c20.667 0 47.998 5.66602 81.998 16.999v386h179v-527h-125c-15.333 0 -26.666 3.83301 -33.999 11.5s-12.666 23.5 -15.999 47.5c-58 -44.667 -118 -67 -180 -67c-102.667 0 -154 50.333 -154 151v384h180v-343c0 -23.333 5.5 -39.166 16.5 -47.499
s28.167 -12.5 51.5 -12.5zM439.998 686.999v-108h-270v108h270z" />
    <glyph glyph-name="Ubreve" unicode="&#x16c;" horiz-adv-x="693" 
d="M361 723c-40 0 -72.668 9.33203 -98.001 27.999s-41 42.334 -47 71.001v39h103c2.66699 -20.667 16.667 -31 42 -31c24 0 38 10.333 42 31h103v-39c-6.66699 -28 -22.667 -51.5 -48 -70.5s-57.666 -28.5 -96.999 -28.5zM365.999 130.999c39.333 0 68.167 10 86.5 30
s27.5 55.333 27.5 106v433h159v-434c0 -182.667 -95 -274 -285 -274c-98.667 0 -173.5 23.5 -224.5 70.5s-76.5 114.833 -76.5 203.5v434h192v-433c0 -50.667 9.83301 -86 29.5 -106s50.167 -30 91.5 -30z" />
    <glyph glyph-name="ubreve" unicode="&#x16d;" horiz-adv-x="610" 
d="M297 124c20.667 0 47.998 5.66602 81.998 16.999v386h179v-527h-125c-15.333 0 -26.666 3.83301 -33.999 11.5s-12.666 23.5 -15.999 47.5c-58 -44.667 -118 -67 -180 -67c-102.667 0 -154 50.333 -154 151v384h180v-343c0 -23.333 5.5 -39.166 16.5 -47.499
s28.167 -12.5 51.5 -12.5zM304.998 560.999c-40 0 -72.5 10 -97.5 30s-40.833 45.333 -47.5 76v40h103c2 -25.333 16 -38 42 -38c24.667 0 38.667 12.667 42 38h103v-40c-6.66699 -30.667 -22.5 -56 -47.5 -76s-57.5 -30 -97.5 -30z" />
    <glyph glyph-name="Uring" unicode="&#x16e;" horiz-adv-x="693" 
d="M369 131c39.333 0 68.167 10 86.5 30s27.5 55.333 27.5 106v433h159v-434c0 -182.667 -95 -274 -285 -274c-98.667 0 -173.5 23.5 -224.5 70.5s-76.5 114.833 -76.5 203.5v434h192v-433c0 -50.667 9.83301 -86 29.5 -106s50.167 -30 91.5 -30zM366.001 696
c-30 0 -55.333 9.33301 -76 28s-31 43.334 -31 74.001c0 30 10.333 54.5 31 73.5s46 28.5 76 28.5s55.333 -9.5 76 -28.5s31 -43.5 31 -73.5c0 -30.667 -10.333 -55.334 -31 -74.001s-46 -28 -76 -28zM366.001 762c10 0 18.167 3.33301 24.5 10s9.5 15.334 9.5 26.001
s-3.16699 19.334 -9.5 26.001s-14.5 10 -24.5 10s-18 -3.33301 -24 -10s-9 -15.334 -9 -26.001s3 -19.334 9 -26.001s14 -10 24 -10z" />
    <glyph glyph-name="uring" unicode="&#x16f;" horiz-adv-x="610" 
d="M297 124c20.667 0 47.998 5.66602 81.998 16.999v386h179v-527h-125c-15.333 0 -26.666 3.83301 -33.999 11.5s-12.666 23.5 -15.999 47.5c-58 -44.667 -118 -67 -180 -67c-102.667 0 -154 50.333 -154 151v384h180v-343c0 -23.333 5.5 -39.166 16.5 -47.499
s28.167 -12.5 51.5 -12.5zM304.998 561.999c-30 0 -55.333 9.33301 -76 28s-31 43.334 -31 74.001c0 30 10.333 54.5 31 73.5s46 28.5 76 28.5s55.333 -9.5 76 -28.5s31 -43.5 31 -73.5c0 -30.667 -10.333 -55.334 -31 -74.001s-46 -28 -76 -28zM304.998 627.999
c10 0 18.167 3.33301 24.5 10s9.5 15.334 9.5 26.001s-3.16699 19.334 -9.5 26.001s-14.5 10 -24.5 10s-18 -3.33301 -24 -10s-9 -15.334 -9 -26.001s3 -19.334 9 -26.001s14 -10 24 -10z" />
    <glyph glyph-name="Uhungarumlaut" unicode="&#x170;" horiz-adv-x="693" 
d="M366 131c39.333 0 68.167 10 86.5 30s27.5 55.333 27.5 106v433h159v-434c0 -182.667 -95 -274 -285 -274c-98.667 0 -173.5 23.5 -224.5 70.5s-76.5 114.833 -76.5 203.5v434h192v-433c0 -50.667 9.83301 -86 29.5 -106s50.167 -30 91.5 -30zM220.001 723v29l31 106h141
v-42l-76 -93h-96zM399.001 723v29l31 106h141v-42l-75 -93h-97z" />
    <glyph glyph-name="uhungarumlaut" unicode="&#x171;" horiz-adv-x="610" 
d="M297 124c20.667 0 47.998 5.66602 81.998 16.999v386h179v-527h-125c-15.333 0 -26.666 3.83301 -33.999 11.5s-12.666 23.5 -15.999 47.5c-58 -44.667 -118 -67 -180 -67c-102.667 0 -154 50.333 -154 151v384h180v-343c0 -23.333 5.5 -39.166 16.5 -47.499
s28.167 -12.5 51.5 -12.5zM342.998 560.999v28l32 114h138v-42l-76 -100h-94zM166.998 560.999v28l32 114h138v-42l-77 -100h-93z" />
    <glyph glyph-name="Uogonek" unicode="&#x172;" horiz-adv-x="693" 
d="M395 -167c-36 0 -63.4971 6.83301 -82.4971 20.5s-28.5 32.834 -28.5 57.501c0 32.667 18.333 60 55 82h-1c-90 0 -160 24 -210 72s-75 115 -75 201v434h192v-433c0 -50.667 9.83301 -86 29.5 -106s50.167 -30 91.5 -30c39.333 0 68.166 10 86.499 30
s27.5 55.333 27.5 106v433h159v-434c0 -120.667 -41 -201.334 -123 -242.001c-4.66699 -2.66699 -16.834 -8 -36.501 -16s-32.834 -15 -39.501 -21c-13.333 -12 -20 -24.333 -20 -37c0 -16 12.333 -24 37 -24h18v-76c-19.333 -11.333 -46 -17 -80 -17z" />
    <glyph glyph-name="uogonek" unicode="&#x173;" horiz-adv-x="610" 
d="M479 -167c-36 0 -63.502 6.83203 -82.502 20.499s-28.5 32.5 -28.5 56.5c0 36 22.667 66 68 90h-3c-15.333 0 -26.666 3.83301 -33.999 11.5s-12.666 23.5 -15.999 47.5c-58 -44.667 -118 -67 -180 -67c-102.667 0 -154 50.333 -154 151v384h180v-343
c0 -23.333 5.5 -39.166 16.5 -47.499s28.167 -12.5 51.5 -12.5c20.667 0 48 5.66699 82 17v386h179v-527h-20c-22.667 -19.333 -34 -36 -34 -50c0 -16 12.333 -24 37 -24h18v-76c-19.333 -11.333 -46 -17 -80 -17z" />
    <glyph glyph-name="Ydieresis" unicode="&#x178;" horiz-adv-x="637" 
d="M420 0h-192v260l-214 393v47h180l140 -273h2l135 273h152v-47l-203 -388v-265zM230 723c-24.667 0 -45 7.5 -61 22.5s-24 33.833 -24 56.5s8 41.5 24 56.5s36.333 22.5 61 22.5s44.834 -7.33301 60.501 -22s23.5 -33.667 23.5 -57s-7.83301 -42.333 -23.5 -57
s-35.834 -22 -60.501 -22zM434 723c-24.667 0 -44.834 7.33301 -60.501 22s-23.5 33.667 -23.5 57s7.83301 42.333 23.5 57s35.834 22 60.501 22s45 -7.5 61 -22.5s24 -33.833 24 -56.5s-8 -41.5 -24 -56.5s-36.333 -22.5 -61 -22.5z" />
    <glyph glyph-name="Zacute" unicode="&#x179;" horiz-adv-x="572" 
d="M18 0v139l311 424v4h-289v133h495v-144l-311 -421v-4h311v-131h-517zM236 723v33l33 102h173v-42l-101 -93h-105z" />
    <glyph glyph-name="zacute" unicode="&#x17a;" horiz-adv-x="508" 
d="M312 561h-105v33l33 109h173v-43zM25 0v121l247 282h-234v124h441v-124l-248 -281h243v-122h-449z" />
    <glyph glyph-name="Zdotaccent" unicode="&#x17b;" horiz-adv-x="572" 
d="M298 723c-26.667 0 -48.834 7.83301 -66.501 23.5s-26.5 35.834 -26.5 60.501s8.83301 45 26.5 61s39.834 24 66.501 24s48.834 -8 66.501 -24s26.5 -36.333 26.5 -61s-8.83301 -44.834 -26.5 -60.501s-39.834 -23.5 -66.501 -23.5zM18 0v139l311 424v4h-289v133h495
v-144l-311 -421v-4h311v-131h-517z" />
    <glyph glyph-name="zdotaccent" unicode="&#x17c;" horiz-adv-x="508" 
d="M25 0v121l247 282h-234v124h441v-124l-248 -281h243v-122h-449zM258 559c-26.667 0 -48.834 7.83301 -66.501 23.5s-26.5 35.834 -26.5 60.501s8.83301 45 26.5 61s39.834 24 66.501 24s48.834 -8 66.501 -24s26.5 -36.333 26.5 -61s-8.83301 -44.834 -26.5 -60.501
s-39.834 -23.5 -66.501 -23.5z" />
    <glyph glyph-name="Zcaron" unicode="&#x17d;" horiz-adv-x="572" 
d="M448 861v-38l-92 -100h-121l-88 100v38h97l56 -38l55 38h93zM18 0v139l311 424v4h-289v133h495v-144l-311 -421v-4h311v-131h-517z" />
    <glyph glyph-name="zcaron" unicode="&#x17e;" horiz-adv-x="508" 
d="M408 703v-38l-92 -104h-121l-88 104v38h97l56 -42l55 42h93zM25 0v121l247 282h-234v124h441v-124l-248 -281h243v-122h-449z" />
    <glyph glyph-name="florin" unicode="&#x192;" horiz-adv-x="401" 
d="M30 444h69.002l13 111c12 104.667 74 157 186 157c36 0 66.667 -5 92 -15v-103h-33c-20.667 0 -35.834 -3.5 -45.501 -10.5s-15.834 -19.833 -18.501 -38.5l-12 -101h83v-116h-97l-52 -428h-180l50 428h-55v116z" />
    <glyph glyph-name="Scommaaccent" unicode="&#x218;" horiz-adv-x="556" 
d="M201 -228v62c30.667 2.66699 46 10.667 46 24c0 3.33301 -1 6 -3 8s-5.33301 4.16699 -10 6.5s-7.66699 4.16602 -9 5.49902c-16.667 10 -25 25.667 -25 47c0 16.667 6.66699 30.334 20 41.001s30.333 16 51 16c22.667 0 41.167 -6.83301 55.5 -20.5
s21.5 -33.5 21.5 -59.5c0 -80.667 -49 -124 -147 -130zM253 -9c-90 0 -166.329 18.6689 -228.996 56.002v133h71c34.667 -37.333 85 -56 151 -56c72.667 0 109 23 109 69c0 8.66699 -0.833008 16.167 -2.5 22.5s-5.33398 12.166 -11.001 17.499s-10.334 9.5 -14.001 12.5
s-10.834 6.5 -21.501 10.5s-18.5 6.66699 -23.5 8l-30 8c-15 4 -25.5 6.66699 -31.5 8c-68 17.333 -117.667 41.833 -149 73.5s-47 79.167 -47 142.5c0 69.333 23.833 122.166 71.5 158.499s111.5 54.5 191.5 54.5c84.667 0 154 -15.667 208 -47v-129h-69
c-38 28.667 -82 43 -132 43c-68 0 -102 -21.667 -102 -65c0 -21.333 8.5 -37 25.5 -47s46.833 -20 89.5 -30c83.333 -19.333 141.5 -45 174.5 -77s49.5 -80.333 49.5 -145c0 -70.667 -23.833 -125.167 -71.5 -163.5s-116.834 -57.5 -207.501 -57.5z" />
    <glyph glyph-name="scommaaccent" unicode="&#x219;" horiz-adv-x="469" 
d="M165 -228v62c30.667 2.66699 46 10.667 46 24c0 3.33301 -1 6 -3 8s-5.33301 4.16699 -10 6.5s-7.66699 4.16602 -9 5.49902c-16.667 10 -25 25.667 -25 47c0 16.667 6.66699 30.334 20 41.001s30.333 16 51 16c22.667 0 41.167 -6.83301 55.5 -20.5
s21.5 -33.5 21.5 -59.5c0 -80.667 -49 -124 -147 -130zM215 -7c-72 0 -135.333 14.001 -190 42.001v118h61c28.667 -26 69.334 -39 122.001 -39c52 0 78 12.667 78 38c0 14 -6 24 -18 30s-36.333 11.667 -73 17c-59.333 7.33301 -103.333 23.166 -132 47.499
s-43 62.833 -43 115.5c0 56 20 98.667 60 128s94 44 162 44c68.667 0 128 -11.667 178 -35v-116h-57c-32 21.333 -70.667 32 -116 32c-46 0 -69 -12.667 -69 -38c0 -11.333 6.66699 -20 20 -26s36.666 -11 69.999 -15c64.667 -8 111.167 -23.833 139.5 -47.5
s42.5 -62.5 42.5 -116.5c0 -57.333 -19.5 -101.5 -58.5 -132.5s-97.833 -46.5 -176.5 -46.5z" />
    <glyph glyph-name="uni0237" unicode="&#x237;" horiz-adv-x="278" 
d="M-39 -156l-0.000976562 98.001h28c22 0 37.5 4.5 46.5 13.5s13.5 24.5 13.5 46.5v525h116c26.667 0 43.834 -6.5 51.501 -19.5s11.5 -40.167 11.5 -81.5v-433c0 -56.667 -14.5 -97.834 -43.5 -123.501s-72.833 -38.5 -131.5 -38.5c-34 0 -64.667 4.33301 -92 13z" />
    <glyph glyph-name="circumflex" unicode="&#x2c6;" 
d="M48 561v38l91 104h121l89 -104v-38h-97l-56 42l-55 -42h-93z" />
    <glyph glyph-name="caron" unicode="&#x2c7;" 
d="M349 703v-38l-92 -104h-121l-88 104v38h97l56 -42l55 42h93z" />
    <glyph glyph-name="breve" unicode="&#x2d8;" 
d="M199 561c-40 0 -72.5 10 -97.5 30s-40.833 45.333 -47.5 76v40h103c2 -25.333 16 -38 42 -38c24.667 0 38.667 12.667 42 38h103v-40c-6.66699 -30.667 -22.5 -56 -47.5 -76s-57.5 -30 -97.5 -30z" />
    <glyph glyph-name="dotaccent" unicode="&#x2d9;" 
d="M199 559c-26.667 0 -48.834 7.83301 -66.501 23.5s-26.5 35.834 -26.5 60.501s8.83301 45 26.5 61s39.834 24 66.501 24s48.834 -8 66.501 -24s26.5 -36.333 26.5 -61s-8.83301 -44.834 -26.5 -60.501s-39.834 -23.5 -66.501 -23.5z" />
    <glyph glyph-name="ring" unicode="&#x2da;" 
d="M199 562c-30 0 -55.333 9.33301 -76 28s-31 43.334 -31 74.001c0 30 10.333 54.5 31 73.5s46 28.5 76 28.5s55.333 -9.5 76 -28.5s31 -43.5 31 -73.5c0 -30.667 -10.333 -55.334 -31 -74.001s-46 -28 -76 -28zM199 628c10 0 18.167 3.33301 24.5 10
s9.5 15.334 9.5 26.001s-3.16699 19.334 -9.5 26.001s-14.5 10 -24.5 10s-18 -3.33301 -24 -10s-9 -15.334 -9 -26.001s3 -19.334 9 -26.001s14 -10 24 -10z" />
    <glyph glyph-name="ogonek" unicode="&#x2db;" 
d="M217 -167c-36 0 -63.5 6.83301 -82.5 20.5s-28.5 32.5 -28.5 56.5c0 36 22.667 66 68 90h102c-22.667 -19.333 -34 -36 -34 -50c0 -16 12.333 -24 37 -24h18v-76c-19.333 -11.333 -46 -17 -80 -17z" />
    <glyph glyph-name="tilde" unicode="&#x2dc;" 
d="M25 562l0.000976562 40c5.33301 33.333 17.166 59 35.499 77s41.833 27 70.5 27c18 0 39.333 -4 64 -12s40 -12 46 -12c15.333 0 25.666 8 30.999 24h90v-40c-5.33301 -33.333 -17.166 -59 -35.499 -77s-41.5 -27 -69.5 -27c-18.667 0 -40.167 4.33301 -64.5 13
s-39.5 13 -45.5 13c-17.333 0 -28 -8.66699 -32 -26h-90z" />
    <glyph glyph-name="hungarumlaut" unicode="&#x2dd;" 
d="M62 561v28l32 114h138v-42l-77 -100h-93zM238 561v28l32 114h138v-42l-76 -100h-94z" />
    <glyph glyph-name="endash" unicode="&#x2013;" horiz-adv-x="447" 
d="M38 216v132h370v-132h-370z" />
    <glyph glyph-name="emdash" unicode="&#x2014;" horiz-adv-x="748" 
d="M38 215v133h671v-133h-671z" />
    <glyph glyph-name="quoteleft" unicode="&#x2018;" horiz-adv-x="231" 
d="M206 629c-42.667 -5.33301 -64.001 -18.002 -64.001 -38.002c0 -5.33301 1.5 -9.66602 4.5 -12.999s8 -6.83301 15 -10.5s12.167 -6.5 15.5 -8.5c19.333 -16 29 -36 29 -60c0 -22 -8 -40 -24 -54s-36.333 -21 -61 -21c-27.333 0 -50.166 8.83301 -68.499 26.5
s-27.5 43.834 -27.5 78.501c0 105.333 60.333 163 181 173v-73z" />
    <glyph glyph-name="quoteright" unicode="&#x2019;" horiz-adv-x="231" 
d="M25 430v73.001c42.667 5.33301 64 17.666 64 36.999c0 6 -1.5 10.5 -4.5 13.5s-7.83301 6.33301 -14.5 10s-11.667 6.83398 -15 9.50098c-20 14 -30 34 -30 60c0 22 8 40 24 54s36.667 21 62 21c26.667 0 49.167 -9 67.5 -27s27.5 -44 27.5 -78
c0 -106.667 -60.333 -164.334 -181 -173.001z" />
    <glyph glyph-name="quotesinglbase" unicode="&#x201a;" horiz-adv-x="231" 
d="M25 -29c42.667 4 64 16.333 64 37c0 5.33301 -1.5 9.66602 -4.5 12.999s-7.83301 6.83301 -14.5 10.5s-11.667 6.83398 -15 9.50098c-20 14 -30 34 -30 60c0 22 8 40 24 54s36.667 21 62 21c26.667 0 49.167 -9 67.5 -27s27.5 -44 27.5 -78
c0 -106 -60.333 -164 -181 -174v74z" />
    <glyph glyph-name="quotedblleft" unicode="&#x201c;" horiz-adv-x="446" 
d="M206 629c-42.667 -5.33301 -64.001 -18.002 -64.001 -38.002c0 -5.33301 1.5 -9.66602 4.5 -12.999s8 -6.83301 15 -10.5s12.167 -6.5 15.5 -8.5c19.333 -16 29 -36 29 -60c0 -22 -8 -40 -24 -54s-36.333 -21 -61 -21c-27.333 0 -50.166 8.83301 -68.499 26.5
s-27.5 43.834 -27.5 78.501c0 105.333 60.333 163 181 173v-73zM419.999 628.998c-42 -5.33301 -63 -18.0029 -63 -38.0029c0 -5.33301 1.5 -9.66602 4.5 -12.999s7.83301 -6.66602 14.5 -9.99902s11.667 -6.33301 15 -9c20 -15.333 30 -35.333 30 -60c0 -22 -8 -40 -24 -54
s-36.667 -21 -62 -21c-27.333 0 -50 8.83301 -68 26.5s-27 43.834 -27 78.501c0 105.333 60 163 180 173v-73z" />
    <glyph glyph-name="quotedblright" unicode="&#x201d;" horiz-adv-x="446" 
d="M240 430l0.000976562 73.001c42.667 5.33301 64 17.666 64 36.999c0 6 -1.5 10.5 -4.5 13.5s-8 6.33301 -15 10s-12.167 6.83398 -15.5 9.50098c-19.333 14.667 -29 34.667 -29 60c0 22 8 40 24 54s36.333 21 61 21c27.333 0 50.166 -9 68.499 -27s27.5 -44 27.5 -78
c0 -106.667 -60.333 -164.334 -181 -173.001zM25.001 430.001v73.001c42.667 5.33301 64 17.666 64 36.999c0 6 -1.5 10.5 -4.5 13.5s-7.83301 6.33301 -14.5 10s-11.667 6.83398 -15 9.50098c-20 14 -30 34 -30 60c0 22 8 40 24 54s36.667 21 62 21
c26.667 0 49.167 -9 67.5 -27s27.5 -44 27.5 -78c0 -106.667 -60.333 -164.334 -181 -173.001z" />
    <glyph glyph-name="quotedblbase" unicode="&#x201e;" horiz-adv-x="446" 
d="M240 -29c42.667 4 64.001 16.333 64.001 37c0 5.33301 -1.5 9.66602 -4.5 12.999s-8 6.83301 -15 10.5s-12.167 6.83398 -15.5 9.50098c-19.333 14.667 -29 34.667 -29 60c0 22 8 40 24 54s36.333 21 61 21c27.333 0 50.166 -9 68.499 -27s27.5 -44 27.5 -78
c0 -106 -60.333 -164 -181 -174v74zM25.001 -29c42.667 4 64 16.333 64 37c0 5.33301 -1.5 9.66602 -4.5 12.999s-7.83301 6.83301 -14.5 10.5s-11.667 6.83398 -15 9.50098c-20 14 -30 34 -30 60c0 22 8 40 24 54s36.667 21 62 21c26.667 0 49.167 -9 67.5 -27
s27.5 -44 27.5 -78c0 -106 -60.333 -164 -181 -174v74z" />
    <glyph glyph-name="dagger" unicode="&#x2020;" horiz-adv-x="479" 
d="M178 -49l-28 298v65l38 105l-109 -35h-58v163h58l109 -37l-33 99v91h169v-91l-33 -98l109 36h58v-163h-58l-109 36l38 -104v-66l-28 -299h-123z" />
    <glyph glyph-name="daggerdbl" unicode="&#x2021;" horiz-adv-x="479" 
d="M155 -49v84l33 99l-109 -37h-58v163h58l110 -36l-39 72v57l38 73l-109 -35h-58v163h58l109 -38l-33 100v84h169v-84l-33 -99l109 37h58v-163h-58l-110 36l39 -72v-57l-38 -73l109 35h58v-163h-58l-109 38l33 -100v-84h-169z" />
    <glyph glyph-name="bullet" unicode="&#x2022;" horiz-adv-x="357" 
d="M179 134c-42.667 0 -78.167 13.167 -106.5 39.5s-42.5 61.5 -42.5 105.5c0 44.667 14.333 80.334 43 107.001s64 40 106 40c42.667 0 78 -13.333 106 -40s42 -62.334 42 -107.001s-14 -80 -42 -106s-63.333 -39 -106 -39z" />
    <glyph glyph-name="ellipsis" unicode="&#x2026;" horiz-adv-x="719" 
d="M117 -7c-26 0 -48.167 8.83301 -66.5 26.5s-27.5 39.167 -27.5 64.5s9.16699 46.833 27.5 64.5s40.5 26.5 66.5 26.5s48.167 -8.83301 66.5 -26.5s27.5 -39.167 27.5 -64.5s-9.16699 -46.833 -27.5 -64.5s-40.5 -26.5 -66.5 -26.5zM360 -7
c-26.667 0 -49 8.83301 -67 26.5s-27 39.167 -27 64.5s9 46.833 27 64.5s40.333 26.5 67 26.5c26 0 48.167 -8.83301 66.5 -26.5s27.5 -39.167 27.5 -64.5s-9.16699 -46.833 -27.5 -64.5s-40.5 -26.5 -66.5 -26.5zM602 -7c-26 0 -48.167 8.83301 -66.5 26.5
s-27.5 39.167 -27.5 64.5s9.16699 46.833 27.5 64.5s40.5 26.5 66.5 26.5s48.167 -8.83301 66.5 -26.5s27.5 -39.167 27.5 -64.5s-9.16699 -46.833 -27.5 -64.5s-40.5 -26.5 -66.5 -26.5z" />
    <glyph glyph-name="perthousand" unicode="&#x2030;" horiz-adv-x="1273" 
d="M204 422c36 0 54 32 54 96c0 64.667 -18 97 -54 97s-54 -32.333 -54 -97c0 -64 18 -96 54 -96zM204 329c-52 0 -96.167 16.5 -132.5 49.5s-54.5 80.167 -54.5 141.5s18 108.166 54 140.499s80.333 48.5 133 48.5s97 -16.167 133 -48.5s54 -79.166 54 -140.499
s-18.167 -108.5 -54.5 -141.5s-80.5 -49.5 -132.5 -49.5zM125 -34l493 763h119l-493 -763h-119zM662 84c36 0 54 32.333 54 97s-18 97 -54 97c-36.667 0 -55 -32.333 -55 -97s18.333 -97 55 -97zM662 -9c-52 0 -96.168 16.667 -132.501 50s-54.5 80.666 -54.5 141.999
c0 60.667 18 107.167 54 139.5s80.333 48.5 133 48.5c52 0 96 -16.167 132 -48.5s54 -78.833 54 -139.5c0 -61.333 -18.167 -108.666 -54.5 -141.999s-80.166 -50 -131.499 -50zM1069 84c36 0 54 32.333 54 97s-18 97 -54 97s-54 -32.333 -54 -97s18 -97 54 -97zM1069 -9
c-52 0 -96.167 16.667 -132.5 50s-54.5 80.666 -54.5 141.999c0 60.667 18 107.167 54 139.5s80.333 48.5 133 48.5s97 -16.167 133 -48.5s54 -78.833 54 -139.5c0 -61.333 -18.167 -108.666 -54.5 -141.999s-80.5 -50 -132.5 -50z" />
    <glyph glyph-name="guilsinglleft" unicode="&#x2039;" horiz-adv-x="309" 
d="M144 40l-113 188v63l113 189h134v-36l-105 -182v-2l105 -184v-36h-134z" />
    <glyph glyph-name="guilsinglright" unicode="&#x203a;" horiz-adv-x="309" 
d="M165 480l113 -189v-63l-113 -188h-134v36l105 184v2l-105 182v36h134z" />
    <glyph glyph-name="fraction" unicode="&#x2044;" horiz-adv-x="224" 
d="M417 729l-493 -763h-116l493 763h116z" />
    <glyph glyph-name="Euro" unicode="&#x20ac;" horiz-adv-x="614" 
d="M404 233l-130.002 0.000976562c8 -37.333 21.833 -64.5 41.5 -81.5s47.167 -25.5 82.5 -25.5c50.667 0 93.334 16 128.001 48h65v-121c-54 -41.333 -123.667 -62 -209 -62c-78.667 0 -144.667 20.5 -198 61.5s-88.666 101.167 -105.999 180.5h-59v93h48v47h-48v93h61
c18 79.333 54.667 139.666 110 180.999s124.333 62 207 62c74.667 0 137.667 -14.333 189 -43v-129h-74c-30 24 -65.667 36 -107 36c-70 0 -113.667 -35.667 -131 -107h174l-17 -93h-167v-47h158z" />
    <glyph glyph-name="trademark" unicode="&#x2122;" horiz-adv-x="708" 
d="M200 420h-97v209h-77v71h252v-71h-78v-209zM316 420v280h137l40 -139h1l41 139h138v-280h-95v193h-1l-58 -193h-66l-57 193h-1v-193h-79z" />
    <glyph glyph-name="onethird" unicode="&#x2153;" horiz-adv-x="806" 
d="M237 308h-139v266l-49 -25h-23v97l109 54h102v-392zM669 729l-493 -763h-116l493 763h116zM616 -7c-48 0 -90.668 10 -128.001 30v82h48c18.667 -14 40.334 -21 65.001 -21c36.667 0 55 12.333 55 37c0 24 -17 36 -51 36h-40v79h36c36 0 54 11.667 54 35
c0 22 -15 33 -45 33c-22.667 0 -43.667 -6 -63 -18h-48v80c37.333 22 82 33 134 33c45.333 0 81.5 -9 108.5 -27s40.5 -44.667 40.5 -80c0 -46.667 -26.667 -76.334 -80 -89.001v-3c58 -8 87 -38 87 -90c0 -37.333 -15.167 -66.166 -45.5 -86.499
s-72.833 -30.5 -127.5 -30.5z" />
    <glyph glyph-name="twothirds" unicode="&#x2154;" horiz-adv-x="876" 
d="M323 406v-98h-295v98l109 96c34.667 30.667 52 54.667 52 72c0 21.333 -13.333 32 -40 32c-25.333 0 -46 -7.33301 -62 -22h-52v88c38 23.333 83.667 35 137 35c104 0 156 -39.333 156 -118c0 -26.667 -7 -49.5 -21 -68.5s-37.333 -41.833 -70 -68.5l-56 -46h142z
M750 729l-493 -763h-116l493 763h116zM685 -7c-48 0 -90.668 10 -128.001 30v82h48c18.667 -14 40.334 -21 65.001 -21c36.667 0 55 12.333 55 37c0 24 -17 36 -51 36h-40v79h36c36 0 54 11.667 54 35c0 22 -15 33 -45 33c-22.667 0 -43.667 -6 -63 -18h-48v80
c37.333 22 82 33 134 33c45.333 0 81.5 -9 108.5 -27s40.5 -44.667 40.5 -80c0 -46.667 -26.667 -76.334 -80 -89.001v-3c58 -8 87 -38 87 -90c0 -37.333 -15.167 -66.166 -45.5 -86.499s-72.833 -30.5 -127.5 -30.5z" />
    <glyph glyph-name="oneeighth" unicode="&#x215b;" horiz-adv-x="827" 
d="M237 308h-139v266l-49 -25h-23v97l109 54h102v-392zM673 729l-493 -763h-116l493 763h116zM638 -7c-56.667 0 -100.167 10.5 -130.5 31.5s-45.5 49.833 -45.5 86.5c0 50 25.667 82.333 77 97v2c-41.333 11.333 -62 38.666 -62 81.999c0 32.667 14.667 58.667 44 78
s68.333 29 117 29c47.333 0 85.833 -9.66699 115.5 -29s44.5 -45.333 44.5 -78c0 -43.333 -20.333 -70.666 -61 -81.999v-2c50.667 -14.667 76 -47 76 -97c0 -36.667 -15 -65.5 -45 -86.5s-73.333 -31.5 -130 -31.5zM638 75c30.667 0 46 16 46 48
c0 33.333 -15.333 50 -46 50c-16 0 -28 -4.66699 -36 -14s-12 -21.333 -12 -36c0 -32 16 -48 48 -48zM638 239c26 0 39 13 39 39c0 12 -3.5 21.667 -10.5 29s-16.5 11 -28.5 11c-26.667 0 -40 -13.333 -40 -40c0 -26 13.333 -39 40 -39z" />
    <glyph glyph-name="threeeighths" unicode="&#x215c;" horiz-adv-x="854" 
d="M157 301c-48 0 -90.668 10 -128.001 30v82h48c18.667 -14 40.334 -21 65.001 -21c36.667 0 55 12.333 55 37c0 24 -17 36 -51 36h-40v79h36c36 0 54 11.667 54 35c0 22 -15 33 -45 33c-22.667 0 -43.667 -6 -63 -18h-48v80c35.333 22 80 33 134 33
c45.333 0 81.5 -9 108.5 -27s40.5 -44.667 40.5 -80c0 -46.667 -26.667 -76.334 -80 -89.001v-3c58 -8 87 -38 87 -90c0 -37.333 -15.167 -66.166 -45.5 -86.499s-72.833 -30.5 -127.5 -30.5zM714.999 729l-493 -763h-116l493 763h116zM664.999 -7
c-56.667 0 -100.167 10.5 -130.5 31.5s-45.5 49.833 -45.5 86.5c0 50 25.667 82.333 77 97v2c-41.333 11.333 -62 38.666 -62 81.999c0 32.667 14.667 58.667 44 78s68.333 29 117 29c47.333 0 85.833 -9.66699 115.5 -29s44.5 -45.333 44.5 -78
c0 -43.333 -20.333 -70.666 -61 -81.999v-2c50.667 -14.667 76 -47 76 -97c0 -36.667 -15 -65.5 -45 -86.5s-73.333 -31.5 -130 -31.5zM664.999 75c30.667 0 46 16 46 48c0 33.333 -15.333 50 -46 50c-16 0 -28 -4.66699 -36 -14s-12 -21.333 -12 -36c0 -32 16 -48 48 -48z
M664.999 239c26 0 39 13 39 39c0 12 -3.5 21.667 -10.5 29s-16.5 11 -28.5 11c-26.667 0 -40 -13.333 -40 -40c0 -26 13.333 -39 40 -39z" />
    <glyph glyph-name="fiveeighths" unicode="&#x215d;" horiz-adv-x="861" 
d="M334 435c0 -41.333 -15.999 -74 -47.999 -98s-75.667 -36 -131 -36c-46.667 0 -88 9.33301 -124 28v85h48c19.333 -14 40.666 -21 63.999 -21c38.667 0 58 14.667 58 44c0 26 -14 39 -42 39c-19.333 0 -34 -6.33301 -44 -19h-74v243h272v-96h-178v-66h2
c18 12.667 43.667 19 77 19c36 0 65 -10.333 87 -31s33 -51 33 -91zM717.001 729l-493 -763h-116l493 763h116zM672.001 -7c-56.667 0 -100.167 10.5 -130.5 31.5s-45.5 49.833 -45.5 86.5c0 50 25.667 82.333 77 97v2c-41.333 11.333 -62 38.666 -62 81.999
c0 32.667 14.667 58.667 44 78s68.333 29 117 29c47.333 0 85.833 -9.66699 115.5 -29s44.5 -45.333 44.5 -78c0 -43.333 -20.333 -70.666 -61 -81.999v-2c50.667 -14.667 76 -47 76 -97c0 -36.667 -15 -65.5 -45 -86.5s-73.333 -31.5 -130 -31.5zM672.001 75
c30.667 0 46 16 46 48c0 33.333 -15.333 50 -46 50c-16 0 -28 -4.66699 -36 -14s-12 -21.333 -12 -36c0 -32 16 -48 48 -48zM672.001 239c26 0 39 13 39 39c0 12 -3.5 21.667 -10.5 29s-16.5 11 -28.5 11c-26.667 0 -40 -13.333 -40 -40c0 -26 13.333 -39 40 -39z" />
    <glyph glyph-name="seveneighths" unicode="&#x215e;" horiz-adv-x="840" 
d="M677 729l-493 -763h-116l493 763h116zM651 -7c-56.667 0 -100.167 10.5 -130.5 31.5s-45.5 49.833 -45.5 86.5c0 50 25.667 82.333 77 97v2c-41.333 11.333 -62 38.666 -62 81.999c0 32.667 14.667 58.667 44 78s68.333 29 117 29c47.333 0 85.833 -9.66699 115.5 -29
s44.5 -45.333 44.5 -78c0 -43.333 -20.333 -70.666 -61 -81.999v-2c50.667 -14.667 76 -47 76 -97c0 -36.667 -15 -65.5 -45 -86.5s-73.333 -31.5 -130 -31.5zM651 75c30.667 0 46 16 46 48c0 33.333 -15.333 50 -46 50c-16 0 -28 -4.66699 -36 -14s-12 -21.333 -12 -36
c0 -32 16 -48 48 -48zM651 239c26 0 39 13 39 39c0 12 -3.5 21.667 -10.5 29s-16.5 11 -28.5 11c-26.667 0 -40 -13.333 -40 -40c0 -26 13.333 -39 40 -39zM67 308v35l137 251v2h-176v104h292v-108l-116 -284h-137z" />
    <glyph glyph-name="minus" unicode="&#x2212;" horiz-adv-x="534" 
d="M510 276h-486v139h486v-139z" />
    <glyph glyph-name="fi" unicode="&#xfb01;" horiz-adv-x="617" 
d="M567 0h-179.001v527h116c26.667 0 43.834 -6.33301 51.501 -19s11.5 -40 11.5 -82v-426zM477.999 559c-26.667 0 -48.834 7.83301 -66.501 23.5s-26.5 35.834 -26.5 60.501s8.83301 45 26.5 61s39.834 24 66.501 24s48.834 -8 66.501 -24s26.5 -36.333 26.5 -61
s-8.83301 -44.834 -26.5 -60.501s-39.834 -23.5 -66.501 -23.5zM11.999 411v115.999h57v32c0 102 59.333 153 178 153c36 0 66.333 -4.66699 91 -14v-101h-28c-21.333 0 -36.833 -3.16699 -46.5 -9.5s-14.5 -18.166 -14.5 -35.499v-25h89v-116h-89v-411h-180v411h-57z" />
    <glyph glyph-name="fl" unicode="&#xfb02;" horiz-adv-x="616" 
d="M12 411v115.999h57v32c0 102 59.333 153 178 153c36 0 66.333 -4.66699 91 -14v-101h-28c-21.333 0 -36.833 -3.16699 -46.5 -9.5s-14.5 -18.166 -14.5 -35.499v-25h89v-116h-89v-411h-180v411h-57zM567 -0.000976562h-179v700h114c27.333 0 45 -5.66699 53 -17
s12 -37 12 -77v-606z" />
    <glyph glyph-name=".null" horiz-adv-x="0" 
 />
    <glyph glyph-name="nonmarkingreturn" horiz-adv-x="333" 
 />
    <glyph glyph-name="space_uni0326" 
d="M128 -228v62c30.667 2.66699 46 10.667 46 24c0 3.33301 -1 6 -3 8s-5.33301 4.16699 -10 6.5s-7.66699 4.16602 -9 5.49902c-16.667 10 -25 25.667 -25 47c0 16.667 6.66699 30.334 20 41.001s30.333 16 51 16c22.667 0 41.167 -6.83301 55.5 -20.5
s21.5 -33.5 21.5 -59.5c0 -80.667 -49 -124 -147 -130z" />
    <glyph glyph-name="zero.numerator" horiz-adv-x="427" 
d="M214 301c-56 0 -102 17.667 -138 53s-54 85.333 -54 150s18.5 114.667 55.5 150s82.5 53 136.5 53c54.667 0 100.167 -17.667 136.5 -53s54.5 -85.333 54.5 -150s-18 -114.667 -54 -150s-81.667 -53 -137 -53zM214 392c18 0 31.5 8.16699 40.5 24.5s13.5 44.5 13.5 84.5
s-4.5 68 -13.5 84s-22.5 24 -40.5 24s-31.5 -8 -40.5 -24s-13.5 -44 -13.5 -84s4.5 -68.167 13.5 -84.5s22.5 -24.5 40.5 -24.5z" />
    <glyph glyph-name="one.numerator" horiz-adv-x="276" 
d="M231 308h-139v266l-49 -25h-23v97l109 54h102v-392z" />
    <glyph glyph-name="two.numerator" horiz-adv-x="348" 
d="M317 406v-98h-295v98l109 96c34.667 30.667 52 54.667 52 72c0 21.333 -13.333 32 -40 32c-25.333 0 -46 -7.33301 -62 -22h-52v88c38 23.333 83.667 35 137 35c104 0 156 -39.333 156 -118c0 -26.667 -7 -49.5 -21 -68.5s-37.333 -41.833 -70 -68.5l-56 -46h142z" />
    <glyph glyph-name="three.numerator" horiz-adv-x="343" 
d="M147 301c-48 0 -90.668 10 -128.001 30v82h48c18.667 -14 40.334 -21 65.001 -21c36.667 0 55 12.333 55 37c0 24 -17 36 -51 36h-40v79h36c36 0 54 11.667 54 35c0 22 -15 33 -45 33c-22.667 0 -43.667 -6 -63 -18h-48v80c35.333 22 80 33 134 33
c45.333 0 81.5 -9 108.5 -27s40.5 -44.667 40.5 -80c0 -46.667 -26.667 -76.334 -80 -89.001v-3c58 -8 87 -38 87 -90c0 -37.333 -15.167 -66.166 -45.5 -86.499s-72.833 -30.5 -127.5 -30.5z" />
    <glyph glyph-name="four.numerator" horiz-adv-x="380" 
d="M322 308h-132v79h-171v94l176 219h127v-231h39v-82h-39v-79zM111 471v-2h83v103h-2z" />
    <glyph glyph-name="five.numerator" horiz-adv-x="345" 
d="M323 435c0 -41.333 -15.999 -74 -47.999 -98s-75.667 -36 -131 -36c-46.667 0 -88 9.33301 -124 28v85h48c19.333 -14 40.666 -21 63.999 -21c38.667 0 58 14.667 58 44c0 26 -14 39 -42 39c-19.333 0 -34 -6.33301 -44 -19h-74v243h272v-96h-178v-66h2
c18 12.667 43.667 19 77 19c36 0 65 -10.333 87 -31s33 -51 33 -91z" />
    <glyph glyph-name="six.numerator" horiz-adv-x="392" 
d="M203 301c-56 0 -100.17 15.833 -132.503 47.5s-48.5 80.5 -48.5 146.5c0 66.667 19 118.667 57 156s90.667 56 158 56c46.667 0 83.334 -7.33301 110.001 -22v-89h-47c-14.667 8.66699 -33.667 13 -57 13c-26 0 -45.667 -6 -59 -18s-21.666 -31.667 -24.999 -59
c22 15.333 52 23 90 23c36.667 0 66.167 -9.66699 88.5 -29s33.5 -48 33.5 -86c0 -43.333 -15.167 -77.333 -45.5 -102s-71.166 -37 -122.499 -37zM198.997 479c-14.667 0 -28.667 -3.33301 -42 -10c0.666992 -32 4.66699 -54 12 -66s18 -18 32 -18c27.333 0 41 16 41 48
c0 30.667 -14.333 46 -43 46z" />
    <glyph glyph-name="seven.numerator" horiz-adv-x="339" 
d="M61 308v35l137 251v2h-176v104h292v-108l-116 -284h-137z" />
    <glyph glyph-name="eight.numerator" horiz-adv-x="391" 
d="M196 301c-56.667 0 -100.167 10.5 -130.5 31.5s-45.5 49.833 -45.5 86.5c0 50 25.667 82.333 77 97v2c-41.333 11.333 -62 38.666 -62 81.999c0 32.667 14.667 58.667 44 78s68.333 29 117 29c47.333 0 85.833 -9.66699 115.5 -29s44.5 -45.333 44.5 -78
c0 -43.333 -20.333 -70.666 -61 -81.999v-2c50.667 -14.667 76 -47 76 -97c0 -36.667 -15 -65.5 -45 -86.5s-73.333 -31.5 -130 -31.5zM196 383c30.667 0 46 16 46 48c0 33.333 -15.333 50 -46 50c-16 0 -28 -4.66699 -36 -14s-12 -21.333 -12 -36c0 -32 16 -48 48 -48z
M196 547c26 0 39 13 39 39c0 12 -3.5 21.667 -10.5 29s-16.5 11 -28.5 11c-26.667 0 -40 -13.333 -40 -40c0 -26 13.333 -39 40 -39z" />
    <glyph glyph-name="nine.numerator" horiz-adv-x="389" 
d="M187 707c56 0 100.169 -16.001 132.502 -48.001s48.5 -81 48.5 -147c0 -67.333 -18.167 -119.333 -54.5 -156s-90.5 -55 -162.5 -55c-47.333 0 -85 7.33301 -113 22v89h48c16 -9.33301 36 -14 60 -14c28 0 48.333 5.83301 61 17.5s20.667 30.834 24 57.501
c-22 -15.333 -51.667 -23 -89 -23c-36.667 0 -66.334 10 -89.001 30s-34 49 -34 87c0 43.333 15.167 77.5 45.5 102.5s71.166 37.5 122.499 37.5zM191.002 526.999c14.667 0 28.667 2.99902 42 8.99902c-0.666992 32.667 -4.66699 55.334 -12 68.001s-18 19 -32 19
c-28 0 -42 -16.667 -42 -50c0 -30.667 14.667 -46 44 -46z" />
    <glyph glyph-name="zero.denominator" horiz-adv-x="427" 
d="M214 -7c-56 0 -102 17.667 -138 53s-54 85.333 -54 150s18.5 114.667 55.5 150s82.5 53 136.5 53c54.667 0 100.167 -17.667 136.5 -53s54.5 -85.333 54.5 -150s-18 -114.667 -54 -150s-81.667 -53 -137 -53zM214 84c18 0 31.5 8.16699 40.5 24.5s13.5 44.5 13.5 84.5
s-4.5 68 -13.5 84s-22.5 24 -40.5 24s-31.5 -8 -40.5 -24s-13.5 -44 -13.5 -84s4.5 -68.167 13.5 -84.5s22.5 -24.5 40.5 -24.5z" />
    <glyph glyph-name="one.denominator" horiz-adv-x="276" 
d="M231 0h-139v266l-49 -25h-23v97l109 54h102v-392z" />
    <glyph glyph-name="two.denominator" horiz-adv-x="348" 
d="M317 98v-98h-295v98l109 96c34.667 30.667 52 54.667 52 72c0 21.333 -13.333 32 -40 32c-25.333 0 -46 -7.33301 -62 -22h-52v88c38 23.333 83.667 35 137 35c104 0 156 -39.333 156 -118c0 -26.667 -7 -49.5 -21 -68.5s-37.333 -41.833 -70 -68.5l-56 -46h142z" />
    <glyph glyph-name="three.denominator" horiz-adv-x="343" 
d="M147 -7c-48 0 -90.668 10 -128.001 30v82h48c18.667 -14 40.334 -21 65.001 -21c36.667 0 55 12.333 55 37c0 24 -17 36 -51 36h-40v79h36c36 0 54 11.667 54 35c0 22 -15 33 -45 33c-22.667 0 -43.667 -6 -63 -18h-48v80c37.333 22 82 33 134 33
c45.333 0 81.5 -9 108.5 -27s40.5 -44.667 40.5 -80c0 -46.667 -26.667 -76.334 -80 -89.001v-3c58 -8 87 -38 87 -90c0 -37.333 -15.167 -66.166 -45.5 -86.499s-72.833 -30.5 -127.5 -30.5z" />
    <glyph glyph-name="four.denominator" horiz-adv-x="380" 
d="M322 0h-132v79h-171v94l176 219h127v-231h39v-82h-39v-79zM111 162v-2h83v104h-2z" />
    <glyph glyph-name="five.denominator" horiz-adv-x="345" 
d="M323 127c0 -41.333 -15.999 -74.001 -47.999 -98.001s-75.667 -36 -131 -36c-46.667 0 -88 9.33301 -124 28v85h48c19.333 -14 40.666 -21 63.999 -21c38.667 0 58 14.667 58 44c0 12.667 -4 22.334 -12 29.001s-18 10 -30 10c-18 0 -32.667 -6.33301 -44 -19h-74v243
h272v-96h-178v-66h2c18 12.667 43.667 19 77 19c36 0 65 -10.333 87 -31s33 -51 33 -91z" />
    <glyph glyph-name="six.denominator" horiz-adv-x="392" 
d="M203 -7c-56 0 -100.17 15.833 -132.503 47.5s-48.5 80.5 -48.5 146.5c0 66.667 19 118.667 57 156s90.667 56 158 56c46.667 0 83.334 -7.33301 110.001 -22v-89h-47c-14.667 8.66699 -33.667 13 -57 13c-26 0 -45.667 -6 -59 -18s-21.666 -31.667 -24.999 -59
c22 15.333 52 23 90 23c36.667 0 66.167 -9.66699 88.5 -29s33.5 -48 33.5 -86c0 -43.333 -15.167 -77.333 -45.5 -102s-71.166 -37 -122.499 -37zM198.997 171c-14.667 0 -28.667 -3.33301 -42 -10c0.666992 -32 4.66699 -54 12 -66s18 -18 32 -18c27.333 0 41 16 41 48
c0 30.667 -14.333 46 -43 46z" />
    <glyph glyph-name="seven.denominator" horiz-adv-x="339" 
d="M61 0v35l137 251v2h-176v104h292v-108l-116 -284h-137z" />
    <glyph glyph-name="eight.denominator" horiz-adv-x="391" 
d="M196 -7c-56.667 0 -100.167 10.5 -130.5 31.5s-45.5 49.833 -45.5 86.5c0 50 25.667 82.333 77 97v2c-41.333 11.333 -62 38.666 -62 81.999c0 32.667 14.667 58.667 44 78s68.333 29 117 29c47.333 0 85.833 -9.66699 115.5 -29s44.5 -45.333 44.5 -78
c0 -43.333 -20.333 -70.666 -61 -81.999v-2c50.667 -14.667 76 -47 76 -97c0 -36.667 -15 -65.5 -45 -86.5s-73.333 -31.5 -130 -31.5zM196 75c30.667 0 46 16 46 48c0 33.333 -15.333 50 -46 50c-16 0 -28 -4.66699 -36 -14s-12 -21.333 -12 -36c0 -32 16 -48 48 -48z
M196 239c26 0 39 13 39 39c0 12 -3.5 21.667 -10.5 29s-16.5 11 -28.5 11c-26.667 0 -40 -13.333 -40 -40c0 -26 13.333 -39 40 -39z" />
    <glyph glyph-name="nine.denominator" horiz-adv-x="389" 
d="M187 399c56 0 100.169 -16.001 132.502 -48.001s48.5 -81 48.5 -147c0 -67.333 -18.167 -119.333 -54.5 -156s-90.5 -55 -162.5 -55c-47.333 0 -85 7.33301 -113 22v89h48c14 -9.33301 34 -14 60 -14c28 0 48.333 5.83301 61 17.5s20.667 30.834 24 57.501
c-22 -15.333 -51.667 -23 -89 -23c-36.667 0 -66.334 10 -89.001 30s-34 49 -34 87c0 43.333 15.167 77.5 45.5 102.5s71.166 37.5 122.499 37.5zM191.002 218.999c14.667 0 28.667 2.99902 42 8.99902c-0.666992 32.667 -4.66699 55.334 -12 68.001s-18 19 -32 19
c-28 0 -42 -16.667 -42 -50c0 -30.667 14.667 -46 44 -46z" />
    <glyph glyph-name="Q.alt" horiz-adv-x="742" 
d="M589 -121c-18.667 28.667 -45.668 51.668 -81.001 69.001s-86.666 31 -153.999 41c-86.667 13.333 -156.667 41.333 -210 84c-78.667 62 -118 155 -118 279c0 110 33 197 99 261s148 96 246 96c98.667 0 181 -32 247 -96s99 -151.667 99 -263
c0 -145.333 -56.667 -239 -170 -281v-3c52 -8.66699 95.833 -24.334 131.5 -47.001s61.5 -47 77.5 -73v-67h-167zM370.999 120.001c46 0 82.5 18.667 109.5 56s40.5 94.333 40.5 171c0 76 -13.5 132.833 -40.5 170.5s-63.5 56.5 -109.5 56.5s-82.5 -18.833 -109.5 -56.5
s-40.5 -94.5 -40.5 -170.5c0 -76.667 13.5 -133.667 40.5 -171s63.5 -56 109.5 -56z" />
    <glyph glyph-name="Q.alt1" horiz-adv-x="742" 
d="M371 -9c-99.333 0 -181.667 31.832 -247 95.499s-98 151.167 -98 262.5s33 199.166 99 263.499s148 96.5 246 96.5s180.167 -32.167 246.5 -96.5s99.5 -152.166 99.5 -263.499c0 -87.333 -24.667 -162.666 -74 -225.999l79 -66v-57h-138l-42 36
c-52.667 -30 -109.667 -45 -171 -45zM370.999 117.999c26 0 48.333 3 67 9l-81 71v54h131l24 -20c6 30 9 68.333 9 115c0 76 -13.5 132.833 -40.5 170.5s-63.5 56.5 -109.5 56.5s-82.5 -18.833 -109.5 -56.5s-40.5 -94.5 -40.5 -170.5c0 -76.667 13.5 -134 40.5 -172
s63.5 -57 109.5 -57z" />
    <glyph glyph-name="f.short" horiz-adv-x="337" 
d="M12 411v115.999h57v32c0 102 59.333 153 178 153c36 0 66.333 -4.66699 91 -14v-101h-28c-21.333 0 -36.833 -3.16699 -46.5 -9.5s-14.5 -18.166 -14.5 -35.499v-25h89v-116h-89v-411h-180v411h-57z" />
    <glyph glyph-name="f_f.short" horiz-adv-x="652" 
d="M249 411v-411.001h-180v411h-57v116h57v26c0 102 59.333 153 178 153c35.333 0 66 -4.66699 92 -14v-101h-29c-21.333 0 -36.833 -3 -46.5 -9s-14.5 -17.333 -14.5 -34v-21h136v32c0 102 59.333 153 178 153c35.333 0 65.333 -4.66699 90 -14v-101h-27
c-22 0 -37.833 -3.16699 -47.5 -9.5s-14.5 -18.166 -14.5 -35.499v-25h89v-116h-89v-411h-179v411h-136z" />
    <glyph glyph-name="less.cap" horiz-adv-x="444" 
d="M248 0l-219 307v85l219 308h165v-46l-208 -304v-2l208 -302v-46h-165z" />
    <glyph glyph-name="greater.cap" horiz-adv-x="444" 
d="M31 0v46l207 304v2l-207 302v46h164l219 -307v-85l-219 -308h-164z" />
    <glyph glyph-name="questiondown.cap" horiz-adv-x="464" 
d="M349 482c6.66699 -39.333 5.66602 -71.833 -3.00098 -97.5s-28 -53.167 -58 -82.5c-18 -16.667 -31.5 -29.667 -40.5 -39s-17.5 -21.333 -25.5 -36s-12 -29 -12 -43c0 -18 6 -32 18 -42s28.333 -15 49 -15c40.667 0 75 13.333 103 40h68v-123
c-55.333 -35.333 -119.666 -53 -192.999 -53c-74.667 0 -131.834 16 -171.501 48s-59.5 78 -59.5 138c0 38 9.16699 70.333 27.5 97s45.833 53.334 82.5 80.001c24 18 40.667 31.333 50 40s17.833 20.667 25.5 36s10.834 32.666 9.50098 51.999h130zM279.999 707
c26.667 0 49 -8.83301 67 -26.5s27 -39.167 27 -64.5s-9 -46.833 -27 -64.5s-40.333 -26.5 -67 -26.5c-26 0 -48.167 8.83301 -66.5 26.5s-27.5 39.167 -27.5 64.5s9.16699 46.833 27.5 64.5s40.5 26.5 66.5 26.5z" />
    <glyph glyph-name="exclamdown.cap" horiz-adv-x="301" 
d="M209 482l37 -377v-105h-191v105l36 377h118zM150 707c26.667 0 49 -8.83301 67 -26.5s27 -39.167 27 -64.5s-9 -46.833 -27 -64.5s-40.333 -26.5 -67 -26.5c-26 0 -48.167 8.83301 -66.5 26.5s-27.5 39.167 -27.5 64.5s9.16699 46.833 27.5 64.5s40.5 26.5 66.5 26.5z
" />
    <glyph glyph-name="bullet.cap" horiz-adv-x="357" 
d="M179 182c-42.667 0 -78.167 13 -106.5 39s-42.5 61 -42.5 105c0 44.667 14.333 80.334 43 107.001s64 40 106 40c42.667 0 78 -13.333 106 -40s42 -62.334 42 -107.001c0 -44 -14 -79 -42 -105s-63.333 -39 -106 -39z" />
    <glyph glyph-name="hyphen.cap" horiz-adv-x="312" 
d="M33 259v137h246v-137h-246z" />
    <glyph glyph-name="endash.cap" horiz-adv-x="439" 
d="M34 261v133h370v-133h-370z" />
    <glyph glyph-name="emdash.cap" horiz-adv-x="740" 
d="M34 261v133h671v-133h-671z" />
    <glyph glyph-name="dagger.cap" horiz-adv-x="479" 
d="M178 0l-28 259v65l38 105l-109 -35h-58v163h58l109 -37l-33 98v82h169v-82l-33 -98l109 37h58v-163h-58l-109 36l38 -104v-65l-28 -261h-123z" />
    <glyph glyph-name="daggerdbl.cap" horiz-adv-x="479" 
d="M148 370l41 76l-110 -36h-58v161h58l109 -36l-33 94v71h169v-71l-33 -93l109 35h58v-161h-58l-110 37l41 -75v-42l-41 -76l110 36h58v-161h-58l-109 36l33 -94v-71h-169v71l33 93l-109 -35h-58v161h58l110 -37l-41 75v42z" />
    <glyph glyph-name="quoteleft.cap" horiz-adv-x="533" 
d="M285 -9c-72.667 0 -133.832 24.168 -183.499 72.501s-74.5 118.5 -74.5 210.5c0 126.667 39.5 227.5 118.5 302.5s196.167 116.5 351.5 124.5v-122c-73.333 -8 -125.833 -23.5 -157.5 -46.5s-47.5 -50.167 -47.5 -81.5c0 -17.333 5.66699 -31 17 -41
s30.166 -20.667 56.499 -32s46.166 -21 59.499 -29c54.667 -36 82 -89.333 82 -160c0 -58.667 -20.667 -106.334 -62 -143.001s-94.666 -55 -159.999 -55z" />
    <glyph glyph-name="quoteright.cap" horiz-adv-x="533" 
d="M248 709c73.333 0 134.833 -24.168 184.5 -72.501s74.5 -118.5 74.5 -210.5c0 -126.667 -39.667 -227.5 -119 -302.5s-196.666 -116.167 -351.999 -123.5v121c73.333 8 125.833 23.667 157.5 47s47.5 50.333 47.5 81c0 17.333 -5.83301 31 -17.5 41
s-30.334 20.667 -56.001 32s-45.167 21.333 -58.5 30c-54.667 34 -82 87 -82 159c0 58.667 20.5 106.334 61.5 143.001s94.167 55 159.5 55z" />
    <glyph glyph-name="quotedblleft.cap" horiz-adv-x="1056" 
d="M285 -9c-72.667 0 -133.832 24.168 -183.499 72.501s-74.5 118.5 -74.5 210.5c0 126.667 39.5 227.5 118.5 302.5s196.167 116.5 351.5 124.5v-122c-73.333 -8 -125.833 -23.5 -157.5 -46.5s-47.5 -50.167 -47.5 -81.5c0 -17.333 5.66699 -31 17 -41
s30.166 -20.667 56.499 -32s46.166 -21 59.499 -29c54.667 -36 82 -89.333 82 -160c0 -58.667 -20.667 -106.334 -62 -143.001s-94.666 -55 -159.999 -55zM808.002 -8.99902c-72.667 0 -133.833 24.168 -183.5 72.501s-74.5 118.5 -74.5 210.5
c0 126.667 39.5 227.5 118.5 302.5s196.167 116.5 351.5 124.5v-122c-136 -14.667 -204 -57.334 -204 -128.001c0 -17.333 5.66699 -31 17 -41s30.166 -20.667 56.499 -32s45.833 -21 58.5 -29c54.667 -35.333 82 -88.666 82 -159.999
c0 -58.667 -20.667 -106.334 -62 -143.001s-94.666 -55 -159.999 -55z" />
    <glyph glyph-name="quotedblright.cap" horiz-adv-x="1056" 
d="M771 709c73.333 0 134.833 -24.168 184.5 -72.501s74.5 -118.5 74.5 -210.5c0 -126.667 -39.667 -227.5 -119 -302.5s-196.666 -116.167 -351.999 -123.5v121c73.333 8 125.833 23.667 157.5 47s47.5 50.333 47.5 81c0 17.333 -5.83301 31 -17.5 41
s-30.334 20.667 -56.001 32s-45.167 21.333 -58.5 30c-54.667 34 -82 87 -82 159c0 58.667 20.5 106.334 61.5 143.001s94.167 55 159.5 55zM248 708.999c73.333 0 134.833 -24.168 184.5 -72.501s74.5 -118.5 74.5 -210.5c0 -126.667 -39.667 -227.5 -119 -302.5
s-196.666 -116.167 -351.999 -123.5v121c73.333 8 125.833 23.667 157.5 47s47.5 50.333 47.5 81c0 17.333 -5.83301 31 -17.5 41s-30.334 20.667 -56.001 32s-45.167 21.333 -58.5 30c-54.667 34 -82 87 -82 159c0 58.667 20.5 106.334 61.5 143.001s94.167 55 159.5 55z
" />
    <glyph glyph-name="guillemotleft.cap" horiz-adv-x="738" 
d="M707 700v-46l-208 -304v-2l208 -302v-46h-165l-219 307v85l219 308h165zM413 700v-46l-208 -304v-2l208 -302v-46h-165l-219 307v85l219 308h165z" />
    <glyph glyph-name="guillemotright.cap" horiz-adv-x="738" 
d="M31 0v46l207 304v2l-207 302v46h164l219 -307v-85l-219 -308h-164zM325 0v46l207 304v2l-207 302v46h164l219 -307v-85l-219 -308h-164z" />
    <glyph glyph-name="at.cap" horiz-adv-x="861" 
d="M432 -34c-52.667 0 -102.5 6.99609 -149.5 20.9961s-89.833 35 -128.5 63s-69.167 65.333 -91.5 112s-33.5 100 -33.5 160c0 63.333 12.667 121.333 38 174s58.5 95.5 99.5 128.5s86.333 58.5 136 76.5s99.834 27 150.501 27c108 0 198.167 -28 270.5 -84
s108.5 -132.667 108.5 -230c0 -84.667 -23.5 -149 -70.5 -193s-105.167 -66 -174.5 -66c-68 0 -110.667 21 -128 63c-33.333 -40.667 -74.333 -61 -123 -61c-36 0 -65.167 12 -87.5 36s-33.5 58 -33.5 102c0 63.333 19.333 118.333 58 165s90 70 154 70
c38.667 0 70.334 -13 95.001 -39c17.333 22.667 40.666 34 69.999 34h67l-50 -228c-8.66699 -33.333 -1.33398 -50 21.999 -50c28 0 51.333 13.833 70 41.5s28 69.5 28 125.5c0 70.667 -24.667 125.834 -74 165.501s-116.666 59.5 -201.999 59.5
c-40.667 0 -79.5 -6.66699 -116.5 -20s-70.333 -32.666 -100 -57.999s-53.334 -58.666 -71.001 -99.999s-26.5 -87.666 -26.5 -138.999c0 -90 26.833 -157 80.5 -201s124.5 -66 212.5 -66c94.667 0 175 21 241 63h35v-84c-30 -20.667 -69.5 -37.167 -118.5 -49.5
s-101.5 -18.5 -157.5 -18.5zM398 260.996c20 0 38.667 8.66699 56 26l30 134c-14 4.66699 -25.667 7 -35 7c-25.333 0 -46 -12.5 -62 -37.5s-24 -54.5 -24 -88.5c0 -27.333 11.667 -41 35 -41z" />
    <glyph glyph-name="paragraph.cap" horiz-adv-x="590" 
d="M242 0v300h-3c-67.333 0 -120.5 16.333 -159.5 49s-58.5 82.667 -58.5 150c0 134 84.667 201 254 201h259v-700h-114v586h-64v-586h-114z" />
    <glyph glyph-name="grave.cap" 
d="M257 723h-105l-102 93v42h173l34 -102v-33z" />
    <glyph glyph-name="dieresis.cap" 
d="M97 723c-24.667 0 -45 7.5 -61 22.5s-24 33.833 -24 56.5s8 41.5 24 56.5s36.333 22.5 61 22.5s44.834 -7.33301 60.501 -22s23.5 -33.667 23.5 -57s-7.83301 -42.333 -23.5 -57s-35.834 -22 -60.501 -22zM301 723c-24.667 0 -44.834 7.33301 -60.501 22
s-23.5 33.667 -23.5 57s7.83301 42.333 23.5 57s35.834 22 60.501 22s45 -7.5 61 -22.5s24 -33.833 24 -56.5s-8 -41.5 -24 -56.5s-36.333 -22.5 -61 -22.5z" />
    <glyph glyph-name="macron.cap" 
d="M337 842v-109h-276v109h276z" />
    <glyph glyph-name="acute.cap" 
d="M142 723v33l33 102h173v-42l-101 -93h-105z" />
    <glyph glyph-name="circumflex.cap" 
d="M48 723v38l91 100h121l89 -100v-38h-97l-56 38l-55 -38h-93z" />
    <glyph glyph-name="caron.cap" 
d="M349 861v-38l-92 -100h-121l-88 100v38h97l56 -38l55 38h93z" />
    <glyph glyph-name="breve.cap" 
d="M199 723c-40 0 -72.668 9.33203 -98.001 27.999s-41 42.334 -47 71.001v39h103c2.66699 -20.667 16.667 -31 42 -31c24 0 38 10.333 42 31h103v-39c-6.66699 -28 -22.667 -51.5 -48 -70.5s-57.666 -28.5 -96.999 -28.5z" />
    <glyph glyph-name="dotaccent.cap" 
d="M199 723c-26.667 0 -48.834 7.83301 -66.501 23.5s-26.5 35.834 -26.5 60.501s8.83301 45 26.5 61s39.834 24 66.501 24s48.834 -8 66.501 -24s26.5 -36.333 26.5 -61s-8.83301 -44.834 -26.5 -60.501s-39.834 -23.5 -66.501 -23.5z" />
    <glyph glyph-name="ring.cap" 
d="M199 723c-30 0 -55.333 9.33301 -76 28s-31 43.334 -31 74.001c0 30 10.333 54.5 31 73.5s46 28.5 76 28.5s55.333 -9.5 76 -28.5s31 -43.5 31 -73.5c0 -30.667 -10.333 -55.334 -31 -74.001s-46 -28 -76 -28zM199 789c10 0 18.167 3.33301 24.5 10
s9.5 15.334 9.5 26.001s-3.16699 19.334 -9.5 26.001s-14.5 10 -24.5 10s-18 -3.33301 -24 -10s-9 -15.334 -9 -26.001s3 -19.334 9 -26.001s14 -10 24 -10z" />
    <glyph glyph-name="tilde.cap" 
d="M25 723l0.000976562 40c5.33301 33.333 17.166 58.833 35.499 76.5s41.833 26.5 70.5 26.5c18 0 39.333 -4 64 -12s40 -12 46 -12c15.333 0 25.666 8 30.999 24h90v-40c-5.33301 -32.667 -17.166 -58 -35.499 -76s-41.5 -27 -69.5 -27
c-18.667 0 -40.167 4.33301 -64.5 13s-39.5 13 -45.5 13c-17.333 0 -28 -8.66699 -32 -26h-90z" />
    <glyph glyph-name="hungarumlaut.cap" 
d="M59 723v29l31 106h141v-42l-76 -93h-96zM238 723v29l31 106h141v-42l-75 -93h-97z" />
    </font>
</defs>
</svg>
